<?xml version="1.0" encoding="utf-8"?>
<!-- Generator: Adobe Illustrator 22.0.1, SVG Export Plug-In . SVG Version: 6.00 Build 0)  -->
<svg version="1.1" id="Layer_1" xmlns="http://www.w3.org/2000/svg" xmlns:xlink="http://www.w3.org/1999/xlink" x="0px" y="0px"
	 viewBox="0 0 16 16" style="enable-background:new 0 0 16 16;" xml:space="preserve">
<style type="text/css">
	.st0{fill:#FF5C5D;}
</style>
<g>
	<path class="st0" d="M7,14.8h1.1c1,0,1.4-0.4,1.4-1.2c0-0.4-0.1-0.7-0.4-0.9c-0.3-0.2-0.6-0.3-1.1-0.3H7V14.8z"/>
	<path class="st0" d="M9.3,9c0-0.6-0.5-1-1.5-1H7v2.1h0.9c0.4,0,0.8-0.1,1-0.3C9.2,9.6,9.3,9.3,9.3,9z"/>
	<path class="st0" d="M12.5,0h-9C1.6,0,0,1.6,0,3.5v9C0,14.4,1.6,16,3.5,16h0.4V5.7h2.4C6.4,4.5,7,3.7,7.5,3.3
		C7.3,3.2,7.3,3,7.3,2.8c0-0.5,0.4-0.9,0.9-0.9C8.6,1.9,9,2.3,9,2.8S8.6,3.6,8.1,3.6c-0.1,0-0.3,0-0.4-0.1C7.4,4,7.3,4.7,7.3,5.7
		h0.6c0.2,0,0.3,0,0.5,0c0.2-0.9,1-1.5,1.6-1.9C9.9,3.7,9.8,3.5,9.8,3.3c0-0.5,0.4-0.9,0.9-0.9s0.9,0.4,0.9,0.9
		c0,0.5-0.4,0.9-0.9,0.9c-0.2,0-0.4-0.1-0.5-0.2c-0.6,0.5-0.9,1-1,1.7c0.9,0.1,1.6,0.3,2.1,0.6c0.8,0.5,1.1,1.2,1.1,2.2
		c0,0.6-0.2,1.2-0.5,1.6c-0.3,0.5-0.8,0.7-1.3,0.9v0.1c0.7,0.2,1.2,0.5,1.5,0.9c0.3,0.4,0.5,1,0.5,1.7c0,0.9-0.3,1.6-0.9,2.2h0.7
		c1.9,0,3.5-1.6,3.5-3.5v-9C16,1.6,14.4,0,12.5,0z"/>
</g>
</svg>
