<?xml version="1.0" encoding="UTF-8"?>
<svg width="145px" height="138px" viewBox="0 0 145 138" version="1.1" xmlns="http://www.w3.org/2000/svg" xmlns:xlink="http://www.w3.org/1999/xlink">
    <!-- Generator: Sketch 52.2 (67145) - http://www.bohemiancoding.com/sketch -->
    <title>Bee-Not-Happy-Avatar@2x</title>
    <desc>Created with Sketch.</desc>
    <defs>
        <circle id="path-1" cx="83" cy="65" r="65"></circle>
        <linearGradient x1="54.3401357%" y1="23.5283124%" x2="23.4031873%" y2="79.7649499%" id="linearGradient-3">
            <stop stop-color="#F5EA95" offset="0%"></stop>
            <stop stop-color="#EFDB71" offset="100%"></stop>
        </linearGradient>
        <path d="M105.102539,100.883789 C81.3583984,100.883789 41.4980469,92.7382813 22.9375,72.7128906 C4.37695313,52.6875 5.05664063,31.7949219 14.6015625,18.828125 C24.1464844,5.86132813 37.2792969,-6.70703125 67.6000256,4.94824219 C97.9207543,16.6035156 118.585937,33.2412577 130.21875,50.6387186 C141.851562,68.0361795 128.84668,100.883789 105.102539,100.883789 Z" id="path-4"></path>
        <linearGradient x1="76.0316474%" y1="6.1538362%" x2="9.41181663%" y2="85.3458379%" id="linearGradient-6">
            <stop stop-color="#555555" offset="0%"></stop>
            <stop stop-color="#1B1B1B" offset="100%"></stop>
        </linearGradient>
        <path d="M105.102539,100.883789 C81.3583984,100.883789 41.4980469,92.7382812 22.9375,72.7128906 C4.37695313,52.6875 5.05664063,31.7949219 14.6015625,18.828125 C-6.36328125,66.3632812 50.7783203,96.6445312 105.102539,100.883789 Z" id="path-7"></path>
        <radialGradient cx="76.0316474%" cy="6.1538362%" fx="76.0316474%" fy="6.1538362%" r="210.721393%" id="radialGradient-9">
            <stop stop-color="#555555" offset="0%"></stop>
            <stop stop-color="#1B1B1B" offset="100%"></stop>
        </radialGradient>
        <linearGradient x1="83.4711648%" y1="11.9195273%" x2="0%" y2="90.0449005%" id="linearGradient-10">
            <stop stop-color="#F5EA95" offset="0%"></stop>
            <stop stop-color="#EFDB71" offset="100%"></stop>
        </linearGradient>
        <path d="M105.158203,75.4726562 C115.757161,64.7304688 121.056641,53.9713542 121.056641,43.1953125 C121.056641,27.03125 109.234375,0.64453125 76.3085937,0.64453125 C43.3828125,0.64453125 26.5429687,29.3183594 15.6425781,49.3496094 C4.7421875,69.3808594 -5.85742188,101.248047 4.89257812,144.212891 C15.6425781,187.177734 77.7519531,184.220703 94.578125,176.578125 C111.404297,168.935547 132.275391,156.271484 132.275391,124.458984 C132.275391,103.250651 123.236328,86.921875 105.158203,75.4726562 Z" id="path-11"></path>
        <linearGradient x1="77.7423631%" y1="24.9855557%" x2="12.3795322%" y2="83.7965306%" id="linearGradient-13">
            <stop stop-color="#555555" offset="0%"></stop>
            <stop stop-color="#1B1B1B" offset="100%"></stop>
        </linearGradient>
        <linearGradient x1="8.56995728%" y1="97.6336705%" x2="83.6629071%" y2="1.56475795%" id="linearGradient-14">
            <stop stop-color="#CACACA" offset="0%"></stop>
            <stop stop-color="#F2F2F2" offset="100%"></stop>
        </linearGradient>
        <radialGradient cx="63.5504782%" cy="37.2808642%" fx="63.5504782%" fy="37.2808642%" r="104.862751%" gradientTransform="translate(0.635505,0.372809),scale(1.000000,0.620899),rotate(90.000000),scale(1.000000,0.638062),translate(-0.635505,-0.372809)" id="radialGradient-15">
            <stop stop-color="#555555" offset="0%"></stop>
            <stop stop-color="#1B1B1B" offset="100%"></stop>
        </radialGradient>
        <linearGradient x1="100%" y1="35.1605018%" x2="9.41181663%" y2="85.3458379%" id="linearGradient-16">
            <stop stop-color="#555555" offset="0%"></stop>
            <stop stop-color="#1B1B1B" offset="100%"></stop>
        </linearGradient>
        <radialGradient cx="76.0316474%" cy="6.1538362%" fx="76.0316474%" fy="6.1538362%" r="194.803402%" id="radialGradient-17">
            <stop stop-color="#555555" offset="0%"></stop>
            <stop stop-color="#1B1B1B" offset="100%"></stop>
        </radialGradient>
        <linearGradient x1="59.916838%" y1="-153.081959%" x2="50%" y2="148.950656%" id="linearGradient-18">
            <stop stop-color="#555555" offset="0%"></stop>
            <stop stop-color="#1B1B1B" offset="100%"></stop>
        </linearGradient>
        <linearGradient x1="83.4711648%" y1="11.9195273%" x2="0%" y2="90.0449005%" id="linearGradient-19">
            <stop stop-color="#F9F2BF" offset="0%"></stop>
            <stop stop-color="#F5EA95" offset="34.5872471%"></stop>
            <stop stop-color="#EFDB71" offset="100%"></stop>
        </linearGradient>
        <linearGradient x1="70.5595316%" y1="0%" x2="-53.5481154%" y2="57.947556%" id="linearGradient-20">
            <stop stop-color="#555555" offset="0%"></stop>
            <stop stop-color="#1B1B1B" offset="100%"></stop>
        </linearGradient>
    </defs>
    <g id="Beep-App" stroke="none" stroke-width="1" fill="none" fill-rule="evenodd">
        <g id="04-Feedback-gathering-v02" transform="translate(-8.000000, -439.000000)">
            <g id="Bee-Not-Happy-Avatar" transform="translate(5.000000, 439.000000)">
                <g id="Bee-Not-Happy" transform="translate(0.000000, 8.000000)">
                    <g id="Wings-Copy" transform="translate(0.000000, 41.000000)" fill="#96CCE5" fill-opacity="0.5">
                        <ellipse id="Oval" transform="translate(26.868353, 20.000000) rotate(12.000000) translate(-26.868353, -20.000000) " cx="26.8683531" cy="20" rx="12.4387436" ry="17.8028753"></ellipse>
                        <ellipse id="Oval" transform="translate(15.868353, 21.000000) rotate(12.000000) translate(-15.868353, -21.000000) " cx="15.8683531" cy="21" rx="12.4387436" ry="17.8028753"></ellipse>
                    </g>
                    <mask id="mask-2" fill="white">
                        <use xlink:href="#path-1"></use>
                    </mask>
                    <use id="Oval" fill="#FF5C5D" fill-rule="nonzero" xlink:href="#path-1"></use>
                    <g id="Butt" mask="url(#mask-2)">
                        <g transform="translate(-25.000000, 86.000000)">
                            <mask id="mask-5" fill="white">
                                <use xlink:href="#path-4"></use>
                            </mask>
                            <use id="Butt" stroke="none" fill="url(#linearGradient-3)" fill-rule="evenodd" xlink:href="#path-4"></use>
                            <path d="M20.1020074,69.4682165 C17.605189,66.4306568 15.5352889,63.3841114 13.8564639,60.358958 C13.8564639,35.1123513 30.9003906,7.06054688 52.0245773,0.756486058 C55.7760529,1.26339208 59.8765891,2.24097976 64.3765005,3.77739269 C32.2431641,14.1826172 22.1010742,43.5756836 20.1020074,69.4682165 Z" id="Path-4-Copy" stroke="none" fill="url(#linearGradient-6)" fill-rule="evenodd" mask="url(#mask-5)"></path>
                            <path d="M36.659373,83.529619 C33.4527489,81.6172585 30.4587085,79.5318464 27.7499188,77.2661301 C25.4477539,38.9506836 51.8922111,8.47993432 67.6000256,4.94824219 C70.5437239,6.07979838 73.3964132,7.25831715 76.1586638,8.47993432 C51.8922111,21.7363281 33.6928711,50.8598633 36.659373,83.529619 Z" id="Path-4-Copy-2" stroke="none" fill="url(#linearGradient-6)" fill-rule="evenodd" mask="url(#mask-5)"></path>
                            <mask id="mask-8" fill="white">
                                <use xlink:href="#path-7"></use>
                            </mask>
                            <use id="Path-4-Copy-3" stroke="none" fill-opacity="0.05" fill="#000000" fill-rule="evenodd" style="mix-blend-mode: multiply;" xlink:href="#path-7"></use>
                        </g>
                    </g>
                    <g id="Wings" mask="url(#mask-2)" fill="#96CCE5" fill-opacity="0.5">
                        <g transform="translate(0.000000, 41.000000)" id="Oval">
                            <ellipse transform="translate(26.868353, 20.000000) rotate(12.000000) translate(-26.868353, -20.000000) " cx="26.8683531" cy="20" rx="12.4387436" ry="17.8028753"></ellipse>
                            <ellipse transform="translate(15.868353, 21.000000) rotate(12.000000) translate(-15.868353, -21.000000) " cx="15.8683531" cy="21" rx="12.4387436" ry="17.8028753"></ellipse>
                        </g>
                    </g>
                    <g id="Antenna-Back" mask="url(#mask-2)">
                        <g transform="translate(107.000000, -4.000000)">
                            <path d="M16.6469674,2.23219854 C17.2954102,2.96826172 8.14132261,9.96557577 6.45945574,16.709095 C4.77758888,23.4526142 -1.86560689,22.6865889 1.98815115,15.6412076 C5.84190919,8.5958263 15.9985247,1.49613537 16.6469674,2.23219854 Z" id="Path-5" fill="url(#linearGradient-6)"></path>
                            <circle id="Oval-2" fill="url(#radialGradient-9)" cx="16.5" cy="2.5" r="2.5"></circle>
                        </g>
                    </g>
                    <g id="Body" mask="url(#mask-2)">
                        <g transform="translate(14.000000, 6.000000)">
                            <mask id="mask-12" fill="white">
                                <use xlink:href="#path-11"></use>
                            </mask>
                            <use id="Body" stroke="none" fill="url(#linearGradient-10)" fill-rule="evenodd" xlink:href="#path-11"></use>
                            <path d="M93.3289077,18.4673443 C95.5888515,16.8846968 94.9651113,12.5299234 91.9357451,8.9340061 C88.9063789,5.46829361 84.618546,4.0771021 82.3586022,5.63337248 C80.0986584,7.1063118 80.7223986,10.9745459 83.7517648,14.4666355 C86.781131,18.0889299 91.068964,19.9666607 93.3289077,18.4673443 Z" id="Oval-6" stroke="none" fill-opacity="0.3" fill="#FFFFFF" fill-rule="evenodd" style="mix-blend-mode: overlay;" mask="url(#mask-12)"></path>
                            <path d="M97.5459768,26.0283171 C98.4285187,25.4102695 98.1849388,23.7096654 97.001926,22.3054059 C95.8189132,20.9519933 94.1444503,20.4087122 93.2619084,21.0164591 C92.3793666,21.5916639 92.6229464,23.1022672 93.8059592,24.4659804 C94.9889721,25.8805406 96.663435,26.6138226 97.5459768,26.0283171 Z" id="Oval-6-Copy" stroke="none" fill-opacity="0.3" fill="#FFFFFF" fill-rule="evenodd" style="mix-blend-mode: overlay;" mask="url(#mask-12)" transform="translate(95.403943, 23.500000) rotate(14.000000) translate(-95.403943, -23.500000) "></path>
                            <path d="M105.158203,75.4726563 C87.9511719,91.2910156 38.7509766,75.4726563 15.6425781,49.3496094 C7.40771183,64.4825226 -0.655490254,86.3705337 0.528489246,114.695322 C15.6425781,147.433594 118.55957,167.189453 130.578262,139.13292 C131.668499,134.75171 132.275391,129.883746 132.275391,124.458984 C132.275391,88.2539062 105.158203,75.4726562 105.158203,75.4726563 Z" id="Tee" stroke="url(#linearGradient-6)" stroke-width="0.5" fill="url(#linearGradient-13)" fill-rule="evenodd" mask="url(#mask-12)"></path>
                            <path d="M94.1930864,93.4854435 C94.2452468,93.6842169 94.2896421,93.8865133 94.3235582,94.093334 C94.4505194,94.8688648 94.4344809,95.6314628 94.2962452,96.354552 C91.1937211,95.2476114 88.7304336,92.2760144 88.1360114,88.5045165 C87.9547463,87.3633838 87.9588836,86.2542401 88.12326,85.2149852 C88.9754403,85.2634633 89.8126269,85.4425476 90.6146863,85.7324388 C90.4617476,86.5271245 90.4438009,87.3819883 90.5873335,88.2636536 C90.9632189,90.5847491 92.3616499,92.493308 94.1930864,93.4854435 Z M91.1323568,88.2101285 C91.0032043,87.4212074 91.0159048,86.6552507 91.1496298,85.941771 C94.2498843,87.229411 96.7315429,90.1155591 97.3359312,93.6572563 C98.1782501,98.6694122 94.907808,103.581665 90.0618318,104.629185 L89.6513932,101.900125 C93.1291992,101.21734 95.4726989,97.6865796 94.8709118,94.0140471 C94.4960649,91.7500203 93.093368,89.8712849 91.2625606,88.828099 C91.2103764,88.6257843 91.1666223,88.4197831 91.1323568,88.2101285 Z M99.7603194,96.9414704 C100.58805,96.6791694 101.360008,96.3108403 102.062925,95.8564881 C103.466831,97.7373831 105.872947,98.7297764 108.369631,98.2450365 L108.809156,100.59871 C105.158044,101.379044 101.654472,99.8503412 99.7603194,96.9414704 Z M105.49858,86.2932184 C102.631392,86.8210624 100.697794,89.2984853 100.806018,92.2340899 C100.144593,92.8144134 99.3379498,93.248074 98.4283778,93.4709741 C97.6470008,88.8804959 100.32921,84.8391494 104.551788,84 C104.968844,84.7156774 105.290048,85.4847858 105.49858,86.2932184 Z M97.9804236,94.1427175 C101.162507,93.6688982 103.372941,90.9660387 103.249616,87.9153835 C103.906851,87.3765112 104.709631,86.9924229 105.617863,86.8172235 C106.497561,91.4510256 103.264057,95.8657248 98.4112692,96.6840837 C98.2450594,96.7121556 98.0793012,96.7347502 97.9139302,96.7530709 C98.043319,95.9067347 98.0638651,95.032031 97.9804236,94.1427175 Z" id="Modus-Icon" stroke="none" fill="url(#linearGradient-14)" fill-rule="evenodd" mask="url(#mask-12)" transform="translate(98.404578, 94.314593) rotate(-7.000000) translate(-98.404578, -94.314593) "></path>
                        </g>
                    </g>
                    <g id="Face" mask="url(#mask-2)">
                        <g transform="translate(80.000000, 25.000000)">
                            <ellipse id="Eye-1" fill="url(#radialGradient-15)" fill-rule="evenodd" cx="5.35059656" cy="21.7857946" rx="2.35059656" ry="3.78579463"></ellipse>
                            <path d="M2.95977739,5.55772987 C2.26097755,6.3212376 1.73599596,7.37365723 1.21939439,7.07055664 C0.70279283,6.76745605 1.14206524,6.01219352 2.08135942,4.89080675 C3.93926958,2.6727201 6.97735551,0.948843148 10.8650508,2.75450721 C12.6207656,3.56995977 13.5128514,4.57873535 12.9380223,4.89080675 C12.3631932,5.20287814 11.2696538,4.34032164 10.3450313,4.04166844 C8.65896959,3.49707031 5.52542467,2.75450721 2.95977739,5.55772987 Z" id="Brow-1" fill="url(#linearGradient-16)" fill-rule="nonzero" transform="translate(7.055900, 4.561979) rotate(-10.000000) translate(-7.055900, -4.561979) "></path>
                            <ellipse id="Eye-2" fill="url(#radialGradient-15)" fill-rule="evenodd" cx="42.3505966" cy="25.7857946" rx="2.35059656" ry="3.78579463"></ellipse>
                            <path d="M37.8709671,10.0776012 C37.1721673,10.8411089 36.1690321,12.171461 35.6524306,11.8683604 C35.135829,11.5652599 35.5751014,10.8099973 36.5143956,9.68861055 C38.3723058,7.4705239 41.4103917,5.74664695 45.298087,7.55231101 C47.0538018,8.36776357 47.9903289,9.63540372 47.6293864,9.53190512 C47.2684439,9.42840652 45.9948344,8.64565948 45.0702118,8.34700628 C43.3841501,7.80240815 40.4366144,7.27437851 37.8709671,10.0776012 Z" id="Brow-2" fill="url(#linearGradient-16)" fill-rule="nonzero" transform="translate(41.569535, 9.355146) rotate(35.000000) translate(-41.569535, -9.355146) "></path>
                            <path d="M21.4063123,34.8633552 C20.9017684,35.5580641 19.9392566,37.3248225 19.2356417,36.8875383 C18.5320268,36.450254 19.2839812,34.2005514 19.6296525,33.4795162 C22.1288535,28.2664363 27.2472288,26.4767086 31.370559,29.5857325 C32.6455342,30.5470739 33.6055627,31.2897522 33.1424531,31.9766445 C32.6793435,32.6635368 31.5407874,31.8151246 30.6460515,31.4814594 C27.6374299,30.3594832 23.9246694,31.3958171 21.4063123,34.8633552 Z" id="Mouth-Upset" fill="url(#linearGradient-6)" fill-rule="nonzero" transform="translate(26.102946, 32.505597) rotate(24.000000) translate(-26.102946, -32.505597) "></path>
                        </g>
                    </g>
                    <g id="Antenna-Front" mask="url(#mask-2)">
                        <g transform="translate(84.000000, -8.000000)">
                            <path d="M18.328125,2.53955078 C19.2104492,3.46484375 9.01367188,11.0083008 7.171875,18.3930664 C5.33007813,25.777832 -1.94482422,24.9389648 2.27539063,17.2236328 C6.49560547,9.50830078 17.4458008,1.61425781 18.328125,2.53955078 Z" id="Path-5" fill="url(#linearGradient-6)"></path>
                            <circle id="Oval-2" fill="url(#radialGradient-17)" cx="18" cy="3" r="3"></circle>
                        </g>
                    </g>
                    <g id="Hand-2" mask="url(#mask-2)">
                        <g transform="translate(49.890018, 132.390774) rotate(10.000000) translate(-49.890018, -132.390774) translate(17.390018, 101.890774)">
                            <g id="Phone" stroke-width="1" fill="none" transform="translate(47.569635, 41.711856) rotate(34.000000) translate(-47.569635, -41.711856) translate(38.569635, 25.211856)">
                                <rect id="Rectangle-2" stroke="#EBEBEB" stroke-width="0.2" fill="#EBEBEB" x="0" y="0" width="16" height="31" rx="2"></rect>
                            </g>
                            <path d="M11.2378742,31.0011755 C22.4773941,26.4056094 30.2987863,21.7905207 34.7020511,17.1559092 C34.7020511,17.1559092 35.8354245,18.1785683 38.1021713,20.2238865 C47.0801341,11.4326208 49.3842753,12.888492 45.0145948,24.5915002 C40.6449143,36.2945084 32.5108328,43.0870427 20.6123502,44.9691031 L11.2378742,31.0011755 Z" id="Path-8-Copy-3" fill-opacity="0.1" fill="#000000" style="mix-blend-mode: multiply;" transform="translate(29.199127, 29.768155) rotate(81.000000) translate(-29.199127, -29.768155) "></path>
                            <path d="M12.319731,31.1264361 C23.5592508,26.53087 31.3806431,21.9157813 35.7839079,17.2811699 C35.7839079,17.2811699 36.9172813,18.3038289 39.184028,20.3491471 C47.4589956,10.2205408 49.4116391,11.0077417 45.0419585,22.7107499 C40.672278,34.4137581 32.8896942,41.8749627 21.694207,45.0943637 L12.319731,31.1264361 Z" id="Path-8-Copy" fill="url(#linearGradient-10)" transform="translate(29.813386, 29.197440) rotate(81.000000) translate(-29.813386, -29.197440) "></path>
                            <path d="M7.12210136,8.1975953 C10.2430511,7.05563306 15.752728,8.03624096 21.9483902,4.83222019 C21.9483902,4.83222019 26.2831004,11.3406101 34.9525207,24.3573899 C31.6521154,27.3672082 26.7046884,30.3598931 20.1102397,33.3354448 C9.66295022,36.7752639 -9.53324026,14.2918207 7.12210136,8.1975953 Z" id="Path-9-Copy" fill="url(#linearGradient-18)" transform="translate(17.768583, 19.261739) rotate(81.000000) translate(-17.768583, -19.261739) "></path>
                        </g>
                    </g>
                    <g id="Hand-1" mask="url(#mask-2)">
                        <g transform="translate(53.500000, 97.000000) rotate(90.000000) translate(-53.500000, -97.000000) translate(30.000000, 75.000000)">
                            <path d="M11.0990287,18.7815584 C22.7964879,14.9315892 30.8253273,10.6892989 35.1855469,6.0546875 C39.5457665,1.42007607 40.9718732,2.20620888 39.4638672,8.41308594 C47.1456486,-0.470911825 48.8230574,0.938593384 44.4960937,12.6416016 C40.1691301,24.3446097 32.1310529,31.0472379 20.3818623,32.749486 L11.0990287,18.7815584 Z" id="Path-8-Copy-2" fill-opacity="0.1" fill="#000000" style="mix-blend-mode: multiply;"></path>
                            <path d="M11.0990287,18.7815584 C22.228674,14.1859923 29.9736064,9.57090358 34.333826,4.93629215 C38.6940456,0.301680715 40.1580448,1.06196032 38.7258235,7.21713096 C46.2364865,-2.3867164 47.8283361,-1.33713599 43.5013725,10.3658722 C39.1744088,22.0688804 31.4679054,29.530085 20.3818623,32.749486 L11.0990287,18.7815584 Z" id="Path-8" fill="url(#linearGradient-19)"></path>
                            <path d="M4.7327386,17.7306486 C6.65429687,16.5302734 13.2802734,16.5302734 19.3696289,14.1391602 C19.3696289,14.1391602 23.6191406,19.882487 32.1181641,31.3691406 C29.0989794,36.3305919 24.2575608,40.1637111 17.5939084,42.8684981 C4.7327386,48.0888672 -6.76770667,24.9148436 4.7327386,17.7306486 Z" id="Path-9" fill="url(#linearGradient-20)"></path>
                        </g>
                    </g>
                </g>
                <g id="Antenna-Back-Copy" transform="translate(107.000000, 4.000000)">
                    <path d="M16.6469674,2.23219854 C17.2954102,2.96826172 8.14132261,9.96557577 6.45945574,16.709095 C4.77758888,23.4526142 -1.86560689,22.6865889 1.98815115,15.6412076 C5.84190919,8.5958263 15.9985247,1.49613537 16.6469674,2.23219854 Z" id="Path-5" fill="url(#linearGradient-6)"></path>
                    <circle id="Oval-2" fill="url(#radialGradient-9)" cx="16.5" cy="2.5" r="2.5"></circle>
                </g>
                <g id="Antenna-Front-Copy" transform="translate(84.000000, 0.000000)">
                    <path d="M18.328125,2.53955078 C19.2104492,3.46484375 9.01367188,11.0083008 7.171875,18.3930664 C5.33007813,25.777832 -1.94482422,24.9389648 2.27539063,17.2236328 C6.49560547,9.50830078 17.4458008,1.61425781 18.328125,2.53955078 Z" id="Path-5" fill="url(#linearGradient-6)"></path>
                    <circle id="Oval-2" fill="url(#radialGradient-17)" cx="18" cy="3" r="3"></circle>
                </g>
            </g>
        </g>
    </g>
</svg>