<?xml version="1.0" encoding="UTF-8"?>
<svg width="145px" height="138px" viewBox="0 0 145 138" version="1.1" xmlns="http://www.w3.org/2000/svg" xmlns:xlink="http://www.w3.org/1999/xlink">
    <!-- Generator: Sketch 52.2 (67145) - http://www.bohemiancoding.com/sketch -->
    <title>Bee-Happy-Avatar@2x</title>
    <desc>Created with Sketch.</desc>
    <defs>
        <circle id="path-1" cx="83" cy="65" r="65"></circle>
        <linearGradient x1="54.3401357%" y1="23.5283124%" x2="23.4031873%" y2="79.7649499%" id="linearGradient-3">
            <stop stop-color="#F5EA95" offset="0%"></stop>
            <stop stop-color="#EFDB71" offset="100%"></stop>
        </linearGradient>
        <path d="M105.102539,100.883789 C81.3583984,100.883789 41.4980469,92.7382813 22.9375,72.7128906 C4.37695313,52.6875 5.05664063,31.7949219 14.6015625,18.828125 C24.1464844,5.86132813 37.2792969,-6.70703125 67.6000256,4.94824219 C97.9207543,16.6035156 118.585937,33.2412577 130.21875,50.6387186 C141.851562,68.0361795 128.84668,100.883789 105.102539,100.883789 Z" id="path-4"></path>
        <linearGradient x1="76.0316474%" y1="6.1538362%" x2="9.41181663%" y2="85.3458379%" id="linearGradient-6">
            <stop stop-color="#555555" offset="0%"></stop>
            <stop stop-color="#1B1B1B" offset="100%"></stop>
        </linearGradient>
        <path d="M105.102539,100.883789 C81.3583984,100.883789 41.4980469,92.7382812 22.9375,72.7128906 C4.37695313,52.6875 5.05664063,31.7949219 14.6015625,18.828125 C-6.36328125,66.3632812 50.7783203,96.6445312 105.102539,100.883789 Z" id="path-7"></path>
        <linearGradient x1="83.4711648%" y1="11.9195273%" x2="0%" y2="90.0449005%" id="linearGradient-9">
            <stop stop-color="#F5EA95" offset="0%"></stop>
            <stop stop-color="#EFDB71" offset="100%"></stop>
        </linearGradient>
        <path d="M105.158203,75.4726562 C115.757161,64.7304688 121.056641,53.9713542 121.056641,43.1953125 C121.056641,27.03125 109.234375,0.64453125 76.3085937,0.64453125 C43.3828125,0.64453125 26.5429687,29.3183594 15.6425781,49.3496094 C4.7421875,69.3808594 -5.85742188,101.248047 4.89257812,144.212891 C15.6425781,187.177734 77.7519531,184.220703 94.578125,176.578125 C111.404297,168.935547 132.275391,156.271484 132.275391,124.458984 C132.275391,103.250651 123.236328,86.921875 105.158203,75.4726562 Z" id="path-10"></path>
        <filter x="-71.4%" y="-125.0%" width="242.9%" height="350.0%" filterUnits="objectBoundingBox" id="filter-12">
            <feGaussianBlur stdDeviation="5" in="SourceGraphic"></feGaussianBlur>
        </filter>
        <filter x="-71.4%" y="-125.0%" width="242.9%" height="350.0%" filterUnits="objectBoundingBox" id="filter-13">
            <feGaussianBlur stdDeviation="5" in="SourceGraphic"></feGaussianBlur>
        </filter>
        <linearGradient x1="77.7423631%" y1="24.9855557%" x2="12.3795322%" y2="83.7965306%" id="linearGradient-14">
            <stop stop-color="#555555" offset="0%"></stop>
            <stop stop-color="#1B1B1B" offset="100%"></stop>
        </linearGradient>
        <linearGradient x1="8.56995728%" y1="97.6336705%" x2="83.6629071%" y2="1.56475795%" id="linearGradient-15">
            <stop stop-color="#CACACA" offset="0%"></stop>
            <stop stop-color="#F2F2F2" offset="100%"></stop>
        </linearGradient>
        <radialGradient cx="63.5504782%" cy="37.2808642%" fx="63.5504782%" fy="37.2808642%" r="104.862751%" gradientTransform="translate(0.635505,0.372809),scale(1.000000,0.620899),rotate(90.000000),scale(1.000000,0.638062),translate(-0.635505,-0.372809)" id="radialGradient-16">
            <stop stop-color="#555555" offset="0%"></stop>
            <stop stop-color="#1B1B1B" offset="100%"></stop>
        </radialGradient>
        <linearGradient x1="100%" y1="35.1605018%" x2="9.41181663%" y2="85.3458379%" id="linearGradient-17">
            <stop stop-color="#555555" offset="0%"></stop>
            <stop stop-color="#1B1B1B" offset="100%"></stop>
        </linearGradient>
        <radialGradient cx="30.3296063%" cy="51.9961536%" fx="30.3296063%" fy="51.9961536%" r="123.754292%" gradientTransform="translate(0.303296,0.519962),scale(0.650892,1.000000),rotate(-175.406695),scale(1.000000,0.579298),translate(-0.303296,-0.519962)" id="radialGradient-18">
            <stop stop-color="#555555" offset="0%"></stop>
            <stop stop-color="#1B1B1B" offset="100%"></stop>
        </radialGradient>
        <path d="M3.67138672,0.795898438 C6.22415211,1.50327622 9.28803697,2.42121185 13.5332031,1.9765625 C20.3870756,1.2586707 13.6855469,12.1015625 6.47363281,11.1894531 C-0.73828125,10.2773438 -2.03824604,-0.786255316 3.67138672,0.795898438 Z" id="path-19"></path>
        <linearGradient x1="59.916838%" y1="-153.081959%" x2="50%" y2="148.950656%" id="linearGradient-21">
            <stop stop-color="#555555" offset="0%"></stop>
            <stop stop-color="#1B1B1B" offset="100%"></stop>
        </linearGradient>
        <linearGradient x1="45.7909763%" y1="16.6876937%" x2="50%" y2="120.290656%" id="linearGradient-22">
            <stop stop-color="#F9F2BF" offset="0%"></stop>
            <stop stop-color="#F5EA95" offset="34.5872471%"></stop>
            <stop stop-color="#EFDB71" offset="100%"></stop>
        </linearGradient>
        <linearGradient x1="70.5595316%" y1="0%" x2="-53.5481154%" y2="57.947556%" id="linearGradient-23">
            <stop stop-color="#555555" offset="0%"></stop>
            <stop stop-color="#1B1B1B" offset="100%"></stop>
        </linearGradient>
        <radialGradient cx="76.0316474%" cy="6.1538362%" fx="76.0316474%" fy="6.1538362%" r="210.721393%" id="radialGradient-24">
            <stop stop-color="#555555" offset="0%"></stop>
            <stop stop-color="#1B1B1B" offset="100%"></stop>
        </radialGradient>
        <radialGradient cx="76.0316474%" cy="6.1538362%" fx="76.0316474%" fy="6.1538362%" r="194.803402%" id="radialGradient-25">
            <stop stop-color="#555555" offset="0%"></stop>
            <stop stop-color="#1B1B1B" offset="100%"></stop>
        </radialGradient>
    </defs>
    <g id="Beep-App" stroke="none" stroke-width="1" fill="none" fill-rule="evenodd">
        <g id="04-Feedback-gathering-v02" transform="translate(-208.000000, -439.000000)">
            <g id="Bee-Happy-Avatar" transform="translate(205.000000, 439.000000)">
                <g id="Bee-Happy" transform="translate(0.000000, 8.000000)">
                    <g id="Wings-Copy-2" transform="translate(0.000000, 41.000000)" fill="#96CCE5" fill-opacity="0.5">
                        <ellipse id="Oval" transform="translate(26.868353, 20.000000) rotate(12.000000) translate(-26.868353, -20.000000) " cx="26.8683531" cy="20" rx="12.4387436" ry="17.8028753"></ellipse>
                        <ellipse id="Oval" transform="translate(15.868353, 21.000000) rotate(12.000000) translate(-15.868353, -21.000000) " cx="15.8683531" cy="21" rx="12.4387436" ry="17.8028753"></ellipse>
                    </g>
                    <mask id="mask-2" fill="white">
                        <use xlink:href="#path-1"></use>
                    </mask>
                    <use id="Oval-Copy" fill="#47BD8F" fill-rule="nonzero" xlink:href="#path-1"></use>
                    <g id="Butt" mask="url(#mask-2)">
                        <g transform="translate(-25.000000, 86.000000)">
                            <mask id="mask-5" fill="white">
                                <use xlink:href="#path-4"></use>
                            </mask>
                            <use id="Butt" stroke="none" fill="url(#linearGradient-3)" fill-rule="evenodd" xlink:href="#path-4"></use>
                            <path d="M20.1020074,69.4682165 C17.605189,66.4306568 15.5352889,63.3841114 13.8564639,60.358958 C13.8564639,35.1123513 30.9003906,7.06054688 52.0245773,0.756486058 C55.7760529,1.26339208 59.8765891,2.24097976 64.3765005,3.77739269 C32.2431641,14.1826172 22.1010742,43.5756836 20.1020074,69.4682165 Z" id="Path-4-Copy" stroke="none" fill="url(#linearGradient-6)" fill-rule="evenodd" mask="url(#mask-5)"></path>
                            <path d="M36.659373,83.529619 C33.4527489,81.6172585 30.4587085,79.5318464 27.7499188,77.2661301 C25.4477539,38.9506836 51.8922111,8.47993432 67.6000256,4.94824219 C70.5437239,6.07979838 73.3964132,7.25831715 76.1586638,8.47993432 C51.8922111,21.7363281 33.6928711,50.8598633 36.659373,83.529619 Z" id="Path-4-Copy-2" stroke="none" fill="url(#linearGradient-6)" fill-rule="evenodd" mask="url(#mask-5)"></path>
                            <mask id="mask-8" fill="white">
                                <use xlink:href="#path-7"></use>
                            </mask>
                            <use id="Path-4-Copy-3" stroke="none" fill-opacity="0.05" fill="#000000" fill-rule="evenodd" style="mix-blend-mode: multiply;" xlink:href="#path-7"></use>
                        </g>
                    </g>
                    <g id="Wings" mask="url(#mask-2)" fill="#96CCE5" fill-opacity="0.5">
                        <g transform="translate(0.000000, 41.000000)" id="Oval">
                            <ellipse transform="translate(26.868353, 20.000000) rotate(12.000000) translate(-26.868353, -20.000000) " cx="26.8683531" cy="20" rx="12.4387436" ry="17.8028753"></ellipse>
                            <ellipse transform="translate(15.868353, 21.000000) rotate(12.000000) translate(-15.868353, -21.000000) " cx="15.8683531" cy="21" rx="12.4387436" ry="17.8028753"></ellipse>
                        </g>
                    </g>
                    <g id="Body" mask="url(#mask-2)">
                        <g transform="translate(14.000000, 6.000000)">
                            <mask id="mask-11" fill="white">
                                <use xlink:href="#path-10"></use>
                            </mask>
                            <use id="Body" stroke="none" fill="url(#linearGradient-9)" fill-rule="evenodd" xlink:href="#path-10"></use>
                            <ellipse id="Angry" stroke="none" fill-opacity="0.5" fill="#FF5C5D" fill-rule="nonzero" style="mix-blend-mode: multiply;" filter="url(#filter-12)" mask="url(#mask-11)" cx="63.5" cy="45" rx="10.5" ry="6"></ellipse>
                            <ellipse id="Angry-Copy" stroke="none" fill-opacity="0.5" fill="#FF5C5D" fill-rule="nonzero" style="mix-blend-mode: multiply;" filter="url(#filter-13)" mask="url(#mask-11)" cx="115.5" cy="47" rx="10.5" ry="6"></ellipse>
                            <path d="M93.3289077,18.4673443 C95.5888515,16.8846968 94.9651113,12.5299234 91.9357451,8.9340061 C88.9063789,5.46829361 84.618546,4.0771021 82.3586022,5.63337248 C80.0986584,7.1063118 80.7223986,10.9745459 83.7517648,14.4666355 C86.781131,18.0889299 91.068964,19.9666607 93.3289077,18.4673443 Z" id="Oval-6" stroke="none" fill-opacity="0.3" fill="#FFFFFF" fill-rule="evenodd" style="mix-blend-mode: overlay;" mask="url(#mask-11)"></path>
                            <path d="M97.5459768,26.0283171 C98.4285187,25.4102695 98.1849388,23.7096654 97.001926,22.3054059 C95.8189132,20.9519933 94.1444503,20.4087122 93.2619084,21.0164591 C92.3793666,21.5916639 92.6229464,23.1022672 93.8059592,24.4659804 C94.9889721,25.8805406 96.663435,26.6138226 97.5459768,26.0283171 Z" id="Oval-6-Copy" stroke="none" fill-opacity="0.3" fill="#FFFFFF" fill-rule="evenodd" style="mix-blend-mode: overlay;" mask="url(#mask-11)" transform="translate(95.403943, 23.500000) rotate(14.000000) translate(-95.403943, -23.500000) "></path>
                            <path d="M105.158203,75.4726563 C87.9511719,91.2910156 38.7509766,75.4726563 15.6425781,49.3496094 C7.40771183,64.4825226 -0.655490254,86.3705337 0.528489246,114.695322 C15.6425781,147.433594 118.55957,167.189453 130.578262,139.13292 C131.668499,134.75171 132.275391,129.883746 132.275391,124.458984 C132.275391,88.2539062 105.158203,75.4726562 105.158203,75.4726563 Z" id="Tee" stroke="url(#linearGradient-6)" stroke-width="0.5" fill="url(#linearGradient-14)" fill-rule="evenodd" mask="url(#mask-11)"></path>
                            <path d="M94.1930864,93.4854435 C94.2452468,93.6842169 94.2896421,93.8865133 94.3235582,94.093334 C94.4505194,94.8688648 94.4344809,95.6314628 94.2962452,96.354552 C91.1937211,95.2476114 88.7304336,92.2760144 88.1360114,88.5045165 C87.9547463,87.3633838 87.9588836,86.2542401 88.12326,85.2149852 C88.9754403,85.2634633 89.8126269,85.4425476 90.6146863,85.7324388 C90.4617476,86.5271245 90.4438009,87.3819883 90.5873335,88.2636536 C90.9632189,90.5847491 92.3616499,92.493308 94.1930864,93.4854435 Z M91.1323568,88.2101285 C91.0032043,87.4212074 91.0159048,86.6552507 91.1496298,85.941771 C94.2498843,87.229411 96.7315429,90.1155591 97.3359312,93.6572563 C98.1782501,98.6694122 94.907808,103.581665 90.0618318,104.629185 L89.6513932,101.900125 C93.1291992,101.21734 95.4726989,97.6865796 94.8709118,94.0140471 C94.4960649,91.7500203 93.093368,89.8712849 91.2625606,88.828099 C91.2103764,88.6257843 91.1666223,88.4197831 91.1323568,88.2101285 Z M99.7603194,96.9414704 C100.58805,96.6791694 101.360008,96.3108403 102.062925,95.8564881 C103.466831,97.7373831 105.872947,98.7297764 108.369631,98.2450365 L108.809156,100.59871 C105.158044,101.379044 101.654472,99.8503412 99.7603194,96.9414704 Z M105.49858,86.2932184 C102.631392,86.8210624 100.697794,89.2984853 100.806018,92.2340899 C100.144593,92.8144134 99.3379498,93.248074 98.4283778,93.4709741 C97.6470008,88.8804959 100.32921,84.8391494 104.551788,84 C104.968844,84.7156774 105.290048,85.4847858 105.49858,86.2932184 Z M97.9804236,94.1427175 C101.162507,93.6688982 103.372941,90.9660387 103.249616,87.9153835 C103.906851,87.3765112 104.709631,86.9924229 105.617863,86.8172235 C106.497561,91.4510256 103.264057,95.8657248 98.4112692,96.6840837 C98.2450594,96.7121556 98.0793012,96.7347502 97.9139302,96.7530709 C98.043319,95.9067347 98.0638651,95.032031 97.9804236,94.1427175 Z" id="Modus-Icon" stroke="none" fill="url(#linearGradient-15)" fill-rule="evenodd" mask="url(#mask-11)" transform="translate(98.404578, 94.314593) rotate(-7.000000) translate(-98.404578, -94.314593) "></path>
                        </g>
                    </g>
                    <g id="Face" mask="url(#mask-2)">
                        <g transform="translate(77.000000, 30.000000)">
                            <ellipse id="Eye-1" fill="url(#radialGradient-16)" fill-rule="evenodd" cx="8.35059656" cy="12.7857946" rx="2.35059656" ry="3.78579463"></ellipse>
                            <path d="M1.95977739,3.55772987 C1.26097755,4.3212376 0.735995955,5.37365723 0.219394393,5.07055664 C-0.29720717,4.76745605 0.142065242,4.01219352 1.08135942,2.89080675 C2.93926958,0.672720101 5.97735551,-1.05115685 9.86505083,0.754507211 C11.6207656,1.56995977 12.5128514,2.57873535 11.9380223,2.89080675 C11.3631932,3.20287814 10.2696538,2.34032164 9.3450313,2.04166844 C7.65896959,1.49707031 4.52542467,0.754507211 1.95977739,3.55772987 Z" id="Brow-1" fill="url(#linearGradient-17)" fill-rule="nonzero"></path>
                            <ellipse id="Eye-2" fill="url(#radialGradient-16)" fill-rule="evenodd" cx="45.3505966" cy="16.7857946" rx="2.35059656" ry="3.78579463"></ellipse>
                            <path d="M45.8709671,6.07760116 C45.1721673,6.8411089 44.1690321,8.17146103 43.6524306,7.86836044 C43.135829,7.56525986 43.5751014,6.80999732 44.5143956,5.68861055 C46.3723058,3.4705239 49.4103917,1.74664695 53.298087,3.55231101 C55.0538018,4.36776357 55.9903289,5.63540372 55.6293864,5.53190512 C55.2684439,5.42840652 53.9948344,4.64565948 53.0702118,4.34700628 C51.3841501,3.80240815 48.4366144,3.27437851 45.8709671,6.07760116 Z" id="Brow-2" fill="url(#linearGradient-17)" fill-rule="nonzero" transform="translate(49.569535, 5.355146) rotate(30.000000) translate(-49.569535, -5.355146) "></path>
                            <g id="Mouth-Happy" stroke-width="1" fill="none" fill-rule="evenodd" transform="translate(21.000000, 17.000000)">
                                <mask id="mask-20" fill="white">
                                    <use xlink:href="#path-19"></use>
                                </mask>
                                <use id="Path-6" fill="url(#radialGradient-18)" xlink:href="#path-19"></use>
                                <ellipse id="Oval-3" fill="#FF5C5D" mask="url(#mask-20)" cx="6" cy="11" rx="10" ry="5"></ellipse>
                            </g>
                        </g>
                    </g>
                    <g id="Hand-2" mask="url(#mask-2)">
                        <g transform="translate(49.890018, 134.390774) rotate(10.000000) translate(-49.890018, -134.390774) translate(17.390018, 103.890774)">
                            <g id="Phone" stroke-width="1" fill="none" transform="translate(47.569635, 41.711856) rotate(34.000000) translate(-47.569635, -41.711856) translate(38.569635, 25.211856)">
                                <rect id="Rectangle-2" stroke="#EBEBEB" stroke-width="0.2" fill="#EBEBEB" x="0" y="0" width="16" height="31" rx="2"></rect>
                            </g>
                            <path d="M11.2378742,31.0011755 C22.4773941,26.4056094 30.2987863,21.7905207 34.7020511,17.1559092 C34.7020511,17.1559092 35.8354245,18.1785683 38.1021713,20.2238865 C47.0801341,11.4326208 49.3842753,12.888492 45.0145948,24.5915002 C40.6449143,36.2945084 32.5108328,43.0870427 20.6123502,44.9691031 L11.2378742,31.0011755 Z" id="Path-8-Copy-3" fill-opacity="0.1" fill="#000000" style="mix-blend-mode: multiply;" transform="translate(29.199127, 29.768155) rotate(81.000000) translate(-29.199127, -29.768155) "></path>
                            <path d="M12.319731,31.1264361 C23.5592508,26.53087 31.3806431,21.9157813 35.7839079,17.2811699 C35.7839079,17.2811699 36.9172813,18.3038289 39.184028,20.3491471 C47.4589956,10.2205408 49.4116391,11.0077417 45.0419585,22.7107499 C40.672278,34.4137581 32.8896942,41.8749627 21.694207,45.0943637 L12.319731,31.1264361 Z" id="Path-8-Copy" fill="url(#linearGradient-9)" transform="translate(29.813386, 29.197440) rotate(81.000000) translate(-29.813386, -29.197440) "></path>
                            <path d="M7.12210136,8.1975953 C10.2430511,7.05563306 15.752728,8.03624096 21.9483902,4.83222019 C21.9483902,4.83222019 26.2831004,11.3406101 34.9525207,24.3573899 C31.6521154,27.3672082 26.7046884,30.3598931 20.1102397,33.3354448 C9.66295022,36.7752639 -9.53324026,14.2918207 7.12210136,8.1975953 Z" id="Path-9-Copy" fill="url(#linearGradient-21)" transform="translate(17.768583, 19.261739) rotate(81.000000) translate(-17.768583, -19.261739) "></path>
                        </g>
                    </g>
                    <g id="Hand-1" mask="url(#mask-2)">
                        <g transform="translate(53.864107, 99.141262) rotate(90.000000) translate(-53.864107, -99.141262) translate(25.364107, 75.641262)">
                            <path d="M12.6472707,20.4334893 C27.1708563,15.8721125 36.4731526,11.7541466 40.5541595,8.07959143 C46.68075,2.56318462 47.6925051,3.68685249 43.5894248,11.4505951 C54.400716,4.00455715 56.1890633,5.14910203 48.9544668,14.8842297 C45.5756329,19.4309074 37.0927264,26.7049032 23.5057473,36.7062171 L12.6472707,20.4334893 Z" id="Path-8" fill="url(#linearGradient-22)" transform="translate(32.976131, 20.674320) rotate(-12.000000) translate(-32.976131, -20.674320) "></path>
                            <path d="M5.54888422,24.0822753 C11.3893991,20.6693318 14.9549881,22.7279255 22.3696289,17.1391602 C22.3696289,17.1391602 26.6191406,22.882487 35.1181641,34.3691406 C32.0989794,39.3305919 27.2575608,43.1637111 20.5939084,45.8684981 C7.7327386,51.0888672 -8.44795031,32.2614183 5.54888422,24.0822753 Z" id="Path-9" fill="url(#linearGradient-23)"></path>
                        </g>
                    </g>
                </g>
                <g id="Antenna-Back" transform="translate(96.500000, 11.000000) scale(-1, 1) translate(-96.500000, -11.000000) translate(87.000000, 0.000000)">
                    <path d="M16.6469674,2.23219854 C17.2954102,2.96826172 8.14132261,9.96557577 6.45945574,16.709095 C4.77758888,23.4526142 -1.86560689,22.6865889 1.98815115,15.6412076 C5.84190919,8.5958263 15.9985247,1.49613537 16.6469674,2.23219854 Z" id="Path-5" fill="url(#linearGradient-6)"></path>
                    <circle id="Oval-2" fill="url(#radialGradient-24)" cx="16.5" cy="2.5" r="2.5"></circle>
                </g>
                <g id="Antenna-Front" transform="translate(74.500000, 12.000000) scale(-1, 1) translate(-74.500000, -12.000000) translate(64.000000, 0.000000)">
                    <path d="M18.328125,2.53955078 C19.2104492,3.46484375 9.01367188,11.0083008 7.171875,18.3930664 C5.33007813,25.777832 -1.94482422,24.9389648 2.27539063,17.2236328 C6.49560547,9.50830078 17.4458008,1.61425781 18.328125,2.53955078 Z" id="Path-5" fill="url(#linearGradient-6)"></path>
                    <circle id="Oval-2" fill="url(#radialGradient-25)" cx="18" cy="3" r="3"></circle>
                </g>
            </g>
        </g>
    </g>
</svg>