<svg viewBox="0 0 45 20" xmlns="http://www.w3.org/2000/svg">
  <path d="M4.877 2.054c-.414.59-.597 1.478-.548 2.663h.692c.222 0 .438.004.647.011C5.86 3.65 6.95 2.8 7.7 2.408a1.082 1.082 0 1 1 .252.264c-.705.587-1.106 1.3-1.203 2.135 1.107.128 1.982.39 2.625.785.948.584 1.422 1.488 1.422 2.713 0 .81-.206 1.499-.618 2.067a2.787 2.787 0 0 1-1.635 1.105v.099c.882.233 1.528.621 1.936 1.165.409.543.613 1.263.613 2.16 0 1.305-.49 2.334-1.471 3.085-.981.75-2.321 1.126-4.02 1.126H0V4.717h3.043c.113-1.453.866-2.406 1.503-2.913a1.082 1.082 0 1 1 .33.25zm.308 11.031h-1.29v3.03H5.26c1.211 0 1.816-.514 1.816-1.542 0-.481-.162-.85-.486-1.105-.325-.255-.794-.383-1.406-.383zM3.895 7.66v2.581h1.17c.561 0 .993-.115 1.296-.344.302-.23.454-.571.454-1.023 0-.81-.61-1.214-1.827-1.214H3.894zm17.603 8.28v3.172h-8.543V4.717h8.543v3.129h-4.65v2.264h4.31v3.117h-4.31v2.713h4.65zm10.8 0v3.172h-8.544V4.717h8.543v3.129h-4.649v2.264h4.31v3.117h-4.31v2.713h4.65zm7.244-11.223c1.8 0 3.16.394 4.08 1.181C44.54 6.686 45 7.851 45 9.393c0 1.543-.474 2.755-1.422 3.637-.955.876-2.3 1.313-4.036 1.313h-1.094v4.77h-3.894V4.716h4.988zm-1.094 3.14v3.314h.7c.59 0 1.057-.164 1.4-.492.343-.328.514-.78.514-1.357 0-.977-.54-1.466-1.619-1.466h-.995z" fill="#FF5C5D" fill-rule="evenodd"/>
</svg>
