<svg viewBox="0 0 45 58" xmlns="http://www.w3.org/2000/svg">
  <path d="M23.89 36.64L25 43.3h-4.8l1.11-6.66c-1.136-.485-1.91-1.602-1.91-2.94 0-1.8 1.4-3.2 3.2-3.2 1.8 0 3.2 1.5 3.2 3.2 0 1.338-.774 2.455-1.91 2.94zM8.3 24.35V19.3C8.3 11.4 14.7 5 22.6 5s14.3 6.4 14.3 14.3v5.05c1.893.648 3.3 2.47 3.3 4.55v19.2c0 2.7-2.2 4.8-4.8 4.8H9.8c-2.6 0-4.8-2.2-4.8-4.8V28.9c0-2.08 1.407-3.902 3.3-4.55zm3-.25h22.6v-4.8C33.9 13.1 28.8 8 22.6 8c-6.2 0-11.3 5.1-11.3 11.3v4.8zm-1.5 3.2c-.9 0-1.6.7-1.6 1.6v19.2c0 .9.7 1.6 1.6 1.6h25.6c.9 0 1.6-.7 1.6-1.6V28.9c0-.9-.7-1.6-1.6-1.6H9.8z" fill="#FF5C5D" fill-rule="nonzero"/>
</svg>
