<svg viewBox="0 0 300 320" xmlns="http://www.w3.org/2000/svg" xmlns:xlink="http://www.w3.org/1999/xlink">
  <defs>
    <linearGradient x1="83.471%" y1="11.92%" x2="0%" y2="90.045%" id="b">
      <stop stop-color="#F5EA95" offset="0%"/>
      <stop stop-color="#EFDB71" offset="100%"/>
    </linearGradient>
    <path d="M.97 4.885c2.058 8.157 5.76 30.28 15.143 32.64 9.383 2.362 19.887 2.819 19.887 0 0-1.878-2.69-3.619-8.073-5.222 1.84-8.583 1.84-15.915 0-21.997C25.168 1.184-1.088-3.272.97 4.885z" id="a"/>
    <linearGradient x1="76.032%" y1="6.154%" x2="9.412%" y2="85.346%" id="d">
      <stop stop-color="var(--beep-light-dark)" offset="0%"/>
      <stop stop-color="#1B1B1B" offset="100%"/>
    </linearGradient>
    <linearGradient x1="54.34%" y1="23.528%" x2="23.403%" y2="79.765%" id="f">
      <stop stop-color="#F5EA95" offset="0%"/>
      <stop stop-color="#EFDB71" offset="100%"/>
    </linearGradient>
    <path d="M105.103 100.884c-23.745 0-63.605-8.146-82.165-28.171C4.377 52.688 5.056 31.795 14.601 18.828 24.146 5.861 37.279-6.707 67.6 4.948c30.32 11.656 50.986 28.293 62.619 45.69 11.633 17.398-1.372 50.246-25.116 50.246z" id="e"/>
    <path d="M105.103 100.884c-23.745 0-63.605-8.146-82.165-28.171C4.377 52.688 5.056 31.795 14.601 18.828c-20.965 47.535 36.176 77.817 90.5 82.056z" id="h"/>
    <radialGradient cx="76.032%" cy="6.154%" fx="76.032%" fy="6.154%" r="210.721%" id="i">
      <stop stop-color="var(--beep-light-dark)" offset="0%"/>
      <stop stop-color="#1B1B1B" offset="100%"/>
    </radialGradient>
    <linearGradient x1="45.791%" y1="16.688%" x2="50%" y2="120.291%" id="j">
      <stop stop-color="#F9F2BF" offset="0%"/>
      <stop stop-color="#F5EA95" offset="34.587%"/>
      <stop stop-color="#EFDB71" offset="100%"/>
    </linearGradient>
    <linearGradient x1="70.56%" y1="0%" x2="-53.548%" y2="57.948%" id="k">
      <stop stop-color="var(--beep-light-dark)" offset="0%"/>
      <stop stop-color="#1B1B1B" offset="100%"/>
    </linearGradient>
    <path d="M105.158 75.473c10.6-10.743 15.899-21.502 15.899-32.278 0-16.164-11.823-42.55-44.748-42.55-32.926 0-49.766 28.673-60.666 48.705-10.9 20.03-21.5 51.898-10.75 94.863 10.75 42.965 72.859 40.008 89.685 32.365 16.826-7.642 37.697-20.307 37.697-52.119 0-21.208-9.039-37.537-27.117-48.986z" id="l"/>
    <linearGradient x1="77.742%" y1="24.986%" x2="12.38%" y2="83.797%" id="n">
      <stop stop-color="var(--beep-light-dark)" offset="0%"/>
      <stop stop-color="#1B1B1B" offset="100%"/>
    </linearGradient>
    <linearGradient x1="8.57%" y1="97.634%" x2="83.663%" y2="1.565%" id="o">
      <stop stop-color="#CACACA" offset="0%"/>
      <stop stop-color="#F2F2F2" offset="100%"/>
    </linearGradient>
    <linearGradient x1="108.957%" y1="-51.576%" x2="0%" y2="90.045%" id="q">
      <stop stop-color="#F5EA95" offset="0%"/>
      <stop stop-color="#EFDB71" offset="100%"/>
    </linearGradient>
    <path d="M.98 5.268c2.243 8.886 6.276 32.989 16.499 35.561 10.222 2.572 21.666 3.07 21.666 0 0-2.047-2.932-3.944-8.795-5.69 2.004-9.351 2.004-17.34 0-23.965C27.344 1.235-1.262-3.62.98 5.268z" id="p"/>
    <radialGradient cx="63.55%" cy="37.281%" fx="63.55%" fy="37.281%" r="104.863%" gradientTransform="matrix(0 .6209 -.63806 0 .873 -.022)" id="s">
      <stop stop-color="var(--beep-light-dark)" offset="0%"/>
      <stop stop-color="#1B1B1B" offset="100%"/>
    </radialGradient>
    <linearGradient x1="100%" y1="35.161%" x2="9.412%" y2="85.346%" id="t">
      <stop stop-color="var(--beep-light-dark)" offset="0%"/>
      <stop stop-color="#1B1B1B" offset="100%"/>
    </linearGradient>
    <radialGradient cx="30.33%" cy="51.996%" fx="30.33%" fy="51.996%" r="123.754%" gradientTransform="matrix(-.6488 -.08008 .0302 -.57744 .484 .844)" id="v">
      <stop stop-color="var(--beep-light-dark)" offset="0%"/>
      <stop stop-color="#1B1B1B" offset="100%"/>
    </radialGradient>
    <path d="M3.671.796c2.553.707 5.617 1.625 9.862 1.18 6.854-.717.153 10.126-7.06 9.213C-.737 10.277-2.037-.786 3.672.796z" id="u"/>
    <radialGradient cx="76.032%" cy="6.154%" fx="76.032%" fy="6.154%" r="194.803%" id="x">
      <stop stop-color="var(--beep-light-dark)" offset="0%"/>
      <stop stop-color="#1B1B1B" offset="100%"/>
    </radialGradient>
    <linearGradient x1="59.917%" y1="-153.082%" x2="50%" y2="148.951%" id="y">
      <stop stop-color="var(--beep-light-dark)" offset="0%"/>
      <stop stop-color="#1B1B1B" offset="100%"/>
    </linearGradient>
    <filter x="-6.4%" y="-5.8%" width="111.8%" height="111.7%" filterUnits="objectBoundingBox" id="z">
      <feOffset in="SourceAlpha" result="shadowOffsetOuter1"/>
      <feGaussianBlur stdDeviation="2" in="shadowOffsetOuter1" result="shadowBlurOuter1"/>
      <feColorMatrix values="0 0 0 0 1 0 0 0 0 1 0 0 0 0 1 0 0 0 1 0" in="shadowBlurOuter1" result="shadowMatrixOuter1"/>
      <feMerge>
        <feMergeNode in="shadowMatrixOuter1"/>
        <feMergeNode in="SourceGraphic"/>
      </feMerge>
    </filter>
    <path d="M26.724 19.36L83.792 6.632c.985-.22 1.784.498 1.784 1.602v79c0 1.105-.799 2.178-1.784 2.398L26.724 102.36c-.985.22-1.783-.498-1.783-1.602v-79c0-1.105.798-2.178 1.783-2.398z" id="A"/>
    <linearGradient x1="0%" y1="0%" x2="102%" y2="101%" id="C">
      <stop stop-color="#564DAC" offset="0%"/>
      <stop stop-color="#E3AEEC" offset="100%"/>
    </linearGradient>
    <path d="M79.924.041l-28.957 20.9c2.319 7.847 7.145 11.77 14.478 11.77L79.924.04z" id="B"/>
    <linearGradient x1="66.096%" y1="62.813%" x2="31.647%" y2="30.398%" id="D">
      <stop stop-color="#AAF7EF" offset="0%"/>
      <stop stop-color="#58C8BD" offset="100%"/>
    </linearGradient>
    <linearGradient x1="50%" y1="0%" x2="50%" y2="100%" id="F">
      <stop stop-color="#FCCE7E" offset="0%"/>
      <stop stop-color="#EC8E58" offset="100%"/>
    </linearGradient>
    <linearGradient x1="50%" y1="0%" x2="50%" y2="98.302%" id="G">
      <stop stop-color="#EE8992" offset="0%"/>
      <stop stop-color="#B96572" offset="100%"/>
    </linearGradient>
  </defs>
  <g transform="translate(35 16)" fill="none" fill-rule="evenodd">
    <ellipse fill-opacity=".05" fill="#000" style="mix-blend-mode:multiply" cx="97" cy="274" rx="92" ry="14"/>
    <g transform="translate(112 234)">
      <mask id="c" fill="#fff">
        <use xlink:href="#a"/>
      </mask>
      <use fill="url(#b)" xlink:href="#a"/>
      <path d="M10.418 33.068c1.623 2.277 3.504 3.907 5.695 4.458 9.383 2.36 19.887 2.818 19.887 0-.953 1.638-19.887.838-25.582-4.458z" fill-opacity=".1" fill="#000" style="mix-blend-mode:multiply" mask="url(#c)"/>
    </g>
    <g transform="translate(0 165)">
      <path fill="url(#d)" transform="rotate(-57 11.628 17.162)" d="M11.628 11.662l12 11h-24z"/>
      <path fill-opacity=".1" fill="--beep-light" style="mix-blend-mode:lighten" d="M7.015 14.166h12.85l-1.323 1.954zM7.015 14.166l9.857 3.56-.734.768z"/>
      <mask id="g" fill="#fff">
        <use xlink:href="#e"/>
      </mask>
      <use fill="url(#f)" xlink:href="#e"/>
      <path d="M20.102 69.468c-2.497-3.037-4.567-6.084-6.246-9.109C13.856 35.112 30.9 7.061 52.025.756c3.751.507 7.852 1.485 12.352 3.021C32.243 14.183 22.1 43.576 20.102 69.468z" fill="url(#d)" mask="url(#g)"/>
      <path d="M36.66 83.53c-3.207-1.913-6.201-3.998-8.91-6.264C25.448 38.951 51.892 8.48 67.6 4.948a187.424 187.424 0 0 1 8.559 3.532c-24.267 13.256-42.466 42.38-39.5 75.05z" fill="url(#d)" mask="url(#g)"/>
      <use fill-opacity=".05" fill="#000" style="mix-blend-mode:multiply" xlink:href="#h"/>
    </g>
    <g transform="translate(25 120)" fill="#96CCE5" fill-opacity=".5">
      <ellipse transform="rotate(12 26.868 20)" cx="26.868" cy="20" rx="12.439" ry="17.803"/>
      <ellipse transform="rotate(12 15.868 21)" cx="15.868" cy="21" rx="12.439" ry="17.803"/>
    </g>
    <g transform="matrix(-1 0 0 1 131 71)">
      <path d="M16.647 2.232c.648.736-8.506 7.734-10.188 14.477-1.681 6.744-8.325 5.978-4.47-1.068C5.841 8.596 15.998 1.496 16.646 2.232z" fill="url(#d)"/>
      <circle fill="url(#i)" cx="16.5" cy="2.5" r="2.5"/>
    </g>
    <path d="M9.58 20.36c11.864-3.72 21.161-7.828 27.893-12.325 6.732-4.498 8.447-3.94 5.145 1.672 9.889-8.794 11.04-7.184 3.456 4.832-4.773 7.56-13.359 14.883-25.758 21.97L9.58 20.359z" fill="url(#j)" transform="rotate(-18 597.438 -339.015)"/>
    <path d="M4.733 20.73c1.921-1.2 8.547-1.2 14.637-3.59 0 0 4.25 5.742 12.748 17.23-3.019 4.96-7.86 8.794-14.524 11.498C4.733 51.088-6.768 27.915 4.733 20.731z" fill="url(#k)" transform="rotate(-6 1603.949 -1225.064)"/>
    <path d="M9.665 19.735c11.217-4.632 19.844-8.958 25.883-12.977 6.04-4.018 7.242-2.955 3.61 3.19 9.087-8.262 10.69-7.48 4.807 2.345-3.18 5.313-10.664 13.06-22.45 23.24L9.664 19.734z" fill="url(#j)" transform="rotate(-26 380.849 -205.335)"/>
    <path d="M4.733 19.73c1.921-1.2 8.547-1.2 14.637-3.59 0 0 4.25 5.742 12.748 17.23-3.019 4.96-7.86 8.794-14.524 11.498C4.733 50.088-6.768 26.915 4.733 19.731z" fill="url(#k)" transform="rotate(-14 631.815 -461.552)"/>
    <g transform="translate(39 85)">
      <mask id="m" fill="#fff">
        <use xlink:href="#l"/>
      </mask>
      <use fill="url(#b)" xlink:href="#l"/>
      <path d="M31.26 174.375c22.62 10.128 52.437 7.145 63.318 2.203-22.488 3.403-47.22 1.125-63.318-2.203z" fill-opacity=".05" fill="#000" style="mix-blend-mode:multiply" mask="url(#m)"/>
      <path d="M95.329 18.467c2.26-1.582 1.636-5.937-1.393-9.533-3.03-3.466-7.317-4.857-9.577-3.3-2.26 1.472-1.637 5.34 1.393 8.833 3.03 3.622 7.317 5.5 9.577 4z" fill-opacity=".3" fill="--beep-light" style="mix-blend-mode:overlay" mask="url(#m)"/>
      <path d="M99.546 26.028c.883-.618.639-2.318-.544-3.723-1.183-1.353-2.858-1.896-3.74-1.289-.883.576-.64 2.086.544 3.45 1.183 1.415 2.857 2.148 3.74 1.562z" fill-opacity=".3" fill="--beep-light" style="mix-blend-mode:overlay" mask="url(#m)" transform="rotate(14 97.404 23.5)"/>
      <path d="M105.158 75.473c-17.207 15.818-66.407 0-89.515-26.123C7.408 64.483-.655 86.37.528 114.695c15.115 32.739 118.032 52.494 130.05 24.438 1.09-4.381 1.697-9.25 1.697-14.674 0-36.205-27.117-48.986-27.117-48.986z" stroke="url(#d)" stroke-width=".5" fill="url(#n)" mask="url(#m)"/>
      <path d="M94.193 93.485a6.461 6.461 0 0 1 .103 2.87c-3.102-1.107-5.566-4.079-6.16-7.85a10.507 10.507 0 0 1-.013-3.29 8.8 8.8 0 0 1 2.492.517 7.234 7.234 0 0 0-.028 2.532c.376 2.32 1.775 4.23 3.606 5.221zm-3.06-5.275a6.556 6.556 0 0 1 .017-2.268c3.1 1.287 5.582 4.174 6.186 7.715.842 5.012-2.428 9.925-7.274 10.972l-.41-2.729c3.477-.683 5.82-4.213 5.219-7.886a7.383 7.383 0 0 0-3.608-5.186 6.983 6.983 0 0 1-.13-.618zm8.627 8.731c.828-.262 1.6-.63 2.303-1.085 1.404 1.881 3.81 2.874 6.307 2.389l.44 2.354c-3.652.78-7.156-.749-9.05-3.658zm5.739-10.648c-2.868.528-4.801 3.005-4.693 5.941a5.627 5.627 0 0 1-2.378 1.237c-.781-4.59 1.901-8.632 6.124-9.471.417.716.738 1.485.947 2.293zm-7.519 7.85c3.183-.474 5.393-3.177 5.27-6.228a5.295 5.295 0 0 1 2.368-1.098c.88 4.634-2.354 9.049-7.207 9.867-.166.028-.332.05-.497.07.13-.847.15-1.722.066-2.611z" fill="url(#o)" mask="url(#m)" transform="rotate(-7 98.405 94.315)"/>
    </g>
    <g transform="translate(61 233)">
      <mask id="r" fill="#fff">
        <use xlink:href="#p"/>
      </mask>
      <use fill="url(#q)" xlink:href="#p"/>
      <path d="M10.86 35.373c1.86 2.793 4.043 4.808 6.619 5.456 10.222 2.572 21.666 3.07 21.666 0-1.351 1.955-24.242 0-28.285-5.456z" fill-opacity=".1" fill="#000" style="mix-blend-mode:multiply" mask="url(#r)"/>
    </g>
    <g transform="translate(105 106)">
      <ellipse fill="url(#s)" cx="8.351" cy="12.786" rx="2.351" ry="3.786"/>
      <path d="M1.96 3.558C1.26 4.32.736 5.374.22 5.07c-.517-.304-.078-1.059.861-2.18C2.94.673 5.977-1.051 9.865.755c1.756.815 2.648 1.824 2.073 2.136-.575.312-1.668-.55-2.593-.85C7.659 1.498 4.525.756 1.96 3.559z" fill="url(#t)" fill-rule="nonzero"/>
      <ellipse fill="url(#s)" cx="45.351" cy="16.786" rx="2.351" ry="3.786"/>
      <path d="M45.871 6.078c-.699.763-1.702 2.093-2.219 1.79-.516-.303-.077-1.058.862-2.18 1.858-2.217 4.896-3.941 8.784-2.136 1.756.816 2.692 2.083 2.331 1.98-.36-.104-1.634-.886-2.559-1.185-1.686-.545-4.633-1.073-7.199 1.73z" fill="url(#t)" fill-rule="nonzero" transform="rotate(30 49.57 5.355)"/>
      <g transform="translate(21 17)">
        <mask id="w" fill="#fff">
          <use xlink:href="#u"/>
        </mask>
        <use fill="url(#v)" xlink:href="#u"/>
        <ellipse fill="#FF5C5D" mask="url(#w)" cx="6" cy="11" rx="10" ry="5"/>
      </g>
    </g>
    <g transform="matrix(-1 0 0 1 110 71)">
      <path d="M18.328 2.54c.882.925-9.314 8.468-11.156 15.853-1.842 7.385-9.117 6.546-4.897-1.17C6.495 9.509 17.445 1.615 18.328 2.54z" fill="url(#d)"/>
      <circle fill="url(#x)" cx="18" cy="3" r="3"/>
    </g>
    <path d="M12.647 20.433c14.524-4.56 23.826-8.679 27.907-12.353 6.127-5.517 7.139-4.393 3.035 3.37 10.812-7.445 12.6-6.3 5.365 3.434-3.378 4.547-11.861 11.82-25.448 21.822L12.647 20.433z" fill="url(#j)" transform="scale(-1 1) rotate(-42 137.599 198.89)"/>
    <path d="M5.549 24.082c5.84-3.413 9.406-1.354 16.82-6.943l12.75 17.23c-3.02 4.962-7.861 8.795-14.525 11.5C7.733 51.088-8.448 32.26 5.549 24.081z" fill="url(#k)" transform="scale(-1 1) rotate(-30 202.84 250.942)"/>
    <g transform="rotate(8 -1328.577 859.814)">
      <rect fill-opacity=".1" fill="#000" style="mix-blend-mode:multiply" x="1.269" y="1.841" width="16" height="31" rx="2"/>
      <rect stroke="#EBEBEB" stroke-width=".2" fill="#EBEBEB" width="16" height="31" rx="2"/>
      <circle fill="#B4B4B4" cx="3.27" cy="3.215" r="1.5"/>
    </g>
    <path d="M80.29 194.174c10.211 6.571 18.478 10.331 24.8 11.28l-.563 4.545c12.351 2.311 12.48 5.034.387 8.167s-22.322.366-30.689-8.301l6.065-15.69z" fill-opacity=".1" fill="#000" style="mix-blend-mode:multiply"/>
    <path d="M12.32 31.126c11.24-4.595 19.06-9.21 23.464-13.845l3.4 3.068c8.275-10.128 10.228-9.341 5.858 2.362S32.89 41.875 21.694 45.094L12.32 31.126z" fill="url(#b)" transform="rotate(55 -110.301 177.935)"/>
    <path d="M7.122 8.198c3.121-1.142 8.63-.162 14.826-3.366l13.005 19.525c-3.3 3.01-8.248 6.003-14.843 8.978C9.663 36.775-9.533 14.292 7.122 8.198z" fill="url(#y)" transform="rotate(55 -129.951 168.13)"/>
    <g filter="url(#z)" transform="translate(121 128)">
      <use fill-opacity=".3" fill="--beep-light" style="mix-blend-mode:overlay" xlink:href="#A"/>
      <path stroke-opacity=".5" stroke="--beep-light" d="M26.833 19.848c-.749.167-1.392 1.032-1.392 1.91v79c0 .797.516 1.26 1.174 1.114l57.068-12.728c.749-.167 1.393-1.032 1.393-1.91v-79c0-.797-.516-1.26-1.175-1.114L26.833 19.848z" stroke-linejoin="square"/>
      <path d="M66.471 55.495l-.635-.566 5.02-6.716c-.94-1.015-1.507-2.479-1.507-4.217 0-3.87 2.815-7.637 6.288-8.411 3.472-.775 6.287 1.736 6.287 5.606 0 3.871-2.815 7.637-6.287 8.412-1.59.354-3.043.02-4.15-.818l-5.016 6.71zm11.58-30.424l-2.477 3.43-9.622-8.274 2.478-3.43 6.967 5.992 4.775-6.61 2.565 2.206-4.774 6.61.088.076zm-46.163.774l.958-1.276.64.566-.959 1.276.958.848-.639.85-.958-.848-.958 1.276-.64-.566.96-1.275-.96-.849.64-.85.958.848zm18.67-1.094v-1l10.252-2.287v1l-10.252 2.287zm0 3.018v-1l10.252-2.287v1L50.558 27.77zm4.519 1.996v-1l5.733-1.28v1.002l-5.733 1.278zM33.92 46.65v-1.002l18.3-4.08v1l-18.3 4.082zm0 7.042v-1.002l18.3-4.081v1.001l-18.3 4.082zm0 7.042V59.73l18.3-4.081v1.001l-18.3 4.082zm21.514-21.896l2.707-.604c.493-.11.892.25.892.801v3.03c0 .553-.4 1.09-.892 1.2l-2.707.603c-.493.11-.892-.249-.892-.801v-3.03c0-.552.4-1.089.892-1.199zm0 7.042l2.707-.604c.493-.11.892.249.892.801v3.03c0 .553-.4 1.09-.892 1.2l-2.707.603c-.493.11-.892-.249-.892-.801v-3.03c0-.552.4-1.09.892-1.199zm0 7.042l2.707-.604c.493-.11.892.249.892.801v3.03c0 .552-.4 1.09-.892 1.199l-2.707.604c-.493.11-.892-.249-.892-.801v-3.03c0-.552.4-1.09.892-1.199zm.452-13.179c-.246.055-.446.324-.446.6v2.018c0 .276.2.455.446.4l1.803-.402c.246-.055.446-.323.446-.6v-2.017c0-.276-.2-.456-.446-.4l-1.803.401zm0 7.042c-.246.055-.446.323-.446.6v2.018c0 .276.2.455.446.4l1.803-.402c.246-.055.446-.323.446-.6v-2.017c0-.277-.2-.456-.446-.401l-1.803.402zm0 7.042c-.246.055-.446.323-.446.6v2.017c0 .277.2.456.446.401l1.803-.402c.246-.055.446-.323.446-.6v-2.017c0-.277-.2-.456-.446-.401l-1.803.402zm19.75-5.225c2.977-.663 5.39-3.891 5.39-7.21 0-3.317-2.413-5.469-5.39-4.805-2.976.664-5.388 3.892-5.388 7.21s2.412 5.47 5.389 4.805zm-8.52 27.678l11.678-2.604V60.597l-11.677 2.605v13.077zm-.448-13.983l12.575-2.805c.248-.055.449.125.449.403v14.084c0 .278-.201.548-.45.603l-12.574 2.805c-.248.055-.45-.126-.45-.403V62.899c0-.278.202-.548.45-.603zM50.05 80.086l11.677-2.605V64.403L50.05 67.008v13.078zm-.449-13.984l12.575-2.805c.248-.055.449.125.449.403v14.084c0 .278-.201.548-.45.603l-12.574 2.805c-.248.055-.45-.125-.45-.403V66.705c0-.278.202-.548.45-.603zm-14.82 17.39l11.676-2.605V67.809l-11.676 2.604v13.078zm-.45-13.985l12.575-2.804c.248-.055.45.125.45.403V81.19c0 .277-.202.547-.45.603l-12.574 2.804c-.248.056-.45-.125-.45-.403V70.111c0-.278.202-.548.45-.604zm.45 20.02v5.03l18.862-4.207v-5.03l-18.862 4.207zm-.45-.906l19.761-4.407c.248-.055.45.125.45.403v6.036c0 .278-.202.548-.45.603l-19.76 4.407c-.248.055-.45-.125-.45-.403v-6.036c0-.277.202-.548.45-.603zm25.6-4.703v5.03l18.862-4.207v-5.03L59.93 83.918zm-.45-.906l19.76-4.407c.249-.055.45.125.45.403v6.036c0 .277-.201.548-.45.603l-19.76 4.407c-.248.055-.449-.125-.449-.403v-6.036c0-.278.201-.548.45-.603zm29.64-75.52l-.897.2c0-2.223-1.609-3.666-3.593-3.223V3.463c2.48-.553 4.49 1.25 4.49 4.028zm2.695-.602l-.898.2c0-3.889-2.815-6.414-6.287-5.64V.446c3.968-.885 7.185 2 7.185 6.445z" fill-opacity=".5" fill="--beep-light" fill-rule="nonzero" style="mix-blend-mode:overlay"/>
      <path stroke-opacity=".5" stroke="--beep-light" d="M23.637 87.807h-9.819V85h-3.732v2.807H7M6.005 87.807H4.41M3.005 87.807H1.41M103.005 27.807h-3.187l-3-2.807h-3.732l-3 2.807h-3.422M109.005 27.807h-1.594M106.005 27.807h-1.594"/>
      <path d="M3 69a3 3 0 0 0-3-3M5 69a5 5 0 0 0-5-5" stroke="#979797"/>
    </g>
    <g transform="translate(83 68)">
      <path d="M51.81 23.396C30.313 15.63-7.968 44.23 2.863 88.71" stroke="#979797" stroke-width=".5" stroke-linecap="round"/>
      <mask id="E" fill="#fff">
        <use xlink:href="#B"/>
      </mask>
      <use fill="url(#C)" xlink:href="#B"/>
      <path d="M65.5 14a2.5 2.5 0 1 1 0-5 2.5 2.5 0 0 1 0 5zM69 30a4 4 0 1 1 0-8 4 4 0 0 1 0 8zm-13-2a4 4 0 1 1 0-8 4 4 0 0 1 0 8zm21-15a4 4 0 1 1 0-8 4 4 0 0 1 0 8zm-8 6a2 2 0 1 1 0-4 2 2 0 0 1 0 4zm-9 1a2 2 0 1 1 0-4 2 2 0 0 1 0 4z" fill="url(#D)" mask="url(#E)"/>
    </g>
    <path d="M22.728 92.916c0 1.48-1.243.313-3.728-3.501C21.195 85.138 25.2 83 31.016 83c4.187 0 4.187 1.664 4.187 4.958-4.187 0-12.475.365-12.475 4.958z" fill="url(#F)"/>
    <path d="M77.033 39.936c0 1.48-1.243.312-3.728-3.501 2.195-4.277 6.2-6.415 12.016-6.415 4.187 0 4.187 1.664 4.187 4.958-4.187 0-12.475.364-12.475 4.958z" fill="url(#F)" transform="rotate(107 81.407 35.288)"/>
    <path d="M123.452 60.119c0 1.48-1.243.312-3.728-3.501 2.196-4.277 6.2-6.415 12.016-6.415 4.188 0 4.188 1.664 4.188 4.958-4.188 0-12.476.364-12.476 4.958z" fill="url(#F)" transform="rotate(-9 127.826 55.47)"/>
    <path d="M180.347 104.063c0 1.48-1.242.312-3.727-3.501 2.195-4.277 6.2-6.415 12.016-6.415 4.187 0 4.187 1.664 4.187 4.958-4.187 0-12.476.364-12.476 4.958z" fill="url(#F)" transform="rotate(-110 184.721 99.415)"/>
    <path d="M163.347 18.063c0 1.48-1.242.312-3.727-3.501 2.195-4.277 6.2-6.415 12.016-6.415 4.187 0 4.187 1.664 4.187 4.958-4.187 0-12.476.364-12.476 4.958z" fill="url(#F)" transform="rotate(-146 167.721 13.415)"/>
    <path d="M51.748 59.32c-2.463-4.269-10.312-6.923-12.235-6.923s1.941-6.389 5.268-8.184c3.326-1.795 12.943 8.25 11.187 10.838-1.756 2.59-1.756 8.537-4.22 4.269z" fill="url(#G)"/>
    <path d="M116.482 18.318c-2.464-4.269-10.313-6.923-12.236-6.923-1.922 0 1.942-6.389 5.268-8.183 3.326-1.795 12.943 8.249 11.187 10.837-1.755 2.59-1.755 8.538-4.22 4.269z" fill="url(#G)" transform="rotate(116 112.324 11.407)"/>
    <path d="M173.528 59.148c-2.464-4.268-10.313-6.923-12.236-6.923s1.942-6.388 5.268-8.183c3.326-1.795 12.943 8.249 11.187 10.838-1.756 2.589-1.756 8.537-4.22 4.268z" fill="url(#G)" transform="rotate(-166 169.37 52.237)"/>
    <path d="M217.528 82.148c-2.464-4.268-10.313-6.923-12.236-6.923s1.942-6.388 5.268-8.183c3.326-1.795 12.943 8.249 11.187 10.838-1.756 2.589-1.756 8.537-4.22 4.268z" fill="url(#G)" transform="rotate(-38 213.37 75.237)"/>
  </g>
</svg>
