<svg viewBox="0 0 360 320" xmlns="http://www.w3.org/2000/svg" xmlns:xlink="http://www.w3.org/1999/xlink">
  <defs>
    <filter x="-7.4%" y="-6%" width="114.8%" height="112.1%" filterUnits="objectBoundingBox" id="a">
      <feOffset in="SourceAlpha" result="shadowOffsetOuter1"/>
      <feGaussianBlur stdDeviation="4" in="shadowOffsetOuter1" result="shadowBlurOuter1"/>
      <feColorMatrix values="0 0 0 0 0.278431373 0 0 0 0 0.741176471 0 0 0 0 0.559709346 0 0 0 1 0" in="shadowBlurOuter1" result="shadowMatrixOuter1"/>
      <feMerge>
        <feMergeNode in="shadowMatrixOuter1"/>
        <feMergeNode in="SourceGraphic"/>
      </feMerge>
    </filter>
    <linearGradient x1="83.471%" y1="11.92%" x2="0%" y2="90.045%" id="c">
      <stop stop-color="#F5EA95" offset="0%"/>
      <stop stop-color="#EFDB71" offset="100%"/>
    </linearGradient>
    <path d="M.97 4.885c2.058 8.157 5.76 30.28 15.143 32.64 9.383 2.362 19.887 2.819 19.887 0 0-1.878-2.69-3.619-8.073-5.222 1.84-8.583 1.84-15.915 0-21.997C25.168 1.184-1.088-3.272.97 4.885z" id="b"/>
    <linearGradient x1="76.032%" y1="6.154%" x2="9.412%" y2="85.346%" id="e">
      <stop stop-color="var(--beep-light-dark)" offset="0%"/>
      <stop stop-color="#1B1B1B" offset="100%"/>
    </linearGradient>
    <linearGradient x1="54.34%" y1="23.528%" x2="23.403%" y2="79.765%" id="g">
      <stop stop-color="#F5EA95" offset="0%"/>
      <stop stop-color="#EFDB71" offset="100%"/>
    </linearGradient>
    <path d="M105.103 100.884c-23.745 0-63.605-8.146-82.165-28.171C4.377 52.688 5.056 31.795 14.601 18.828 24.146 5.861 37.279-6.707 67.6 4.948c30.32 11.656 50.986 28.293 62.619 45.69 11.633 17.398-1.372 50.246-25.116 50.246z" id="f"/>
    <path d="M105.103 100.884c-23.745 0-63.605-8.146-82.165-28.171C4.377 52.688 5.056 31.795 14.601 18.828c-20.965 47.535 36.176 77.817 90.5 82.056z" id="i"/>
    <radialGradient cx="76.032%" cy="6.154%" fx="76.032%" fy="6.154%" r="210.721%" id="j">
      <stop stop-color="var(--beep-light-dark)" offset="0%"/>
      <stop stop-color="#1B1B1B" offset="100%"/>
    </radialGradient>
    <linearGradient x1="83.471%" y1="11.92%" x2="0%" y2="90.045%" id="k">
      <stop stop-color="#F9F2BF" offset="0%"/>
      <stop stop-color="#F5EA95" offset="34.587%"/>
      <stop stop-color="#EFDB71" offset="100%"/>
    </linearGradient>
    <linearGradient x1="70.56%" y1="0%" x2="-53.548%" y2="57.948%" id="l">
      <stop stop-color="var(--beep-light-dark)" offset="0%"/>
      <stop stop-color="#1B1B1B" offset="100%"/>
    </linearGradient>
    <path d="M105.158 75.473c10.6-10.743 15.899-21.502 15.899-32.278 0-16.164-11.823-42.55-44.748-42.55-32.926 0-49.766 28.673-60.666 48.705-10.9 20.03-21.5 51.898-10.75 94.863 10.75 42.965 72.859 40.008 89.685 32.365 16.826-7.642 37.697-20.307 37.697-52.119 0-21.208-9.039-37.537-27.117-48.986z" id="m"/>
    <linearGradient x1="77.742%" y1="24.986%" x2="12.38%" y2="83.797%" id="o">
      <stop stop-color="var(--beep-light-dark)" offset="0%"/>
      <stop stop-color="#1B1B1B" offset="100%"/>
    </linearGradient>
    <linearGradient x1="8.57%" y1="97.634%" x2="83.663%" y2="1.565%" id="p">
      <stop stop-color="#CACACA" offset="0%"/>
      <stop stop-color="#F2F2F2" offset="100%"/>
    </linearGradient>
    <linearGradient x1="108.957%" y1="-51.576%" x2="0%" y2="90.045%" id="r">
      <stop stop-color="#F5EA95" offset="0%"/>
      <stop stop-color="#EFDB71" offset="100%"/>
    </linearGradient>
    <path d="M.98 5.268c2.243 8.886 6.276 32.989 16.499 35.561 10.222 2.572 21.666 3.07 21.666 0 0-2.047-2.932-3.944-8.795-5.69 2.004-9.351 2.004-17.34 0-23.965C27.344 1.235-1.262-3.62.98 5.268z" id="q"/>
    <radialGradient cx="63.55%" cy="37.281%" fx="63.55%" fy="37.281%" r="104.863%" gradientTransform="matrix(0 .6209 -.63806 0 .873 -.022)" id="t">
      <stop stop-color="var(--beep-light-dark)" offset="0%"/>
      <stop stop-color="#1B1B1B" offset="100%"/>
    </radialGradient>
    <linearGradient x1="100%" y1="35.161%" x2="9.412%" y2="85.346%" id="u">
      <stop stop-color="var(--beep-light-dark)" offset="0%"/>
      <stop stop-color="#1B1B1B" offset="100%"/>
    </linearGradient>
    <radialGradient cx="76.032%" cy="6.154%" fx="76.032%" fy="6.154%" r="194.803%" id="v">
      <stop stop-color="var(--beep-light-dark)" offset="0%"/>
      <stop stop-color="#1B1B1B" offset="100%"/>
    </radialGradient>
    <linearGradient x1="59.917%" y1="-153.082%" x2="50%" y2="148.951%" id="w">
      <stop stop-color="var(--beep-light-dark)" offset="0%"/>
      <stop stop-color="#1B1B1B" offset="100%"/>
    </linearGradient>
    <filter x="-6.4%" y="-5.8%" width="111.8%" height="111.5%" filterUnits="objectBoundingBox" id="x">
      <feOffset in="SourceAlpha" result="shadowOffsetOuter1"/>
      <feGaussianBlur stdDeviation="2" in="shadowOffsetOuter1" result="shadowBlurOuter1"/>
      <feColorMatrix values="0 0 0 0 1 0 0 0 0 0.360784314 0 0 0 0 0.364705882 0 0 0 1 0" in="shadowBlurOuter1" result="shadowMatrixOuter1"/>
      <feMerge>
        <feMergeNode in="shadowMatrixOuter1"/>
        <feMergeNode in="SourceGraphic"/>
      </feMerge>
    </filter>
    <path d="M26.81 20.145L83.963 7.744c.986-.214 1.786.508 1.786 1.612v79c0 1.105-.8 2.174-1.786 2.388l-57.153 12.4c-.986.215-1.786-.507-1.786-1.612v-79c0-1.104.8-2.173 1.786-2.387z" id="y"/>
  </defs>
  <g fill="none" fill-rule="evenodd">
    <g filter="url(#a)" opacity=".5" transform="translate(10 51)">
      <path stroke="#47BD8F" stroke-width="2" fill-opacity=".15" fill="#47BD8F" d="M43.87 14.097l43.837 22.805v59l-43.838 36.195L.032 109.292v-59z"/>
      <path d="M47.9 54.04a27.33 27.33 0 0 1-4.575-3.609 43.614 43.614 0 0 1-4.915 5.235c-3.633 3.237-7.837 5.543-12.077 5.642-.357 5.407-.1 10.986.88 15.985 2.048 10.44 7.092 17.557 16.319 19.091 9.2-4.878 14.228-13.79 16.134-25.02.78-4.598 1.086-10.342.704-15.206-4.394 1.345-8.752.192-12.47-2.118z" stroke="--beep-light" stroke-width="2" fill-opacity=".1" fill="#47BD8F"/>
      <path d="M44.371 79.408l-1.785.273.413-2.95c-.423-.146-.71-.586-.71-1.166 0-.78.52-1.467 1.19-1.57.67-.102 1.19.47 1.19 1.206 0 .58-.288 1.108-.71 1.383l.412 2.824zm-6.21-7.266v-2.19c0-3.424 2.38-6.562 5.318-7.01 2.938-.449 5.318 1.962 5.318 5.386v2.19c.704.173 1.227.883 1.227 1.784v8.323c0 1.17-.818 2.206-1.785 2.354l-9.52 1.454c-.968.147-1.786-.681-1.786-1.808v-8.323c0-.902.523-1.772 1.227-2.16zm1.115-.279l8.405-1.284V68.5c0-2.688-1.896-4.609-4.202-4.257-2.306.352-4.203 2.853-4.203 5.54v2.081zm-.558 1.473c-.334.05-.595.394-.595.784v8.323c0 .39.26.654.595.603l9.521-1.455c.335-.05.595-.394.595-.784v-8.323c0-.39-.26-.654-.595-.603l-9.52 1.455z" fill="--beep-light" fill-rule="nonzero"/>
      <path stroke="#47BD8F" stroke-width="2" fill-opacity=".15" fill="#47BD8F" d="M131.38.731l43.838 22.805v59l-43.837 36.195-43.838-22.804v-59z"/>
      <path d="M136.266 40.544a27.33 27.33 0 0 1-4.575-3.61 43.614 43.614 0 0 1-4.915 5.236c-3.633 3.236-7.836 5.542-12.077 5.641-.357 5.408-.1 10.986.88 15.986 2.048 10.44 7.092 17.556 16.319 19.09 9.2-4.878 14.228-13.79 16.134-25.02.78-4.597 1.086-10.341.704-15.205-4.394 1.344-8.752.192-12.47-2.118z" stroke="--beep-light" stroke-width="2" fill-opacity=".1" fill="#47BD8F"/>
      <path d="M132.27 65.983l-1.785.273.413-2.95c-.423-.146-.71-.586-.71-1.166 0-.78.52-1.467 1.19-1.57.669-.102 1.19.47 1.19 1.206 0 .58-.288 1.108-.71 1.383l.412 2.824zm-6.21-7.266v-2.19c0-3.424 2.38-6.561 5.317-7.01 2.939-.449 5.319 1.962 5.319 5.386v2.19c.704.173 1.227.883 1.227 1.784V67.2c0 1.17-.818 2.206-1.785 2.354l-9.521 1.454c-.967.148-1.785-.681-1.785-1.808v-8.323c0-.901.523-1.772 1.227-2.16zm1.115-.279l8.405-1.283v-2.081c0-2.688-1.897-4.609-4.203-4.257-2.305.352-4.202 2.853-4.202 5.54v2.081zm-.558 1.473c-.335.05-.595.394-.595.784v8.323c0 .39.26.654.595.603l9.52-1.454c.336-.052.596-.395.596-.785V59.06c0-.39-.26-.654-.595-.603l-9.521 1.455z" fill="--beep-light" fill-rule="nonzero"/>
      <path stroke="#47BD8F" stroke-width="2" fill-opacity=".15" fill="#47BD8F" d="M87.625 96.414l43.838 22.805v59l-43.838 36.195-43.838-22.805v-59z"/>
      <path d="M92.186 137.025a27.33 27.33 0 0 1-4.575-3.609 43.614 43.614 0 0 1-4.915 5.235c-3.633 3.236-7.836 5.543-12.077 5.641-.357 5.408-.1 10.986.88 15.986 2.048 10.44 7.092 17.556 16.32 19.09 9.2-4.877 14.227-13.79 16.133-25.019.78-4.598 1.086-10.342.704-15.206-4.394 1.345-8.752.192-12.47-2.118z" stroke="--beep-light" stroke-width="2" fill-opacity=".1" fill="#47BD8F"/>
      <path d="M88.2 161.929l-1.786.272.413-2.95c-.422-.145-.71-.586-.71-1.166 0-.78.52-1.466 1.19-1.568.67-.103 1.19.468 1.19 1.205 0 .58-.288 1.108-.71 1.383l.413 2.824zm-6.211-7.266v-2.19c0-3.424 2.38-6.562 5.318-7.01 2.938-.45 5.318 1.962 5.318 5.386v2.19c.704.172 1.228.883 1.228 1.784v8.323c0 1.17-.819 2.206-1.786 2.354l-9.52 1.454c-.967.147-1.786-.681-1.786-1.808v-8.323c0-.902.524-1.772 1.228-2.16zm1.115-.279l8.406-1.284v-2.08c0-2.688-1.897-4.61-4.203-4.257-2.306.352-4.203 2.853-4.203 5.54v2.081zm-.557 1.472c-.335.052-.596.395-.596.785v8.323c0 .39.26.654.596.603l9.52-1.455c.335-.05.596-.394.596-.784v-8.323c0-.39-.26-.654-.596-.603l-9.52 1.454z" fill="--beep-light" fill-rule="nonzero"/>
    </g>
    <g transform="translate(116 87)">
      <ellipse fill-opacity=".05" fill="#000" style="mix-blend-mode:multiply" cx="97" cy="203" rx="92" ry="14"/>
      <g transform="translate(112 163)">
        <mask id="d" fill="#fff">
          <use xlink:href="#b"/>
        </mask>
        <use fill="url(#c)" xlink:href="#b"/>
        <path d="M10.418 33.068c1.623 2.277 3.504 3.907 5.695 4.458 9.383 2.36 19.887 2.818 19.887 0-.953 1.638-19.887.838-25.582-4.458z" fill-opacity=".1" fill="#000" style="mix-blend-mode:multiply" mask="url(#d)"/>
      </g>
      <g transform="translate(0 94)">
        <path fill="url(#e)" transform="rotate(-57 11.628 17.162)" d="M11.628 11.662l12 11h-24z"/>
        <path fill-opacity=".1" fill="--beep-light" style="mix-blend-mode:lighten" d="M7.015 14.166h12.85l-1.323 1.954zM7.015 14.166l9.857 3.56-.734.768z"/>
        <mask id="h" fill="#fff">
          <use xlink:href="#f"/>
        </mask>
        <use fill="url(#g)" xlink:href="#f"/>
        <path d="M20.102 69.468c-2.497-3.037-4.567-6.084-6.246-9.109C13.856 35.112 30.9 7.061 52.025.756c3.751.507 7.852 1.485 12.352 3.021C32.243 14.183 22.1 43.576 20.102 69.468z" fill="url(#e)" mask="url(#h)"/>
        <path d="M36.66 83.53c-3.207-1.913-6.201-3.998-8.91-6.264C25.448 38.951 51.892 8.48 67.6 4.948a187.424 187.424 0 0 1 8.559 3.532c-24.267 13.256-42.466 42.38-39.5 75.05z" fill="url(#e)" mask="url(#h)"/>
        <use fill-opacity=".05" fill="#000" style="mix-blend-mode:multiply" xlink:href="#i"/>
      </g>
      <g transform="translate(25 49)" fill="#96CCE5" fill-opacity=".5">
        <ellipse transform="rotate(12 26.868 20)" cx="26.868" cy="20" rx="12.439" ry="17.803"/>
        <ellipse transform="rotate(12 15.868 21)" cx="15.868" cy="21" rx="12.439" ry="17.803"/>
      </g>
      <g transform="translate(132 4)">
        <path d="M16.647 2.232c.648.736-8.506 7.734-10.188 14.477-1.681 6.744-8.325 5.978-4.47-1.068C5.841 8.596 15.998 1.496 16.646 2.232z" fill="url(#e)"/>
        <circle fill="url(#j)" cx="16.5" cy="2.5" r="2.5"/>
      </g>
      <path d="M26.02 22.237c5.476-7.417 11.937-11.71 19.382-12.88 7.445-1.169 8.74-2.377 3.888-3.623 9.233-1.625 9.233-3.104 0-4.437-9.233-1.333-20.935.146-35.105 4.437L26.02 22.237z" fill="url(#k)" transform="translate(132 85)"/>
      <path d="M5.733 5.73c2.603-1.183 12.86-1.947 19.182-3.322l8.746 18.244c-5.83 5.554-12.13 8.956-18.896 10.206C3.043 33.025-5.403 10.795 5.733 5.731z" fill="url(#l)" transform="translate(132 85)"/>
      <path d="M27.325 28.042c4.292-7.949 10.16-12.508 17.605-13.677 7.444-1.17 8.59-2.821 3.437-4.956 6.27-9.121 5.306-10.906-2.895-5.354-3.572 2.418-14.31 4.203-32.21 5.354l14.063 18.633z" fill="url(#k)" transform="rotate(13 -399.955 660.37)"/>
      <path d="M7.733 8.73c2.603-1.183 12.86-1.947 19.182-3.322l8.746 18.244c-5.83 5.554-12.13 8.956-18.896 10.206C5.043 36.025-3.403 13.795 7.733 8.731z" fill="url(#l)" transform="rotate(23 -186.237 402.835)"/>
      <g transform="translate(39 14)">
        <mask id="n" fill="#fff">
          <use xlink:href="#m"/>
        </mask>
        <use fill="url(#c)" xlink:href="#m"/>
        <path d="M31.26 174.375c22.62 10.128 52.437 7.145 63.318 2.203-22.488 3.403-47.22 1.125-63.318-2.203z" fill-opacity=".05" fill="#000" style="mix-blend-mode:multiply" mask="url(#n)"/>
        <path d="M95.329 18.467c2.26-1.582 1.636-5.937-1.393-9.533-3.03-3.466-7.317-4.857-9.577-3.3-2.26 1.472-1.637 5.34 1.393 8.833 3.03 3.622 7.317 5.5 9.577 4z" fill-opacity=".3" fill="--beep-light" style="mix-blend-mode:overlay" mask="url(#n)"/>
        <path d="M99.546 26.028c.883-.618.639-2.318-.544-3.723-1.183-1.353-2.858-1.896-3.74-1.289-.883.576-.64 2.086.544 3.45 1.183 1.415 2.857 2.148 3.74 1.562z" fill-opacity=".3" fill="--beep-light" style="mix-blend-mode:overlay" mask="url(#n)" transform="rotate(14 97.404 23.5)"/>
        <path d="M105.158 75.473c-17.207 15.818-66.407 0-89.515-26.123C7.408 64.483-.655 86.37.528 114.695c15.115 32.739 118.032 52.494 130.05 24.438 1.09-4.381 1.697-9.25 1.697-14.674 0-36.205-27.117-48.986-27.117-48.986z" stroke="url(#e)" stroke-width=".5" fill="url(#o)" mask="url(#n)"/>
        <path d="M94.193 93.485a6.461 6.461 0 0 1 .103 2.87c-3.102-1.107-5.566-4.079-6.16-7.85a10.507 10.507 0 0 1-.013-3.29 8.8 8.8 0 0 1 2.492.517 7.234 7.234 0 0 0-.028 2.532c.376 2.32 1.775 4.23 3.606 5.221zm-3.06-5.275a6.556 6.556 0 0 1 .017-2.268c3.1 1.287 5.582 4.174 6.186 7.715.842 5.012-2.428 9.925-7.274 10.972l-.41-2.729c3.477-.683 5.82-4.213 5.219-7.886a7.383 7.383 0 0 0-3.608-5.186 6.983 6.983 0 0 1-.13-.618zm8.627 8.731c.828-.262 1.6-.63 2.303-1.085 1.404 1.881 3.81 2.874 6.307 2.389l.44 2.354c-3.652.78-7.156-.749-9.05-3.658zm5.739-10.648c-2.868.528-4.801 3.005-4.693 5.941a5.627 5.627 0 0 1-2.378 1.237c-.781-4.59 1.901-8.632 6.124-9.471.417.716.738 1.485.947 2.293zm-7.519 7.85c3.183-.474 5.393-3.177 5.27-6.228a5.295 5.295 0 0 1 2.368-1.098c.88 4.634-2.354 9.049-7.207 9.867-.166.028-.332.05-.497.07.13-.847.15-1.722.066-2.611z" fill="url(#p)" mask="url(#n)" transform="rotate(-7 98.405 94.315)"/>
      </g>
      <g transform="translate(61 162)">
        <mask id="s" fill="#fff">
          <use xlink:href="#q"/>
        </mask>
        <use fill="url(#r)" xlink:href="#q"/>
        <path d="M10.86 35.373c1.86 2.793 4.043 4.808 6.619 5.456 10.222 2.572 21.666 3.07 21.666 0-1.351 1.955-24.242 0-28.285-5.456z" fill-opacity=".1" fill="#000" style="mix-blend-mode:multiply" mask="url(#s)"/>
      </g>
      <g transform="translate(105 35)">
        <ellipse fill="url(#t)" cx="7.351" cy="19.786" rx="2.351" ry="3.786"/>
        <path d="M1.96 3.558C1.26 4.32.736 5.374.22 5.07c-.517-.304-.078-1.059.861-2.18C2.94.673 5.977-1.051 9.865.755c1.756.815 2.648 1.824 2.073 2.136-.575.312-1.668-.55-2.593-.85C7.659 1.498 4.525.756 1.96 3.559z" fill="url(#u)" fill-rule="nonzero"/>
        <ellipse fill="url(#t)" cx="44.351" cy="23.786" rx="2.351" ry="3.786"/>
        <path d="M40.871 16.078c-.699.763-1.702 2.093-2.219 1.79-.516-.303-.077-1.058.862-2.18 1.858-2.217 4.896-3.941 8.784-2.136 1.756.816 2.692 2.083 2.331 1.98-.36-.104-1.634-.886-2.559-1.185-1.686-.545-4.633-1.073-7.199 1.73z" fill="url(#u)" fill-rule="nonzero" transform="rotate(-16 44.57 15.355)"/>
        <path d="M23.406 32.863c-.504.695-1.467 2.462-2.17 2.025-.704-.438.048-2.687.394-3.408 2.499-5.214 7.617-7.003 11.74-3.894 1.276.961 2.236 1.704 1.772 2.39-.463.688-1.601-.16-2.496-.495-3.009-1.122-6.721-.085-9.24 3.382z" fill="url(#e)" fill-rule="nonzero" transform="rotate(24 28.103 30.506)"/>
      </g>
      <g transform="translate(109)">
        <path d="M18.328 2.54c.882.925-9.314 8.468-11.156 15.853-1.842 7.385-9.117 6.546-4.897-1.17C6.495 9.509 17.445 1.615 18.328 2.54z" fill="url(#e)"/>
        <circle fill="url(#v)" cx="18" cy="3" r="3"/>
      </g>
      <path d="M90.099 91.782c11.697-3.85 19.726-8.093 24.087-12.727 4.36-4.635 5.786-3.849 4.278 2.358 7.682-8.884 9.36-7.474 5.032 4.229-4.327 11.703-12.365 18.405-24.114 20.107l-9.283-13.967z" fill-opacity=".1" fill="#000" style="mix-blend-mode:multiply"/>
      <path d="M11.099 18.782c11.13-4.596 18.875-9.211 23.235-13.846 4.36-4.634 5.824-3.874 4.392 2.281 7.51-9.604 9.102-8.554 4.775 3.149S31.468 29.53 20.381 32.749L11.1 18.782z" fill="url(#k)" transform="translate(79 73)"/>
      <path d="M4.733 17.73c1.921-1.2 8.547-1.2 14.637-3.59 0 0 4.25 5.742 12.748 17.23-3.019 4.96-7.86 8.794-14.524 11.498C4.733 48.088-6.768 24.915 4.733 17.731z" fill="url(#l)" transform="translate(79 73)"/>
      <g>
        <g transform="rotate(8 -820.903 824.314)">
          <rect fill-opacity=".1" fill="#000" style="mix-blend-mode:multiply" x="1.269" y="1.841" width="16" height="31" rx="2"/>
          <rect stroke="#EBEBEB" stroke-width=".2" fill="#EBEBEB" width="16" height="31" rx="2"/>
          <circle fill="#B4B4B4" cx="3.27" cy="3.215" r="1.5"/>
        </g>
        <path d="M80.29 123.174c10.211 6.571 18.478 10.331 24.8 11.28l-.563 4.545c12.351 2.311 12.48 5.034.387 8.167s-22.322.366-30.689-8.301l6.065-15.69z" fill-opacity=".1" fill="#000" style="mix-blend-mode:multiply"/>
        <path d="M12.32 31.126c11.24-4.595 19.06-9.21 23.464-13.845l3.4 3.068c8.275-10.128 10.228-9.341 5.858 2.362S32.89 41.875 21.694 45.094L12.32 31.126z" fill="url(#c)" transform="rotate(55 -42.106 142.435)"/>
        <path d="M7.122 8.198c3.121-1.142 8.63-.162 14.826-3.366l13.005 19.525c-3.3 3.01-8.248 6.003-14.843 8.978C9.663 36.775-9.533 14.292 7.122 8.198z" fill="url(#w)" transform="rotate(55 -61.756 132.63)"/>
      </g>
      <g filter="url(#x)" transform="translate(121 56)">
        <use fill-opacity=".15" fill="#FF5C5D" style="mix-blend-mode:overlay" xlink:href="#y"/>
        <path stroke-opacity=".5" stroke="#FF5C5D" d="M26.916 20.633c-.748.163-1.392 1.023-1.392 1.9v79c0 .798.52 1.266 1.18 1.123l57.153-12.4c.749-.163 1.392-1.023 1.392-1.9v-79c0-.798-.52-1.267-1.18-1.124L26.916 20.633z" stroke-linejoin="square"/>
        <path d="M64.58 88.95l-.63-.567 4.99-6.646c-.934-1.015-1.498-2.474-1.498-4.201 0-3.848 2.799-7.575 6.251-8.324 3.453-.749 6.251 1.763 6.251 5.611s-2.798 7.575-6.25 8.324c-1.582.343-3.025.002-4.126-.838l-4.987 6.64zM32.924 24.817l.636.566-.953 1.263.953.849-.636.841-.952-.849-.953 1.263-.636-.566.953-1.263-.953-.849.636-.841.953.849.952-1.263zm47.468 2.545l-14.004 3.039 7.002-14.956 7.002 11.917zm-7.002-9.927L67.943 29.07l10.892-2.364-5.446-9.269zm-.45 3.084l.9-.195v3.91l-.9.194v-3.91zm0 4.976l.9-.195v1.574l-.9.195v-1.574zM54.495 24.11v-.995l10.192-2.212v.995L54.494 24.11zm-.415 3.226v-.996L64.27 24.13v.995L54.08 27.336zm4.492 2.01v-.995l5.7-1.236v.995l-5.7 1.237zm-24.58 49.236v-.995l18.193-3.948v.995L33.99 78.582zm0 7v-.995l18.193-3.948v.995L33.99 85.582zm0 7v-.995l18.193-3.948v.995L33.99 92.582zm21.396-21.638l2.679-.581c.493-.107.893.254.893.806v3c0 .553-.4 1.087-.893 1.194l-2.68.581c-.493.107-.892-.254-.892-.806v-3c0-.552.4-1.087.893-1.194zm0 7l2.679-.581c.493-.107.893.254.893.806v3c0 .553-.4 1.087-.893 1.194l-2.68.581c-.493.107-.892-.254-.892-.806v-3c0-.552.4-1.087.893-1.194zm0 7l2.679-.581c.493-.107.893.254.893.806v3c0 .553-.4 1.087-.893 1.194l-2.68.581c-.493.107-.892-.254-.892-.806v-3c0-.552.4-1.087.893-1.194zm.446-13.097c-.246.054-.446.321-.446.597v2c0 .276.2.457.446.403l1.786-.387c.247-.054.447-.32.447-.597v-2c0-.276-.2-.457-.447-.403l-1.786.387zm0 7c-.246.054-.446.321-.446.597v2c0 .276.2.457.446.403l1.786-.387c.247-.054.447-.32.447-.597v-2c0-.276-.2-.457-.447-.403l-1.786.387zm0 7c-.246.054-.446.321-.446.597v2c0 .276.2.457.446.403l1.786-.387c.247-.054.447-.32.447-.597v-2c0-.276-.2-.457-.447-.403l-1.786.387zm17.86-3.696c2.96-.642 5.358-3.836 5.358-7.134 0-3.298-2.398-5.452-5.358-4.81-2.959.643-5.358 3.837-5.358 7.135 0 3.298 2.4 5.451 5.358 4.81zm-6.697-30.726l11.609-2.519v-13l-11.61 2.52v13zm-.447-13.903l12.502-2.712c.247-.054.447.127.447.403v14c0 .276-.2.543-.447.597L66.55 52.522c-.246.054-.446-.127-.446-.403v-14c0-.276.2-.543.446-.597zM50.03 55.107l11.609-2.52v-13l-11.61 2.52v13zm-.447-13.903l12.502-2.713c.247-.053.447.127.447.403v14c0 .276-.2.544-.447.597l-12.502 2.713c-.246.053-.446-.127-.446-.403v-14c0-.277.2-.544.446-.597zM34.847 58.4l11.61-2.52v-13l-11.61 2.52v13zm-.446-13.903l12.502-2.713c.247-.053.447.127.447.403v14c0 .276-.2.544-.447.597l-12.502 2.713c-.247.053-.447-.127-.447-.403v-14c0-.277.2-.544.447-.597zm.446 19.903v5l18.754-4.07v-5l-18.754 4.07zm-.446-.903l19.646-4.263c.247-.054.447.127.447.403v6c0 .276-.2.543-.447.597l-19.646 4.263c-.247.053-.447-.127-.447-.403v-6c0-.277.2-.544.447-.597zm25.45-4.523v5l18.754-4.069v-5l-18.753 4.07zm-.446-.903l19.646-4.262c.247-.054.447.127.447.403v6c0 .276-.2.543-.447.597l-19.646 4.262c-.246.054-.446-.127-.446-.403v-6c0-.276.2-.543.446-.597z" fill-opacity=".5" fill="--beep-light" fill-rule="nonzero" style="mix-blend-mode:overlay"/>
        <path d="M88.874 8.178l-.893.194c0-2.21-1.599-3.653-3.572-3.225v-1c2.466-.535 4.465 1.27 4.465 4.031z" fill-opacity=".5" fill="#FF5C5D" style="mix-blend-mode:overlay"/>
        <path d="M91.553 7.597l-.893.194c0-3.866-2.798-6.393-6.25-5.644v-1c3.945-.856 7.143 2.032 7.143 6.45z" fill-opacity=".5" fill="#FF5C5D" style="mix-blend-mode:overlay"/>
        <path stroke-opacity=".5" stroke="#FF5C5D" d="M23.637 88.807h-9.819V86h-3.732v2.807H7M6.005 88.807H4.41M3.005 88.807H1.41M103.005 28.807h-3.187l-3-2.807h-3.732l-3 2.807h-3.422M109.005 28.807h-1.594M106.005 28.807h-1.594M3 70a3 3 0 0 0-3-3M5 70a5 5 0 0 0-5-5"/>
      </g>
    </g>
  </g>
</svg>
