<svg viewBox="0 0 25 18" xmlns="http://www.w3.org/2000/svg">
  <path d="M12.5 17.071c-3.808 0-7.411-1.613-10.149-4.542a.893.893 0 0 1 1.305-1.22c2.396 2.565 5.536 3.977 8.844 3.977 4.253 0 8.169-2.326 10.572-6.25-2.402-3.924-6.32-6.25-10.572-6.25-4.409 0-8.457 2.5-10.83 6.69a.892.892 0 1 1-1.554-.88C2.81 3.839 7.44 1 12.5 1c5.06 0 9.69 2.84 12.384 7.596a.892.892 0 0 1 0 .879c-2.694 4.756-7.323 7.596-12.384 7.596zm0-3.57a4.47 4.47 0 0 1-4.464-4.465A4.47 4.47 0 0 1 12.5 4.57a4.47 4.47 0 0 1 4.464 4.465A4.47 4.47 0 0 1 12.5 13.5zm0-7.144a2.682 2.682 0 0 0-2.678 2.679 2.682 2.682 0 0 0 2.678 2.678 2.682 2.682 0 0 0 2.679-2.678A2.682 2.682 0 0 0 12.5 6.357z" fill="#5C5C5C" fill-rule="nonzero" fill-opacity=".5"/>
</svg>
