<?xml version="1.0" encoding="UTF-8"?>
<svg width="24px" height="24px" viewBox="0 0 24 24" version="1.1" xmlns="http://www.w3.org/2000/svg" xmlns:xlink="http://www.w3.org/1999/xlink">
    <!-- Generator: Sketch 50.2 (55047) - http://www.bohemiancoding.com/sketch -->
    <title>Icon-Filter-InActive</title>
    <desc>Created with Sketch.</desc>
    <defs></defs>
    <g id="Icon-Filter-InActive" stroke="none" stroke-width="1" fill="none" fill-rule="evenodd">
        <path d="M12,22 C17.5228475,22 22,17.5228475 22,12 C22,6.4771525 17.5228475,2 12,2 C6.4771525,2 2,6.4771525 2,12 C2,17.5228475 6.4771525,22 12,22 Z M12,23 C5.92486775,23 1,18.0751322 1,12 C1,5.92486775 5.92486775,1 12,1 C18.0751322,1 23,5.92486775 23,12 C23,18.0751322 18.0751322,23 12,23 Z M5,8 L5,9 L19,9 L19,8 L5,8 Z M7,12 L7,13 L17,13 L17,12 L7,12 Z M9,16 L9,17 L15,17 L15,16 L9,16 Z" id="Filter" fill="#FFFFFF" fill-rule="nonzero"></path>
    </g>
</svg>