<svg viewBox="0 0 45 58" xmlns="http://www.w3.org/2000/svg">
  <path d="M21.674 6.696c-1.012 1.444-1.526 3.527-1.542 6.25.584-.064 1.19-.096 1.815-.096.703 0 1.462.07 2.21.22.948-2.494 3.512-4.437 5.345-5.394a3 3 0 1 1 .7.732c-1.89 1.574-2.991 3.47-3.307 5.685.382.238.725.512 1.012.825 3.284.608 5.96 4.5 5.96 9 0 2.92-.487 5.352-.852 6.447.365.608.73 1.46.73 2.432 0 2.311-1.094 3.77-2.19 4.5-.242 2.798-1.824 4.622-2.797 5.474v2.676c0 1.702 3.041 2.797 5.839 3.892 3.284 1.216 6.69 2.432 7.784 5.23.289 1.116-.008 1.776-.89 1.979-.881.202-1.598-.092-2.15-.885-.487-1.46-3.406-2.432-5.839-3.405-3.77-1.338-8.028-2.92-8.028-6.811v-4.379l.73-.487c.122 0 2.19-1.46 2.19-4.257V35.23l.973-.365c.121-.122 1.094-.608 1.094-2.068 0-.486-.365-.973-.486-1.094l-.608-.73.243-.852s.851-2.675.851-6.324c0-3.041-1.703-5.839-3.527-5.839h-.973l-.487-.851c-.364-.608-1.824-1.216-3.77-1.216-5.473 0-8.757 2.919-8.757 7.906 0 2.31.851 6.081.851 6.081l.243.851-.608.609s-.486.608-.486 1.216c0 .851 1.094 1.946 1.58 2.433l.609.486v.851c0 2.676 2.31 4.136 2.31 4.136l.73.486v4.379c0 4.014-4.5 6.081-8.513 7.784-1.703.973-4.257 2.19-4.744 3.041-.558.498-1.18.631-1.864.398-.685-.234-1.037-.812-1.055-1.736.851-2.068 3.527-3.162 6.568-4.5 2.92-1.338 6.568-2.92 6.568-4.865V42.77c-1.095-.852-2.798-2.798-3.04-5.595-.852-.852-2.19-2.433-2.19-4.379 0-1.216.486-2.19.851-2.797-.243-1.338-.73-4.014-.73-6.082 0-4.865 2.445-8.507 6.585-10.133.391-3.863 2.42-6.41 4.144-7.783a3 3 0 1 1 .917.694z" fill="#FF5C5D" fill-rule="nonzero"/>
</svg>
