<svg viewBox="0 0 20 25" xmlns="http://www.w3.org/2000/svg">
  <path d="M19.734 5.127c.007.045 2.746 15.831-9.514 18.928a.354.354 0 0 1-.204.01v-.001C-2.07 21.039.124 5.704.206 5.148a.357.357 0 0 1 .457-.31v.001c4.53 1.348 8.721-3.348 9.022-3.693a.355.355 0 0 1 .557-.022v.001c.012.015 4.333 5.097 9.02 3.72a.358.358 0 0 1 .473.28l-.001.002zm-1.269 1.37c-2.188.288-4.36-.49-6.212-1.72a16.306 16.306 0 0 1-2.279-1.84 16.65 16.65 0 0 1-2.448 1.916C5.716 6 3.622 6.711 1.51 6.476c-.178 2.288-.05 4.689.438 6.89 1.02 4.596 3.533 7.966 8.13 9.224 4.582-1.484 7.087-4.965 8.037-9.64.388-1.914.54-4.35.35-6.453zm-8.056 8.157H8.793L8.19 17.67H6.658l.603-3.016h-1.9v-1.265h2.151l.419-2.09H5.989v-1.28H8.19l.611-3.06h1.524l-.611 3.06h1.624l.611-3.06h1.532l-.611 3.06h1.833v1.28H12.61l-.418 2.09h1.875v1.265h-2.126l-.603 3.016H9.806l.603-3.016zm-1.365-1.265h1.616l.418-2.09H9.454l-.41 2.09z" fill="#9B9B9B" fill-rule="nonzero"/>
</svg>
