<svg viewBox="0 0 155 24" xmlns="http://www.w3.org/2000/svg">
  <path d="M7.434 12.246c0 .945-.177 1.849-.5 2.68A11.325 11.325 0 0 1 .709 4.812c0-1.338.233-2.62.658-3.812 1.086.13 2.125.415 3.094.83A8.129 8.129 0 0 0 7.395 11.5c.025.246.039.495.039.747zM5.102 2.13a11.327 11.327 0 0 1 6.226 10.116c0 6.256-5.072 11.327-11.328 11.327v-3.186a8.142 8.142 0 0 0 4.64-14.83 7.41 7.41 0 0 1 .462-3.427zm11.681 13.744a8.14 8.14 0 0 0 7.288 4.513v3.186c-4.66 0-8.663-2.814-10.401-6.836a11.945 11.945 0 0 0 3.113-.863zm-.772-4.783a7.39 7.39 0 0 1-3.267 1.12c.018-5.778 4.36-10.538 9.962-11.21.353.989.57 2.042.635 3.137a8.144 8.144 0 0 0-7.33 6.953zm4.083-5.123a7.383 7.383 0 0 1 3.269-1.122c-.019 6.24-5.083 11.294-11.327 11.294-.214 0-.427-.007-.638-.019.34-1.003.553-2.065.616-3.168h.022a8.142 8.142 0 0 0 8.058-6.985zM45.6 10.772l-3.065 7.138h-1.509l-3.05-7.138v7.138h-2.53V6.57h3.423l2.92 7.17 2.936-7.17h3.406V17.91h-2.53v-7.138zm16.344 5.766c-1.215 1.15-2.71 1.725-4.486 1.725-1.776 0-3.27-.575-4.485-1.725-1.215-1.15-1.822-2.58-1.822-4.292 0-1.712.607-3.143 1.822-4.293 1.214-1.15 2.71-1.725 4.485-1.725 1.776 0 3.271.575 4.486 1.725 1.214 1.15 1.821 2.581 1.821 4.293 0 1.711-.607 3.142-1.821 4.292zm-.911-4.284c0-1.039-.344-1.925-1.031-2.659-.688-.733-1.533-1.1-2.535-1.1-1.003 0-1.848.367-2.535 1.1-.687.734-1.031 1.62-1.031 2.659 0 1.04.344 1.923 1.031 2.65.687.729 1.532 1.092 2.535 1.092 1.002 0 1.847-.363 2.535-1.091.687-.728 1.03-1.612 1.03-2.651zm14.462-4.199c1.116.99 1.675 2.366 1.675 4.128 0 1.763-.545 3.158-1.633 4.185-1.09 1.028-2.75 1.542-4.984 1.542H66.55V6.57h4.137c2.088 0 3.691.495 4.808 1.484zm-1.918 6.74c.642-.584.963-1.433.963-2.547 0-1.113-.321-1.97-.963-2.57-.643-.6-1.628-.9-2.957-.9h-1.457v6.893h1.658c1.195 0 2.113-.292 2.756-.876zm9.667.438c.432.525 1.014.787 1.746.787.731 0 1.31-.262 1.737-.787.427-.524.64-1.24.64-2.15V6.583h2.594v6.583c0 1.644-.466 2.906-1.397 3.787-.93.882-2.122 1.322-3.574 1.322-1.453 0-2.647-.443-3.583-1.33-.937-.886-1.405-2.146-1.405-3.78V6.583h2.593v6.502c0 .908.217 1.625.649 2.149zm13.07-6.438a1.008 1.008 0 0 0-.37.816c0 .338.15.607.453.807.303.2 1.001.435 2.096.707 1.094.272 1.944.68 2.549 1.224.604.544.907 1.337.907 2.38 0 1.044-.388 1.89-1.163 2.539-.775.65-1.796.974-3.06.974-1.826 0-3.47-.683-4.933-2.048l1.534-1.897c1.243 1.098 2.392 1.647 3.448 1.647.473 0 .844-.102 1.114-.307a.992.992 0 0 0 .404-.833.973.973 0 0 0-.43-.832c-.285-.205-.852-.413-1.698-.624-1.342-.322-2.324-.741-2.945-1.257-.622-.516-.933-1.326-.933-2.43 0-1.105.394-1.957 1.18-2.556.786-.6 1.768-.899 2.945-.899.77 0 1.54.133 2.31.4.77.266 1.44.643 2.013 1.132l-1.304 1.898c-1-.766-2.035-1.15-3.101-1.15-.43 0-.768.104-1.015.309zm14.13 9.115V6.582h2.53v9.075h4.828v2.253h-7.357zm18.758 0l-1.053-2.45h-4.753l-1.055 2.45h-2.692l4.899-11.339h2.449l4.898 11.339h-2.693zm-3.422-7.965l-1.427 3.293h2.839l-1.412-3.293zm13.121 8.039h-4.99V6.582h4.436c.772 0 1.438.092 1.998.277.56.185.981.435 1.265.75.51.588.765 1.251.765 1.99 0 .892-.287 1.556-.864 1.99a3.123 3.123 0 0 1-.408.286c-.076.038-.212.1-.408.188.707.152 1.27.47 1.69.954.417.484.627 1.085.627 1.802 0 .794-.272 1.496-.816 2.105-.63.707-1.728 1.06-3.295 1.06zm-2.447-2.153h1.746c.728 0 1.274-.09 1.639-.27.365-.179.547-.532.547-1.06 0-.527-.194-.875-.58-1.044-.386-.168-1.002-.252-1.85-.252h-1.502v2.626zm0-4.633h1.208c.707 0 1.231-.076 1.573-.228.344-.152.515-.481.515-.987s-.158-.84-.474-1.003c-.315-.163-.847-.245-1.598-.245h-1.224v2.463zm12.912-2.403c-.247.205-.37.477-.37.816 0 .338.15.607.452.807.303.2 1.002.435 2.096.707 1.094.272 1.944.68 2.549 1.224.605.544.907 1.337.907 2.38 0 1.044-.387 1.89-1.162 2.539-.776.65-1.797.974-3.061.974-1.826 0-3.47-.683-4.933-2.048l1.534-1.897c1.243 1.098 2.392 1.647 3.449 1.647.472 0 .844-.102 1.113-.307a.994.994 0 0 0 .404-.833.974.974 0 0 0-.429-.832c-.286-.205-.852-.413-1.699-.624-1.342-.322-2.324-.741-2.945-1.257-.622-.516-.932-1.326-.932-2.43 0-1.105.393-1.957 1.18-2.556.785-.6 1.767-.899 2.944-.899.77 0 1.54.133 2.31.4a6.17 6.17 0 0 1 2.013 1.132l-1.304 1.898c-1-.766-2.034-1.15-3.101-1.15-.429 0-.767.104-1.015.309z" fill="#1B1B1B" fill-rule="evenodd"/>
</svg>
