<?xml version="1.0" encoding="UTF-8"?>
<svg width="20px" height="20px" viewBox="0 0 20 20" version="1.1" xmlns="http://www.w3.org/2000/svg" xmlns:xlink="http://www.w3.org/1999/xlink">
    <!-- Generator: Sketch 50.2 (55047) - http://www.bohemiancoding.com/sketch -->
    <title>Icon-Verified-Checkmark</title>
    <desc>Created with Sketch.</desc>
    <defs></defs>
    <g id="Icon-Verified-Checkmark" stroke="none" stroke-width="1" fill="none" fill-rule="evenodd">
        <polygon id="Badge" fill="#1DA1F2" points="10 18 6.90983006 19.5105652 5.29771798 16.472136 1.90983006 15.8778525 2.39154787 12.472136 0 10 2.39154787 7.52786405 1.90983006 4.12214748 5.29771798 3.52786405 6.90983006 0.489434837 10 2 13.0901699 0.489434837 14.702282 3.52786405 18.0901699 4.12214748 17.6084521 7.52786405 20 10 17.6084521 12.472136 18.0901699 15.8778525 14.702282 16.472136 13.0901699 19.5105652"></polygon>
        <path d="M12.6151634,7.05959337 C12.8650002,6.72920806 13.3353631,6.66391058 13.6657484,6.91374736 C13.9961337,7.16358415 14.0614312,7.63394709 13.8115944,7.96433241 L9.64105788,13.4794691 C9.35007038,13.8642723 8.77671517,13.8782304 8.46734781,13.5080425 L6.42450546,11.0635845 C6.15888805,10.7457476 6.20122028,10.2727645 6.51905714,10.0071471 C6.836894,9.74152965 7.30987713,9.78386188 7.57549454,10.1016987 L9.0135153,11.8224294 L12.6151634,7.05959337 Z" id="Checkmark" fill="#FFFFFF" fill-rule="nonzero"></path>
    </g>
</svg>