<?xml version="1.0" encoding="UTF-8"?>
<svg width="360px" height="320px" viewBox="0 0 360 320" version="1.1" xmlns="http://www.w3.org/2000/svg" xmlns:xlink="http://www.w3.org/1999/xlink">
    <!-- Generator: Sketch 50.2 (55047) - http://www.bohemiancoding.com/sketch -->
    <title>Icon-Character-Swarm</title>
    <desc>Created with Sketch.</desc>
    <defs>
        <filter x="-7.4%" y="-6.0%" width="114.8%" height="112.1%" filterUnits="objectBoundingBox" id="filter-1">
            <feOffset dx="0" dy="0" in="SourceAlpha" result="shadowOffsetOuter1"></feOffset>
            <feGaussianBlur stdDeviation="4" in="shadowOffsetOuter1" result="shadowBlurOuter1"></feGaussianBlur>
            <feColorMatrix values="0 0 0 0 0.278431373   0 0 0 0 0.741176471   0 0 0 0 0.559709346  0 0 0 1 0" type="matrix" in="shadowBlurOuter1" result="shadowMatrixOuter1"></feColorMatrix>
            <feMerge>
                <feMergeNode in="shadowMatrixOuter1"></feMergeNode>
                <feMergeNode in="SourceGraphic"></feMergeNode>
            </feMerge>
        </filter>
        <linearGradient x1="83.4711648%" y1="11.9195273%" x2="0%" y2="90.0449005%" id="linearGradient-2">
            <stop stop-color="#F5EA95" offset="0%"></stop>
            <stop stop-color="#EFDB71" offset="100%"></stop>
        </linearGradient>
        <path d="M0.970195954,4.88487792 C3.02824176,13.0417668 6.7302144,35.1648628 16.1133257,37.5258788 C25.496437,39.8868948 36,40.3440391 36,37.5258788 C36,35.6471053 33.309123,33.9060726 27.9273691,32.3027808 C29.7667027,23.7198215 29.7667027,16.3875852 27.9273691,10.3060717 C25.1683687,1.18380164 -1.08784985,-3.27201095 0.970195954,4.88487792 Z" id="path-3"></path>
        <linearGradient x1="76.0316474%" y1="6.1538362%" x2="9.41181663%" y2="85.3458379%" id="linearGradient-5">
            <stop stop-color="#555555" offset="0%"></stop>
            <stop stop-color="#1B1B1B" offset="100%"></stop>
        </linearGradient>
        <linearGradient x1="54.3401357%" y1="23.5283124%" x2="23.4031873%" y2="79.7649499%" id="linearGradient-6">
            <stop stop-color="#F5EA95" offset="0%"></stop>
            <stop stop-color="#EFDB71" offset="100%"></stop>
        </linearGradient>
        <path d="M105.102539,100.883789 C81.3583984,100.883789 41.4980469,92.7382813 22.9375,72.7128906 C4.37695313,52.6875 5.05664063,31.7949219 14.6015625,18.828125 C24.1464844,5.86132813 37.2792969,-6.70703125 67.6000256,4.94824219 C97.9207543,16.6035156 118.585937,33.2412577 130.21875,50.6387186 C141.851562,68.0361795 128.84668,100.883789 105.102539,100.883789 Z" id="path-7"></path>
        <path d="M105.102539,100.883789 C81.3583984,100.883789 41.4980469,92.7382812 22.9375,72.7128906 C4.37695313,52.6875 5.05664063,31.7949219 14.6015625,18.828125 C-6.36328125,66.3632812 50.7783203,96.6445312 105.102539,100.883789 Z" id="path-9"></path>
        <radialGradient cx="76.0316474%" cy="6.1538362%" fx="76.0316474%" fy="6.1538362%" r="210.721393%" id="radialGradient-11">
            <stop stop-color="#555555" offset="0%"></stop>
            <stop stop-color="#1B1B1B" offset="100%"></stop>
        </radialGradient>
        <linearGradient x1="83.4711648%" y1="11.9195273%" x2="0%" y2="90.0449005%" id="linearGradient-12">
            <stop stop-color="#F9F2BF" offset="0%"></stop>
            <stop stop-color="#F5EA95" offset="34.5872471%"></stop>
            <stop stop-color="#EFDB71" offset="100%"></stop>
        </linearGradient>
        <linearGradient x1="70.5595316%" y1="0%" x2="-53.5481154%" y2="57.947556%" id="linearGradient-13">
            <stop stop-color="#555555" offset="0%"></stop>
            <stop stop-color="#1B1B1B" offset="100%"></stop>
        </linearGradient>
        <path d="M105.158203,75.4726562 C115.757161,64.7304688 121.056641,53.9713542 121.056641,43.1953125 C121.056641,27.03125 109.234375,0.64453125 76.3085937,0.64453125 C43.3828125,0.64453125 26.5429687,29.3183594 15.6425781,49.3496094 C4.7421875,69.3808594 -5.85742188,101.248047 4.89257812,144.212891 C15.6425781,187.177734 77.7519531,184.220703 94.578125,176.578125 C111.404297,168.935547 132.275391,156.271484 132.275391,124.458984 C132.275391,103.250651 123.236328,86.921875 105.158203,75.4726562 Z" id="path-14"></path>
        <linearGradient x1="77.7423631%" y1="24.9855557%" x2="12.3795322%" y2="83.7965306%" id="linearGradient-16">
            <stop stop-color="#555555" offset="0%"></stop>
            <stop stop-color="#1B1B1B" offset="100%"></stop>
        </linearGradient>
        <linearGradient x1="8.56995728%" y1="97.6336705%" x2="83.6629071%" y2="1.56475795%" id="linearGradient-17">
            <stop stop-color="#CACACA" offset="0%"></stop>
            <stop stop-color="#F2F2F2" offset="100%"></stop>
        </linearGradient>
        <linearGradient x1="108.957336%" y1="-51.5761566%" x2="0%" y2="90.0449005%" id="linearGradient-18">
            <stop stop-color="#F5EA95" offset="0%"></stop>
            <stop stop-color="#EFDB71" offset="100%"></stop>
        </linearGradient>
        <path d="M0.98046875,5.26757813 C3.22265625,14.1542969 7.25585938,38.2568359 17.4785156,40.8291016 C27.7011719,43.4013672 39.1445313,43.8994141 39.1445313,40.8291016 C39.1445313,38.7822266 36.2128906,36.8854167 30.3496094,35.1386719 C32.3535156,25.7877604 32.3535156,17.7994792 30.3496094,11.1738281 C27.34375,1.23535156 -1.26171875,-3.61914063 0.98046875,5.26757813 Z" id="path-19"></path>
        <radialGradient cx="63.5504782%" cy="37.2808642%" fx="63.5504782%" fy="37.2808642%" r="104.862751%" gradientTransform="translate(0.635505,0.372809),scale(1.000000,0.620899),rotate(90.000000),scale(1.000000,0.638062),translate(-0.635505,-0.372809)" id="radialGradient-21">
            <stop stop-color="#555555" offset="0%"></stop>
            <stop stop-color="#1B1B1B" offset="100%"></stop>
        </radialGradient>
        <linearGradient x1="100%" y1="35.1605018%" x2="9.41181663%" y2="85.3458379%" id="linearGradient-22">
            <stop stop-color="#555555" offset="0%"></stop>
            <stop stop-color="#1B1B1B" offset="100%"></stop>
        </linearGradient>
        <radialGradient cx="76.0316474%" cy="6.1538362%" fx="76.0316474%" fy="6.1538362%" r="194.803402%" id="radialGradient-23">
            <stop stop-color="#555555" offset="0%"></stop>
            <stop stop-color="#1B1B1B" offset="100%"></stop>
        </radialGradient>
        <linearGradient x1="59.916838%" y1="-153.081959%" x2="50%" y2="148.950656%" id="linearGradient-24">
            <stop stop-color="#555555" offset="0%"></stop>
            <stop stop-color="#1B1B1B" offset="100%"></stop>
        </linearGradient>
        <filter x="-6.4%" y="-5.8%" width="111.8%" height="111.5%" filterUnits="objectBoundingBox" id="filter-25">
            <feOffset dx="0" dy="0" in="SourceAlpha" result="shadowOffsetOuter1"></feOffset>
            <feGaussianBlur stdDeviation="2" in="shadowOffsetOuter1" result="shadowBlurOuter1"></feGaussianBlur>
            <feColorMatrix values="0 0 0 0 1   0 0 0 0 0.360784314   0 0 0 0 0.364705882  0 0 0 1 0" type="matrix" in="shadowBlurOuter1" result="shadowMatrixOuter1"></feColorMatrix>
            <feMerge>
                <feMergeNode in="shadowMatrixOuter1"></feMergeNode>
                <feMergeNode in="SourceGraphic"></feMergeNode>
            </feMerge>
        </filter>
        <path d="M26.8104289,20.1447005 L83.9629296,7.74386719 C84.9493188,7.52984246 85.7489452,8.25177165 85.7489452,9.35634115 L85.7489452,88.3563411 C85.7489452,89.4609106 84.9493188,90.5298425 83.9629296,90.7438672 L26.8104289,103.144701 C25.8240397,103.358725 25.0244133,102.636796 25.0244133,101.532227 L25.0244133,22.5322266 C25.0244133,21.4276571 25.8240397,20.3587252 26.8104289,20.1447005 Z" id="path-26"></path>
    </defs>
    <g id="Icon-Character-Swarm" stroke="none" stroke-width="1" fill="none" fill-rule="evenodd">
        <g id="Swarm" filter="url(#filter-1)" opacity="0.5" transform="translate(10.000000, 51.000000)">
            <polygon id="Polygon-2" stroke="#47BD8F" stroke-width="2" fill-opacity="0.15" fill="#47BD8F" points="43.869318 14.096946 87.7069335 36.9015486 87.7069335 95.9015486 43.869318 132.096946 0.0317024268 109.292343 0.0317024268 50.2923434"></polygon>
            <path d="M47.8998472,54.040344 C46.3742349,53.0924582 44.7462172,51.8252969 43.3251547,50.4312405 C41.7955858,52.3707747 39.9323871,54.3094034 38.4098522,55.6659257 C34.7771755,58.9025993 30.5733373,61.2087255 26.3326605,61.307607 C25.9755852,66.7148313 26.2329098,72.293556 27.2133568,77.2928278 C29.261072,87.7338754 34.3045652,94.8496013 43.5318444,96.3839991 C52.731831,91.5058023 57.7597849,82.593594 59.6660488,71.3642123 C60.446535,66.7662754 60.7515435,61.0222908 60.3698143,56.1580869 C55.9761635,57.5027759 51.617793,56.3503478 47.8998472,54.040344 Z" id="Combined-Shape" stroke="#FFFFFF" stroke-width="2" fill-opacity="0.1" fill="#47BD8F"></path>
            <path d="M44.3713709,79.4079158 L42.5861959,79.6805688 L42.9990038,76.7305981 C42.5763635,76.5848041 42.2886667,76.144548 42.2886667,75.5645433 C42.2886667,74.7842682 42.8093428,74.0978637 43.4787834,73.9956188 C44.148224,73.893374 44.6689001,74.4640795 44.6689001,75.201006 C44.6689001,75.7810107 44.3812032,76.3091477 43.958563,76.5840429 L44.3713709,79.4079158 Z M38.1604495,72.1421392 L38.1604495,69.9528519 C38.1604495,66.5283109 40.5406828,63.3904619 43.4787834,62.9417205 C46.4168839,62.4929792 48.7971173,64.9037536 48.7971173,68.3282947 L48.7971173,70.5175819 C49.501216,70.6905617 50.0244251,71.4010428 50.0244251,72.3023133 L50.0244251,80.6252485 C50.0244251,81.7956613 49.2062199,82.8309482 48.2392501,82.9786353 L38.7183167,84.4327844 C37.7513469,84.5804715 36.9331417,83.7517678 36.9331417,82.6247036 L36.9331417,74.3017685 C36.9331417,73.4004979 37.4563508,72.5301955 38.1604495,72.1421392 Z M39.2761839,71.8631776 L47.6813829,70.5794366 L47.6813829,68.4987028 C47.6813829,65.8110883 45.7846345,63.8900024 43.4787834,64.2421792 C41.1729323,64.5943559 39.2761839,67.0948294 39.2761839,69.7824438 L39.2761839,71.8631776 Z M38.7183167,73.3355375 C38.3835964,73.38666 38.1232583,73.7298622 38.1232583,74.1199998 L38.1232583,82.442935 C38.1232583,82.8330726 38.3835964,83.096751 38.7183167,83.0456286 L48.2392501,81.5914794 C48.5739704,81.540357 48.8343084,81.1971547 48.8343084,80.8070171 L48.8343084,72.484082 C48.8343084,72.0939444 48.5739704,71.8302659 48.2392501,71.8813884 L38.7183167,73.3355375 Z" id="Lock-Icon" fill="#FFFFFF" fill-rule="nonzero"></path>
            <polygon id="Polygon-2-Copy" stroke="#47BD8F" stroke-width="2" fill-opacity="0.15" fill="#47BD8F" points="131.380682 0.731178977 175.218297 23.5357816 175.218297 82.5357816 131.380682 118.731179 87.5430662 95.9265764 87.5430662 36.9265764"></polygon>
            <path d="M136.266011,40.5440219 C134.740398,39.5961361 133.112381,38.3289748 131.691318,36.9349184 C130.161749,38.8744526 128.298551,40.8130813 126.776016,42.1696036 C123.143339,45.4062772 118.939501,47.7124034 114.698824,47.8112849 C114.341749,53.2185092 114.599073,58.7972338 115.57952,63.7965057 C117.627235,74.2375533 122.670729,81.3532792 131.898008,82.887677 C141.097994,78.0094802 146.125948,69.0972718 148.032212,57.8678902 C148.812698,53.2699533 149.117707,47.5259687 148.735978,42.6617648 C144.342327,44.0064538 139.983956,42.8540256 136.266011,40.5440219 Z" id="Combined-Shape-Copy" stroke="#FFFFFF" stroke-width="2" fill-opacity="0.1" fill="#47BD8F"></path>
            <path d="M132.269988,65.9830028 L130.484813,66.2556557 L130.897621,63.3056851 C130.474981,63.1598911 130.187284,62.719635 130.187284,62.1396303 C130.187284,61.3593551 130.70796,60.6729507 131.377401,60.5707058 C132.046842,60.4684609 132.567518,61.0391665 132.567518,61.776093 C132.567518,62.3560977 132.279821,62.8842347 131.857181,63.1591299 L132.269988,65.9830028 Z M126.059067,58.7172262 L126.059067,56.5279389 C126.059067,53.1033979 128.4393,49.9655489 131.377401,49.5168075 C134.315501,49.0680662 136.695735,51.4788406 136.695735,54.9033816 L136.695735,57.0926689 C137.399834,57.2656487 137.923043,57.9761298 137.923043,58.8774003 L137.923043,67.2003355 C137.923043,68.3707482 137.104837,69.4060352 136.137868,69.5537223 L126.616934,71.0078714 C125.649964,71.1555585 124.831759,70.3268548 124.831759,69.1997906 L124.831759,60.8768554 C124.831759,59.9755849 125.354968,59.1052825 126.059067,58.7172262 Z M127.174801,58.4382646 L135.58,57.1545235 L135.58,55.0737898 C135.58,52.3861753 133.683252,50.4650894 131.377401,50.8172662 C129.07155,51.1694429 127.174801,53.6699164 127.174801,56.3575308 L127.174801,58.4382646 Z M126.616934,59.9106245 C126.282214,59.961747 126.021876,60.3049492 126.021876,60.6950868 L126.021876,69.018022 C126.021876,69.4081596 126.282214,69.671838 126.616934,69.6207156 L136.137868,68.1665664 C136.472588,68.115444 136.732926,67.7722417 136.732926,67.3821041 L136.732926,59.059169 C136.732926,58.6690314 136.472588,58.4053529 136.137868,58.4564754 L126.616934,59.9106245 Z" id="Lock-Icon-Copy" fill="#FFFFFF" fill-rule="nonzero"></path>
            <polygon id="Polygon-2-Copy-2" stroke="#47BD8F" stroke-width="2" fill-opacity="0.15" fill="#47BD8F" points="87.6249999 96.4140625 131.462615 119.218665 131.462615 178.218665 87.6249999 214.414062 43.7873843 191.60946 43.7873843 132.60946"></polygon>
            <path d="M92.1861687,137.025231 C90.6605564,136.077346 89.0325387,134.810184 87.6114762,133.416128 C86.0819074,135.355662 84.2187086,137.294291 82.6961738,138.650813 C79.063497,141.887487 74.8596589,144.193613 70.618982,144.292495 C70.2619068,149.699719 70.5192313,155.278443 71.4996783,160.277715 C73.5473935,170.718763 78.5908868,177.834489 87.8181659,179.368887 C97.0181525,174.49069 102.046106,165.578481 103.95237,154.3491 C104.732857,149.751163 105.037865,144.007178 104.656136,139.142974 C100.262485,140.487663 95.9041146,139.335235 92.1861687,137.025231 Z" id="Combined-Shape-Copy-2" stroke="#FFFFFF" stroke-width="2" fill-opacity="0.1" fill="#47BD8F"></path>
            <path d="M88.1995927,161.928826 L86.4144177,162.201479 L86.8272256,159.251508 C86.4045854,159.105714 86.1168885,158.665458 86.1168885,158.085453 C86.1168885,157.305178 86.6375646,156.618774 87.3070052,156.516529 C87.9764458,156.414284 88.4971219,156.984989 88.4971219,157.721916 C88.4971219,158.301921 88.2094251,158.830058 87.7867848,159.104953 L88.1995927,161.928826 Z M81.9886713,154.663049 L81.9886713,152.473762 C81.9886713,149.049221 84.3689047,145.911372 87.3070052,145.46263 C90.2451058,145.013889 92.6253391,147.424663 92.6253391,150.849205 L92.6253391,153.038492 C93.3294378,153.211472 93.8526469,153.921953 93.8526469,154.823223 L93.8526469,163.146158 C93.8526469,164.316571 93.0344417,165.351858 92.0674719,165.499545 L82.5465385,166.953694 C81.5795687,167.101381 80.7613635,166.272678 80.7613635,165.145613 L80.7613635,156.822678 C80.7613635,155.921408 81.2845726,155.051105 81.9886713,154.663049 Z M83.1044057,154.384087 L91.5096047,153.100346 L91.5096047,151.019613 C91.5096047,148.331998 89.6128563,146.410912 87.3070052,146.763089 C85.0011541,147.115266 83.1044057,149.615739 83.1044057,152.303354 L83.1044057,154.384087 Z M82.5465385,155.856447 C82.2118182,155.90757 81.9514802,156.250772 81.9514802,156.64091 L81.9514802,164.963845 C81.9514802,165.353982 82.2118182,165.617661 82.5465385,165.566538 L92.0674719,164.112389 C92.4021922,164.061267 92.6625303,163.718065 92.6625303,163.327927 L92.6625303,155.004992 C92.6625303,154.614854 92.4021922,154.351176 92.0674719,154.402298 L82.5465385,155.856447 Z" id="Lock-Icon-Copy-2" fill="#FFFFFF" fill-rule="nonzero"></path>
        </g>
        <g id="Character-Illustration" transform="translate(116.000000, 87.000000)">
            <ellipse id="Shade" fill-opacity="0.05" fill="#000000" style="mix-blend-mode: multiply;" cx="97" cy="203" rx="92" ry="14"></ellipse>
            <g id="Leg-Back" transform="translate(112.000000, 163.000000)">
                <mask id="mask-4" fill="white">
                    <use xlink:href="#path-3"></use>
                </mask>
                <use fill="url(#linearGradient-2)" xlink:href="#path-3"></use>
                <path d="M10.4177284,33.0681531 C12.0407163,35.345426 13.9221101,36.9745164 16.1133257,37.5258788 C25.496437,39.8868948 36,40.3440391 36,37.5258788 C35.046875,39.1635742 16.1133257,38.3642578 10.4177284,33.0681531 Z" id="Leg-Shade" fill-opacity="0.1" fill="#000000" style="mix-blend-mode: multiply;" mask="url(#mask-4)"></path>
            </g>
            <g id="Butt" transform="translate(0.000000, 94.000000)">
                <polygon id="Triangle" fill="url(#linearGradient-5)" transform="translate(11.628124, 17.161889) rotate(-57.000000) translate(-11.628124, -17.161889) " points="11.6281238 11.6618894 23.6281238 22.6618894 -0.371876168 22.6618894"></polygon>
                <polygon id="Triangle-Copy" fill-opacity="0.1" fill="#FFFFFF" style="mix-blend-mode: lighten;" transform="translate(13.440335, 14.166375) rotate(-57.000000) translate(-13.440335, -14.166375) " points="9.94108407 8.77800073 16.939586 19.5547487 14.5805734 19.508924"></polygon>
                <polygon id="Triangle-Copy-2" fill-opacity="0.1" fill="#FFFFFF" style="mix-blend-mode: lighten;" transform="translate(11.943753, 15.945736) rotate(-57.000000) translate(-11.943753, -15.945736) " points="10.7518971 10.8433918 13.1356089 21.0480806 12.0909318 20.8514422"></polygon>
                <mask id="mask-8" fill="white">
                    <use xlink:href="#path-7"></use>
                </mask>
                <use fill="url(#linearGradient-6)" xlink:href="#path-7"></use>
                <path d="M20.1020074,69.4682165 C17.605189,66.4306568 15.5352889,63.3841114 13.8564639,60.358958 C13.8564639,35.1123513 30.9003906,7.06054688 52.0245773,0.756486058 C55.7760529,1.26339208 59.8765891,2.24097976 64.3765005,3.77739269 C32.2431641,14.1826172 22.1010742,43.5756836 20.1020074,69.4682165 Z" id="Path-4-Copy" fill="url(#linearGradient-5)" mask="url(#mask-8)"></path>
                <path d="M36.659373,83.529619 C33.4527489,81.6172585 30.4587085,79.5318464 27.7499188,77.2661301 C25.4477539,38.9506836 51.8922111,8.47993432 67.6000256,4.94824219 C70.5437239,6.07979838 73.3964132,7.25831715 76.1586638,8.47993432 C51.8922111,21.7363281 33.6928711,50.8598633 36.659373,83.529619 Z" id="Path-4-Copy-2" fill="url(#linearGradient-5)" mask="url(#mask-8)"></path>
                <mask id="mask-10" fill="white">
                    <use xlink:href="#path-9"></use>
                </mask>
                <use id="Path-4-Copy-3" fill-opacity="0.05" fill="#000000" style="mix-blend-mode: multiply;" xlink:href="#path-9"></use>
            </g>
            <g id="Wings" transform="translate(25.000000, 49.000000)" fill="#96CCE5" fill-opacity="0.5">
                <ellipse id="Oval" transform="translate(26.868353, 20.000000) rotate(12.000000) translate(-26.868353, -20.000000) " cx="26.8683531" cy="20" rx="12.4387436" ry="17.8028753"></ellipse>
                <ellipse id="Oval" transform="translate(15.868353, 21.000000) rotate(12.000000) translate(-15.868353, -21.000000) " cx="15.8683531" cy="21" rx="12.4387436" ry="17.8028753"></ellipse>
            </g>
            <g id="Antenna-Back" transform="translate(132.000000, 4.000000)">
                <path d="M16.6469674,2.23219854 C17.2954102,2.96826172 8.14132261,9.96557577 6.45945574,16.709095 C4.77758888,23.4526142 -1.86560689,22.6865889 1.98815115,15.6412076 C5.84190919,8.5958263 15.9985247,1.49613537 16.6469674,2.23219854 Z" id="Path-5" fill="url(#linearGradient-5)"></path>
                <circle id="Oval-2" fill="url(#radialGradient-11)" cx="16.5" cy="2.5" r="2.5"></circle>
            </g>
            <g id="Hand-3" transform="translate(132.000000, 85.000000)">
                <path d="M26.0195312,22.2373047 C31.4964193,14.819987 37.957194,10.5266927 45.4018555,9.35742187 C52.8465169,8.18815104 54.1425781,6.98046875 49.2900391,5.734375 C58.5234375,4.109375 58.5234375,2.63037109 49.2900391,1.29736328 C40.0566406,-0.0356445313 28.3548177,1.44335937 14.1845703,5.734375 L26.0195312,22.2373047 Z" id="Path-8" fill="url(#linearGradient-12)"></path>
                <path d="M5.7327386,5.73064864 C8.33574683,4.54689548 18.5939084,3.78271484 24.9150391,2.40771484 C24.9150391,2.40771484 27.8304036,8.48925781 33.6611328,20.6523437 C27.8304036,26.2057292 21.5315755,29.6077474 14.7646484,30.8583984 C3.04279779,33.0248094 -5.40332031,10.7949219 5.7327386,5.73064864 Z" id="Path-9" fill="url(#linearGradient-13)"></path>
            </g>
            <g id="Hand-4" transform="translate(159.959136, 130.882542) rotate(13.000000) translate(-159.959136, -130.882542) translate(133.459136, 112.382542)">
                <path d="M27.3246358,28.041744 C31.6166571,20.0930009 37.4849984,15.533994 44.9296599,14.3647231 C52.3743214,13.1954523 53.5200777,11.5436206 48.3669289,9.40922816 C54.6378608,0.287972116 53.6728696,-1.49688434 45.4719553,4.05465881 C41.8997767,6.47281647 31.1629449,8.25767292 13.2614601,9.40922816 L27.3246358,28.041744 Z" id="Path-8" fill="url(#linearGradient-12)"></path>
                <path d="M7.7327386,8.73064864 C10.3357468,7.54689548 20.5939084,6.78271484 26.9150391,5.40771484 C26.9150391,5.40771484 29.8304036,11.4892578 35.6611328,23.6523437 C29.8304036,29.2057292 23.5315755,32.6077474 16.7646484,33.8583984 C5.04279779,36.0248094 -3.40332031,13.7949219 7.7327386,8.73064864 Z" id="Path-9" fill="url(#linearGradient-13)" transform="translate(19.090329, 19.707130) rotate(10.000000) translate(-19.090329, -19.707130) "></path>
            </g>
            <g id="Body" transform="translate(39.000000, 14.000000)">
                <mask id="mask-15" fill="white">
                    <use xlink:href="#path-14"></use>
                </mask>
                <use fill="url(#linearGradient-2)" xlink:href="#path-14"></use>
                <path d="M31.2602477,174.37533 C53.8797944,184.50314 83.697191,181.52033 94.578125,176.578125 C72.090332,179.980957 47.3583984,177.702523 31.2602477,174.37533 Z" id="Body-Shade" fill-opacity="0.05" fill="#000000" style="mix-blend-mode: multiply;" mask="url(#mask-15)"></path>
                <path d="M95.3289077,18.4673443 C97.5888515,16.8846968 96.9651113,12.5299234 93.9357451,8.9340061 C90.9063789,5.46829361 86.618546,4.0771021 84.3586022,5.63337248 C82.0986584,7.1063118 82.7223986,10.9745459 85.7517648,14.4666355 C88.781131,18.0889299 93.068964,19.9666607 95.3289077,18.4673443 Z" id="Oval-6" fill-opacity="0.3" fill="#FFFFFF" style="mix-blend-mode: overlay;" mask="url(#mask-15)"></path>
                <path d="M99.5459768,26.0283171 C100.428519,25.4102695 100.184939,23.7096654 99.001926,22.3054059 C97.8189132,20.9519933 96.1444503,20.4087122 95.2619084,21.0164591 C94.3793666,21.5916639 94.6229464,23.1022672 95.8059592,24.4659804 C96.9889721,25.8805406 98.663435,26.6138226 99.5459768,26.0283171 Z" id="Oval-6-Copy" fill-opacity="0.3" fill="#FFFFFF" style="mix-blend-mode: overlay;" mask="url(#mask-15)" transform="translate(97.403943, 23.500000) rotate(14.000000) translate(-97.403943, -23.500000) "></path>
                <path d="M105.158203,75.4726563 C87.9511719,91.2910156 38.7509766,75.4726563 15.6425781,49.3496094 C7.40771183,64.4825226 -0.655490254,86.3705337 0.528489246,114.695322 C15.6425781,147.433594 118.55957,167.189453 130.578262,139.13292 C131.668499,134.75171 132.275391,129.883746 132.275391,124.458984 C132.275391,88.2539062 105.158203,75.4726562 105.158203,75.4726563 Z" id="Tee" stroke="url(#linearGradient-5)" stroke-width="0.5" fill="url(#linearGradient-16)" mask="url(#mask-15)"></path>
                <path d="M94.1930864,93.4854435 C94.2452468,93.6842169 94.2896421,93.8865133 94.3235582,94.093334 C94.4505194,94.8688648 94.4344809,95.6314628 94.2962452,96.354552 C91.1937211,95.2476114 88.7304336,92.2760144 88.1360114,88.5045165 C87.9547463,87.3633838 87.9588836,86.2542401 88.12326,85.2149852 C88.9754403,85.2634633 89.8126269,85.4425476 90.6146863,85.7324388 C90.4617476,86.5271245 90.4438009,87.3819883 90.5873335,88.2636536 C90.9632189,90.5847491 92.3616499,92.493308 94.1930864,93.4854435 Z M91.1323568,88.2101285 C91.0032043,87.4212074 91.0159048,86.6552507 91.1496298,85.941771 C94.2498843,87.229411 96.7315429,90.1155591 97.3359312,93.6572563 C98.1782501,98.6694122 94.907808,103.581665 90.0618318,104.629185 L89.6513932,101.900125 C93.1291992,101.21734 95.4726989,97.6865796 94.8709118,94.0140471 C94.4960649,91.7500203 93.093368,89.8712849 91.2625606,88.828099 C91.2103764,88.6257843 91.1666223,88.4197831 91.1323568,88.2101285 Z M99.7603194,96.9414704 C100.58805,96.6791694 101.360008,96.3108403 102.062925,95.8564881 C103.466831,97.7373831 105.872947,98.7297764 108.369631,98.2450365 L108.809156,100.59871 C105.158044,101.379044 101.654472,99.8503412 99.7603194,96.9414704 Z M105.49858,86.2932184 C102.631392,86.8210624 100.697794,89.2984853 100.806018,92.2340899 C100.144593,92.8144134 99.3379498,93.248074 98.4283778,93.4709741 C97.6470008,88.8804959 100.32921,84.8391494 104.551788,84 C104.968844,84.7156774 105.290048,85.4847858 105.49858,86.2932184 Z M97.9804236,94.1427175 C101.162507,93.6688982 103.372941,90.9660387 103.249616,87.9153835 C103.906851,87.3765112 104.709631,86.9924229 105.617863,86.8172235 C106.497561,91.4510256 103.264057,95.8657248 98.4112692,96.6840837 C98.2450594,96.7121556 98.0793012,96.7347502 97.9139302,96.7530709 C98.043319,95.9067347 98.0638651,95.032031 97.9804236,94.1427175 Z" id="Modus-Icon" fill="url(#linearGradient-17)" mask="url(#mask-15)" transform="translate(98.404578, 94.314593) rotate(-7.000000) translate(-98.404578, -94.314593) "></path>
            </g>
            <g id="Leg-Front" transform="translate(61.000000, 162.000000)">
                <mask id="mask-20" fill="white">
                    <use xlink:href="#path-19"></use>
                </mask>
                <use fill="url(#linearGradient-18)" xlink:href="#path-19"></use>
                <path d="M10.8602974,35.3727437 C12.7203947,38.1663839 14.9030215,40.1810454 17.4785156,40.8291016 C27.7011719,43.4013672 39.1445313,43.8994141 39.1445313,40.8291016 C37.7939453,42.7836914 14.9030215,40.8291016 10.8602974,35.3727437 Z" id="Leg-Shade" fill-opacity="0.1" fill="#000000" style="mix-blend-mode: multiply;" mask="url(#mask-20)"></path>
            </g>
            <g id="Face" transform="translate(105.000000, 35.000000)">
                <ellipse id="Eye-1" fill="url(#radialGradient-21)" cx="7.35059656" cy="19.7857946" rx="2.35059656" ry="3.78579463"></ellipse>
                <path d="M1.95977739,3.55772987 C1.26097755,4.3212376 0.735995955,5.37365723 0.219394393,5.07055664 C-0.29720717,4.76745605 0.142065242,4.01219352 1.08135942,2.89080675 C2.93926958,0.672720101 5.97735551,-1.05115685 9.86505083,0.754507211 C11.6207656,1.56995977 12.5128514,2.57873535 11.9380223,2.89080675 C11.3631932,3.20287814 10.2696538,2.34032164 9.3450313,2.04166844 C7.65896959,1.49707031 4.52542467,0.754507211 1.95977739,3.55772987 Z" id="Brow-1" fill="url(#linearGradient-22)" fill-rule="nonzero"></path>
                <ellipse id="Eye-2" fill="url(#radialGradient-21)" cx="44.3505966" cy="23.7857946" rx="2.35059656" ry="3.78579463"></ellipse>
                <path d="M40.8709671,16.0776012 C40.1721673,16.8411089 39.1690321,18.171461 38.6524306,17.8683604 C38.135829,17.5652599 38.5751014,16.8099973 39.5143956,15.6886105 C41.3723058,13.4705239 44.4103917,11.746647 48.298087,13.552311 C50.0538018,14.3677636 50.9903289,15.6354037 50.6293864,15.5319051 C50.2684439,15.4284065 48.9948344,14.6456595 48.0702118,14.3470063 C46.3841501,13.8024082 43.4366144,13.2743785 40.8709671,16.0776012 Z" id="Brow-2" fill="url(#linearGradient-22)" fill-rule="nonzero" transform="translate(44.569535, 15.355146) rotate(-16.000000) translate(-44.569535, -15.355146) "></path>
                <path d="M23.4063123,32.8633552 C22.9017684,33.5580641 21.9392566,35.3248225 21.2356417,34.8875383 C20.5320268,34.450254 21.2839812,32.2005514 21.6296525,31.4795162 C24.1288535,26.2664363 29.2472288,24.4767086 33.370559,27.5857325 C34.6455342,28.5470739 35.6055627,29.2897522 35.1424531,29.9766445 C34.6793435,30.6635368 33.5407874,29.8151246 32.6460515,29.4814594 C29.6374299,28.3594832 25.9246694,29.3958171 23.4063123,32.8633552 Z" id="Mouth-Upset" fill="url(#linearGradient-5)" fill-rule="nonzero" transform="translate(28.102946, 30.505597) rotate(24.000000) translate(-28.102946, -30.505597) "></path>
            </g>
            <g id="Antenna-Front" transform="translate(109.000000, 0.000000)">
                <path d="M18.328125,2.53955078 C19.2104492,3.46484375 9.01367188,11.0083008 7.171875,18.3930664 C5.33007813,25.777832 -1.94482422,24.9389648 2.27539063,17.2236328 C6.49560547,9.50830078 17.4458008,1.61425781 18.328125,2.53955078 Z" id="Path-5" fill="url(#linearGradient-5)"></path>
                <circle id="Oval-2" fill="url(#radialGradient-23)" cx="18" cy="3" r="3"></circle>
            </g>
            <g id="Hand-1" transform="translate(79.000000, 73.000000)">
                <path d="M11.0990287,18.7815584 C22.7964879,14.9315892 30.8253273,10.6892989 35.1855469,6.0546875 C39.5457665,1.42007607 40.9718732,2.20620888 39.4638672,8.41308594 C47.1456486,-0.470911825 48.8230574,0.938593384 44.4960937,12.6416016 C40.1691301,24.3446097 32.1310529,31.0472379 20.3818623,32.749486 L11.0990287,18.7815584 Z" id="Path-8-Copy-2" fill-opacity="0.1" fill="#000000" style="mix-blend-mode: multiply;"></path>
                <path d="M11.0990287,18.7815584 C22.228674,14.1859923 29.9736064,9.57090358 34.333826,4.93629215 C38.6940456,0.301680715 40.1580448,1.06196032 38.7258235,7.21713096 C46.2364865,-2.3867164 47.8283361,-1.33713599 43.5013725,10.3658722 C39.1744088,22.0688804 31.4679054,29.530085 20.3818623,32.749486 L11.0990287,18.7815584 Z" id="Path-8" fill="url(#linearGradient-12)"></path>
                <path d="M4.7327386,17.7306486 C6.65429687,16.5302734 13.2802734,16.5302734 19.3696289,14.1391602 C19.3696289,14.1391602 23.6191406,19.882487 32.1181641,31.3691406 C29.0989794,36.3305919 24.2575608,40.1637111 17.5939084,42.8684981 C4.7327386,48.0888672 -6.76770667,24.9148436 4.7327386,17.7306486 Z" id="Path-9" fill="url(#linearGradient-13)"></path>
            </g>
            <g id="Hand-2" transform="translate(94.890018, 136.390774) rotate(-26.000000) translate(-94.890018, -136.390774) translate(62.390018, 105.890774)">
                <g id="Phone" transform="translate(47.569635, 41.711856) rotate(34.000000) translate(-47.569635, -41.711856) translate(38.569635, 25.211856)">
                    <rect id="Rectangle-2-Copy" fill-opacity="0.1" fill="#000000" style="mix-blend-mode: multiply;" x="1.26861427" y="1.84136304" width="16" height="31" rx="2"></rect>
                    <rect id="Rectangle-2" stroke="#EBEBEB" stroke-width="0.2" fill="#EBEBEB" x="0" y="0" width="16" height="31" rx="2"></rect>
                    <circle id="Oval-5" fill="#B4B4B4" cx="3.27031345" cy="3.21532937" r="1.5"></circle>
                </g>
                <path d="M11.2378742,31.0011755 C22.4773941,26.4056094 30.2987863,21.7905207 34.7020511,17.1559092 C34.7020511,17.1559092 35.8354245,18.1785683 38.1021713,20.2238865 C47.0801341,11.4326208 49.3842753,12.888492 45.0145948,24.5915002 C40.6449143,36.2945084 32.5108328,43.0870427 20.6123502,44.9691031 L11.2378742,31.0011755 Z" id="Path-8-Copy-3" fill-opacity="0.1" fill="#000000" style="mix-blend-mode: multiply;" transform="translate(29.199127, 29.768155) rotate(81.000000) translate(-29.199127, -29.768155) "></path>
                <path d="M12.319731,31.1264361 C23.5592508,26.53087 31.3806431,21.9157813 35.7839079,17.2811699 C35.7839079,17.2811699 36.9172813,18.3038289 39.184028,20.3491471 C47.4589956,10.2205408 49.4116391,11.0077417 45.0419585,22.7107499 C40.672278,34.4137581 32.8896942,41.8749627 21.694207,45.0943637 L12.319731,31.1264361 Z" id="Path-8-Copy" fill="url(#linearGradient-2)" transform="translate(29.813386, 29.197440) rotate(81.000000) translate(-29.813386, -29.197440) "></path>
                <path d="M7.12210136,8.1975953 C10.2430511,7.05563306 15.752728,8.03624096 21.9483902,4.83222019 C21.9483902,4.83222019 26.2831004,11.3406101 34.9525207,24.3573899 C31.6521154,27.3672082 26.7046884,30.3598931 20.1102397,33.3354448 C9.66295022,36.7752639 -9.53324026,14.2918207 7.12210136,8.1975953 Z" id="Path-9-Copy" fill="url(#linearGradient-24)" transform="translate(17.768583, 19.261739) rotate(81.000000) translate(-17.768583, -19.261739) "></path>
            </g>
            <g id="Interface" filter="url(#filter-25)" transform="translate(121.000000, 56.000000)">
                <g id="Rectangle-5-Copy-2">
                    <use fill-opacity="0.15" fill="#FF5C5D" fill-rule="evenodd" style="mix-blend-mode: overlay;" xlink:href="#path-26"></use>
                    <path stroke-opacity="0.5" stroke="#FF5C5D" stroke-width="1" d="M26.9164509,20.6333306 C26.1677241,20.7957878 25.5244133,21.6557586 25.5244133,22.5322266 L25.5244133,101.532227 C25.5244133,102.330761 26.0435565,102.79946 26.704407,102.65607 L83.8569076,90.2552371 C84.6056344,90.0927799 85.2489452,89.2328091 85.2489452,88.3563411 L85.2489452,9.35634115 C85.2489452,8.55780688 84.7298021,8.08910726 84.0689516,8.23249726 L26.9164509,20.6333306 Z" stroke-linejoin="square"></path>
                </g>
                <path d="M64.5808654,88.949348 L63.9494135,88.3825636 L68.9406112,81.736558 C68.0064371,80.7217461 67.4422849,79.2634153 67.4422849,77.5358153 C67.4422849,73.6879252 70.2409774,69.9613394 73.6933396,69.2122529 C77.1457018,68.4631664 79.9443944,70.975243 79.9443944,74.823133 C79.9443944,78.671023 77.1457018,82.3976088 73.6933396,83.1466953 C72.11241,83.4897222 70.6685529,83.1488927 69.5677463,82.3090904 L64.5808654,88.949348 Z M32.9233987,24.8183208 L33.5586333,25.3842845 L32.6057814,26.6467258 L33.5586333,27.4956713 L32.9233987,28.3372989 L31.9705468,27.4883533 L31.0176948,28.7507946 L30.3824602,28.1848309 L31.3353122,26.9223896 L30.3824602,26.0734441 L31.0176948,25.2318165 L31.9705468,26.0807621 L32.9233987,24.8183208 Z M80.3908983,27.3631815 L66.3868921,30.4017423 L73.3888952,15.4456781 L80.3908983,27.3631815 Z M73.3888952,17.4363128 L67.9428928,29.0688071 L78.8348976,26.7054821 L73.3888952,17.4363128 Z M72.9397165,20.5197266 L73.8380739,20.3248028 L73.8380739,24.2344101 L72.9397165,24.4293339 L72.9397165,20.5197266 Z M72.9397165,25.4963132 L73.8380739,25.3013894 L73.8380739,26.8751243 L72.9397165,27.070048 L72.9397165,25.4963132 Z M54.4936714,24.1099508 L54.4936714,23.1146335 L64.6863141,20.9030546 L64.6863141,21.8983719 L54.4936714,24.1099508 Z M54.078683,27.33567 L54.078683,26.3403527 L64.2713257,24.1287738 L64.2713257,25.1240912 L54.078683,27.33567 Z M58.5713474,29.3468128 L58.5713474,28.3514955 L64.2713257,27.1147258 L64.2713257,28.1100431 L58.5713474,29.3468128 Z M33.9902467,78.5821556 L33.9902467,77.5868383 L52.1842046,73.6391503 L52.1842046,74.6344676 L33.9902467,78.5821556 Z M33.9902467,85.5821556 L33.9902467,84.5868383 L52.1842046,80.6391503 L52.1842046,81.6344676 L33.9902467,85.5821556 Z M33.9902467,92.5821556 L33.9902467,91.5868383 L52.1842046,87.6391503 L52.1842046,88.6344676 L33.9902467,92.5821556 Z M55.3866793,70.9442839 L58.0657027,70.3629948 C58.5588973,70.2559824 58.9587106,70.616947 58.9587106,71.1692318 L58.9587106,74.1692318 C58.9587106,74.7215165 58.5588973,75.2559824 58.0657027,75.3629948 L55.3866793,75.9442839 C54.8934847,76.0512962 54.4936714,75.6903316 54.4936714,75.1380469 L54.4936714,72.1380469 C54.4936714,71.5857621 54.8934847,71.0512962 55.3866793,70.9442839 Z M55.3866793,77.9442839 L58.0657027,77.3629948 C58.5588973,77.2559824 58.9587106,77.616947 58.9587106,78.1692318 L58.9587106,81.1692318 C58.9587106,81.7215165 58.5588973,82.2559824 58.0657027,82.3629948 L55.3866793,82.9442839 C54.8934847,83.0512962 54.4936714,82.6903316 54.4936714,82.1380469 L54.4936714,79.1380469 C54.4936714,78.5857621 54.8934847,78.0512962 55.3866793,77.9442839 Z M55.3866793,84.9442839 L58.0657027,84.3629948 C58.5588973,84.2559824 58.9587106,84.616947 58.9587106,85.1692318 L58.9587106,88.1692318 C58.9587106,88.7215165 58.5588973,89.2559824 58.0657027,89.3629948 L55.3866793,89.9442839 C54.8934847,90.0512962 54.4936714,89.6903316 54.4936714,89.1380469 L54.4936714,86.1380469 C54.4936714,85.5857621 54.8934847,85.0512962 55.3866793,84.9442839 Z M55.8331832,71.8474023 C55.5865859,71.9009085 55.3866793,72.1681415 55.3866793,72.4442839 L55.3866793,74.4442839 C55.3866793,74.7204262 55.5865859,74.9009085 55.8331832,74.8474023 L57.6191988,74.4598763 C57.8657961,74.4063701 58.0657027,74.1391372 58.0657027,73.8629948 L58.0657027,71.8629948 C58.0657027,71.5868524 57.8657961,71.4063701 57.6191988,71.4598763 L55.8331832,71.8474023 Z M55.8331832,78.8474023 C55.5865859,78.9009085 55.3866793,79.1681415 55.3866793,79.4442839 L55.3866793,81.4442839 C55.3866793,81.7204262 55.5865859,81.9009085 55.8331832,81.8474023 L57.6191988,81.4598763 C57.8657961,81.4063701 58.0657027,81.1391372 58.0657027,80.8629948 L58.0657027,78.8629948 C58.0657027,78.5868524 57.8657961,78.4063701 57.6191988,78.4598763 L55.8331832,78.8474023 Z M55.8331832,85.8474023 C55.5865859,85.9009085 55.3866793,86.1681415 55.3866793,86.4442839 L55.3866793,88.4442839 C55.3866793,88.7204262 55.5865859,88.9009085 55.8331832,88.8474023 L57.6191988,88.4598763 C57.8657961,88.4063701 58.0657027,88.1391372 58.0657027,87.8629948 L58.0657027,85.8629948 C58.0657027,85.5868524 57.8657961,85.4063701 57.6191988,85.4598763 L55.8331832,85.8474023 Z M73.6933396,82.151378 C76.6525072,81.5093038 79.0513866,78.3150874 79.0513866,75.016896 C79.0513866,71.7187045 76.6525072,69.5654961 73.6933396,70.2075702 C70.734172,70.8496444 68.3352927,74.0438608 68.3352927,77.3420522 C68.3352927,80.6402437 70.734172,82.7934522 73.6933396,82.151378 Z M66.995781,51.4253646 L78.6048827,48.9064453 L78.6048827,35.9064453 L66.995781,38.4253646 L66.995781,51.4253646 Z M66.549277,37.5222461 L79.0513866,34.8095638 C79.2979839,34.7560576 79.4978905,34.9365399 79.4978905,35.2126823 L79.4978905,49.2126823 C79.4978905,49.4888247 79.2979839,49.7560576 79.0513866,49.8095638 L66.549277,52.5222461 C66.3026797,52.5757523 66.1027731,52.39527 66.1027731,52.1191276 L66.1027731,38.1191276 C66.1027731,37.8429852 66.3026797,37.5757523 66.549277,37.5222461 Z M50.0286323,55.106862 L61.637734,52.5879427 L61.637734,39.5879427 L50.0286323,42.106862 L50.0286323,55.106862 Z M49.5821284,41.2037435 L62.0842379,38.4910612 C62.3308352,38.437555 62.5307418,38.6180373 62.5307418,38.8941797 L62.5307418,52.8941797 C62.5307418,53.1703221 62.3308352,53.437555 62.0842379,53.4910612 L49.5821284,56.2037435 C49.3355311,56.2572497 49.1356245,56.0767674 49.1356245,55.800625 L49.1356245,41.800625 C49.1356245,41.5244826 49.3355311,41.2572497 49.5821284,41.2037435 Z M34.8474993,58.4008333 L46.456601,55.8819141 L46.456601,42.8819141 L34.8474993,45.4008333 L34.8474993,58.4008333 Z M34.4009954,44.4977148 L46.9031049,41.7850326 C47.1497022,41.7315264 47.3496089,41.9120087 47.3496089,42.188151 L47.3496089,56.188151 C47.3496089,56.4642934 47.1497022,56.7315264 46.9031049,56.7850326 L34.4009954,59.4977148 C34.1543981,59.551221 33.9544915,59.3707387 33.9544915,59.0945964 L33.9544915,45.0945964 C33.9544915,44.818454 34.1543981,44.551221 34.4009954,44.4977148 Z M34.8474993,64.4008333 L34.8474993,69.4008333 L53.6006636,65.3318099 L53.6006636,60.3318099 L34.8474993,64.4008333 Z M34.4009954,63.4977148 L54.0471675,59.2349284 C54.2937648,59.1814222 54.4936714,59.3619045 54.4936714,59.6380469 L54.4936714,65.6380469 C54.4936714,65.9141892 54.2937648,66.1814222 54.0471675,66.2349284 L34.4009954,70.4977148 C34.1543981,70.551221 33.9544915,70.3707387 33.9544915,70.0945964 L33.9544915,64.0945964 C33.9544915,63.818454 34.1543981,63.551221 34.4009954,63.4977148 Z M59.8517184,58.9754688 L59.8517184,63.9754688 L78.6048827,59.9064453 L78.6048827,54.9064453 L59.8517184,58.9754688 Z M59.4052145,58.0723503 L79.0513866,53.8095638 C79.2979839,53.7560576 79.4978905,53.9365399 79.4978905,54.2126823 L79.4978905,60.2126823 C79.4978905,60.4888247 79.2979839,60.7560576 79.0513866,60.8095638 L59.4052145,65.0723503 C59.1586172,65.1258564 58.9587106,64.9453741 58.9587106,64.6692318 L58.9587106,58.6692318 C58.9587106,58.3930894 59.1586172,58.1258564 59.4052145,58.0723503 Z" id="Panel-Copy-2" fill-opacity="0.5" fill="#FFFFFF" fill-rule="nonzero" style="mix-blend-mode: overlay;"></path>
                <path d="M88.8744726,8.17817057 L87.9814648,8.37193359 C87.9814648,6.16279459 86.3822119,4.71893623 84.4094335,5.14698568 L84.4094335,4.14698568 C86.8754065,3.61192387 88.8744726,5.41674682 88.8744726,8.17817057 Z" id="Path" fill-opacity="0.5" fill="#FF5C5D" style="mix-blend-mode: overlay;"></path>
                <path d="M91.5534961,7.59688151 L90.6604883,7.79064453 C90.6604883,3.92465128 87.8617957,1.39789915 84.4094335,2.14698568 L84.4094335,1.14698568 C88.3549903,0.290886785 91.5534961,3.17860351 91.5534961,7.59688151 Z" id="Path" fill-opacity="0.5" fill="#FF5C5D" style="mix-blend-mode: overlay;"></path>
                <polyline id="Path-11" stroke-opacity="0.5" stroke="#FF5C5D" points="23.6367187 88.8068179 13.8180684 88.8068179 13.8180684 86 10.0859182 86 10.0859182 88.8068179 7 88.8068179"></polyline>
                <path d="M6.00488306,88.8068179 L4.41147575,88.8068179" id="Path-11-Copy" stroke-opacity="0.5" stroke="#FF5C5D"></path>
                <path d="M3.00488306,88.8068179 L1.41147575,88.8068179" id="Path-11-Copy-2" stroke-opacity="0.5" stroke="#FF5C5D"></path>
                <polyline id="Path-11-Copy-5" stroke-opacity="0.5" stroke="#FF5C5D" points="103.004883 28.8068179 99.8180684 28.8068179 96.8180684 26 93.0859182 26 90.0859182 28.8068179 86.6635742 28.8068179"></polyline>
                <path d="M109.004883,28.8068179 L107.411476,28.8068179" id="Path-11-Copy-4" stroke-opacity="0.5" stroke="#FF5C5D"></path>
                <path d="M106.004883,28.8068179 L104.411476,28.8068179" id="Path-11-Copy-3" stroke-opacity="0.5" stroke="#FF5C5D"></path>
                <path d="M3,70 C3,68.3431458 1.65685425,67 0,67" id="Oval-7" stroke-opacity="0.5" stroke="#FF5C5D"></path>
                <path d="M5,70 C5,67.2385763 2.76142375,65 0,65" id="Oval-7" stroke-opacity="0.5" stroke="#FF5C5D"></path>
            </g>
        </g>
    </g>
</svg>