<?xml version="1.0" encoding="UTF-8"?>
<svg width="400px" height="320px" viewBox="0 0 400 320" version="1.1" xmlns="http://www.w3.org/2000/svg" xmlns:xlink="http://www.w3.org/1999/xlink">
    <!-- Generator: Sketch 50.2 (55047) - http://www.bohemiancoding.com/sketch -->
    <title>Icon-Character-Swarm</title>
    <desc>Created with Sketch.</desc>
    <defs>
        <filter x="-5.5%" y="-5.4%" width="110.9%" height="111.3%" filterUnits="objectBoundingBox" id="filter-1">
            <feOffset dx="0" dy="0" in="SourceAlpha" result="shadowOffsetOuter1"></feOffset>
            <feGaussianBlur stdDeviation="4" in="shadowOffsetOuter1" result="shadowBlurOuter1"></feGaussianBlur>
            <feColorMatrix values="0 0 0 0 0.278431373   0 0 0 0 0.741176471   0 0 0 0 0.559709346  0 0 0 1 0" type="matrix" in="shadowBlurOuter1" result="shadowMatrixOuter1"></feColorMatrix>
            <feMerge>
                <feMergeNode in="shadowMatrixOuter1"></feMergeNode>
                <feMergeNode in="SourceGraphic"></feMergeNode>
            </feMerge>
        </filter>
        <linearGradient x1="83.4711648%" y1="11.9195273%" x2="0%" y2="90.0449005%" id="linearGradient-2">
            <stop stop-color="#F5EA95" offset="0%"></stop>
            <stop stop-color="#EFDB71" offset="100%"></stop>
        </linearGradient>
        <path d="M0.970195954,4.88487792 C3.02824176,13.0417668 6.7302144,35.1648628 16.1133257,37.5258788 C25.496437,39.8868948 36,40.3440391 36,37.5258788 C36,35.6471053 33.309123,33.9060726 27.9273691,32.3027808 C29.7667027,23.7198215 29.7667027,16.3875852 27.9273691,10.3060717 C25.1683687,1.18380164 -1.08784985,-3.27201095 0.970195954,4.88487792 Z" id="path-3"></path>
        <linearGradient x1="76.0316474%" y1="6.1538362%" x2="9.41181663%" y2="85.3458379%" id="linearGradient-5">
            <stop stop-color="#555555" offset="0%"></stop>
            <stop stop-color="#1B1B1B" offset="100%"></stop>
        </linearGradient>
        <linearGradient x1="54.3401357%" y1="23.5283124%" x2="23.4031873%" y2="79.7649499%" id="linearGradient-6">
            <stop stop-color="#F5EA95" offset="0%"></stop>
            <stop stop-color="#EFDB71" offset="100%"></stop>
        </linearGradient>
        <path d="M105.102539,100.883789 C81.3583984,100.883789 41.4980469,92.7382813 22.9375,72.7128906 C4.37695313,52.6875 5.05664063,31.7949219 14.6015625,18.828125 C24.1464844,5.86132813 37.2792969,-6.70703125 67.6000256,4.94824219 C97.9207543,16.6035156 118.585937,33.2412577 130.21875,50.6387186 C141.851562,68.0361795 128.84668,100.883789 105.102539,100.883789 Z" id="path-7"></path>
        <path d="M105.102539,100.883789 C81.3583984,100.883789 41.4980469,92.7382812 22.9375,72.7128906 C4.37695313,52.6875 5.05664063,31.7949219 14.6015625,18.828125 C-6.36328125,66.3632812 50.7783203,96.6445312 105.102539,100.883789 Z" id="path-9"></path>
        <radialGradient cx="76.0316474%" cy="6.1538362%" fx="76.0316474%" fy="6.1538362%" r="210.721393%" id="radialGradient-11">
            <stop stop-color="#555555" offset="0%"></stop>
            <stop stop-color="#1B1B1B" offset="100%"></stop>
        </radialGradient>
        <linearGradient x1="83.4711648%" y1="11.9195273%" x2="0%" y2="90.0449005%" id="linearGradient-12">
            <stop stop-color="#F9F2BF" offset="0%"></stop>
            <stop stop-color="#F5EA95" offset="34.5872471%"></stop>
            <stop stop-color="#EFDB71" offset="100%"></stop>
        </linearGradient>
        <linearGradient x1="70.5595316%" y1="0%" x2="-53.5481154%" y2="57.947556%" id="linearGradient-13">
            <stop stop-color="#555555" offset="0%"></stop>
            <stop stop-color="#1B1B1B" offset="100%"></stop>
        </linearGradient>
        <path d="M105.158203,75.4726562 C115.757161,64.7304688 121.056641,53.9713542 121.056641,43.1953125 C121.056641,27.03125 109.234375,0.64453125 76.3085937,0.64453125 C43.3828125,0.64453125 26.5429687,29.3183594 15.6425781,49.3496094 C4.7421875,69.3808594 -5.85742188,101.248047 4.89257812,144.212891 C15.6425781,187.177734 77.7519531,184.220703 94.578125,176.578125 C111.404297,168.935547 132.275391,156.271484 132.275391,124.458984 C132.275391,103.250651 123.236328,86.921875 105.158203,75.4726562 Z" id="path-14"></path>
        <linearGradient x1="77.7423631%" y1="24.9855557%" x2="12.3795322%" y2="83.7965306%" id="linearGradient-16">
            <stop stop-color="#555555" offset="0%"></stop>
            <stop stop-color="#1B1B1B" offset="100%"></stop>
        </linearGradient>
        <linearGradient x1="8.56995728%" y1="97.6336705%" x2="83.6629071%" y2="1.56475795%" id="linearGradient-17">
            <stop stop-color="#CACACA" offset="0%"></stop>
            <stop stop-color="#F2F2F2" offset="100%"></stop>
        </linearGradient>
        <linearGradient x1="108.957336%" y1="-51.5761566%" x2="0%" y2="90.0449005%" id="linearGradient-18">
            <stop stop-color="#F5EA95" offset="0%"></stop>
            <stop stop-color="#EFDB71" offset="100%"></stop>
        </linearGradient>
        <path d="M0.98046875,5.26757813 C3.22265625,14.1542969 7.25585938,38.2568359 17.4785156,40.8291016 C27.7011719,43.4013672 39.1445313,43.8994141 39.1445313,40.8291016 C39.1445313,38.7822266 36.2128906,36.8854167 30.3496094,35.1386719 C32.3535156,25.7877604 32.3535156,17.7994792 30.3496094,11.1738281 C27.34375,1.23535156 -1.26171875,-3.61914063 0.98046875,5.26757813 Z" id="path-19"></path>
        <radialGradient cx="63.5504782%" cy="37.2808642%" fx="63.5504782%" fy="37.2808642%" r="104.862751%" gradientTransform="translate(0.635505,0.372809),scale(1.000000,0.620899),rotate(90.000000),scale(1.000000,0.638062),translate(-0.635505,-0.372809)" id="radialGradient-21">
            <stop stop-color="#555555" offset="0%"></stop>
            <stop stop-color="#1B1B1B" offset="100%"></stop>
        </radialGradient>
        <linearGradient x1="100%" y1="35.1605018%" x2="9.41181663%" y2="85.3458379%" id="linearGradient-22">
            <stop stop-color="#555555" offset="0%"></stop>
            <stop stop-color="#1B1B1B" offset="100%"></stop>
        </linearGradient>
        <radialGradient cx="76.0316474%" cy="6.1538362%" fx="76.0316474%" fy="6.1538362%" r="194.803402%" id="radialGradient-23">
            <stop stop-color="#555555" offset="0%"></stop>
            <stop stop-color="#1B1B1B" offset="100%"></stop>
        </radialGradient>
        <linearGradient x1="59.916838%" y1="-153.081959%" x2="50%" y2="148.950656%" id="linearGradient-24">
            <stop stop-color="#555555" offset="0%"></stop>
            <stop stop-color="#1B1B1B" offset="100%"></stop>
        </linearGradient>
        <filter x="-6.4%" y="-5.8%" width="111.8%" height="111.5%" filterUnits="objectBoundingBox" id="filter-25">
            <feOffset dx="0" dy="0" in="SourceAlpha" result="shadowOffsetOuter1"></feOffset>
            <feGaussianBlur stdDeviation="2" in="shadowOffsetOuter1" result="shadowBlurOuter1"></feGaussianBlur>
            <feColorMatrix values="0 0 0 0 1   0 0 0 0 0.360784314   0 0 0 0 0.364705882  0 0 0 1 0" type="matrix" in="shadowBlurOuter1" result="shadowMatrixOuter1"></feColorMatrix>
            <feMerge>
                <feMergeNode in="shadowMatrixOuter1"></feMergeNode>
                <feMergeNode in="SourceGraphic"></feMergeNode>
            </feMerge>
        </filter>
        <path d="M26.8104289,20.1447005 L83.9629296,7.74386719 C84.9493188,7.52984246 85.7489452,8.25177165 85.7489452,9.35634115 L85.7489452,88.3563411 C85.7489452,89.4609106 84.9493188,90.5298425 83.9629296,90.7438672 L26.8104289,103.144701 C25.8240397,103.358725 25.0244133,102.636796 25.0244133,101.532227 L25.0244133,22.5322266 C25.0244133,21.4276571 25.8240397,20.3587252 26.8104289,20.1447005 Z" id="path-26"></path>
    </defs>
    <g id="Icon-Character-Swarm" stroke="none" stroke-width="1" fill="none" fill-rule="evenodd">
        <g id="Swarm" filter="url(#filter-1)" opacity="0.5" transform="translate(13.000000, 30.000000)">
            <polygon id="Polygon-2" stroke="#47BD8F" stroke-width="2" fill-opacity="0.15" fill="#47BD8F" points="81.869318 21.096946 125.706934 43.9015486 125.706934 102.901549 81.869318 139.096946 38.0317024 116.292343 38.0317024 57.2923434"></polygon>
            <path d="M85.8998472,61.040344 C84.3742349,60.0924582 82.7462172,58.8252969 81.3251547,57.4312405 C79.7955858,59.3707747 77.9323871,61.3094034 76.4098522,62.6659257 C72.7771755,65.9025993 68.5733373,68.2087255 64.3326605,68.307607 C63.9755852,73.7148313 64.2329098,79.293556 65.2133568,84.2928278 C67.261072,94.7338754 72.3045652,101.849601 81.5318444,103.383999 C90.731831,98.5058023 95.7597849,89.593594 97.6660488,78.3642123 C98.446535,73.7662754 98.7515435,68.0222908 98.3698143,63.1580869 C93.9761635,64.5027759 89.617793,63.3503478 85.8998472,61.040344 Z" id="Combined-Shape" stroke="#FFFFFF" stroke-width="2" fill-opacity="0.1" fill="#47BD8F"></path>
            <path d="M82.3713709,86.4079158 L80.5861959,86.6805688 L80.9990038,83.7305981 C80.5763635,83.5848041 80.2886667,83.144548 80.2886667,82.5645433 C80.2886667,81.7842682 80.8093428,81.0978637 81.4787834,80.9956188 C82.148224,80.893374 82.6689001,81.4640795 82.6689001,82.201006 C82.6689001,82.7810107 82.3812032,83.3091477 81.958563,83.5840429 L82.3713709,86.4079158 Z M76.1604495,79.1421392 L76.1604495,76.9528519 C76.1604495,73.5283109 78.5406828,70.3904619 81.4787834,69.9417205 C84.4168839,69.4929792 86.7971173,71.9037536 86.7971173,75.3282947 L86.7971173,77.5175819 C87.501216,77.6905617 88.0244251,78.4010428 88.0244251,79.3023133 L88.0244251,87.6252485 C88.0244251,88.7956613 87.2062199,89.8309482 86.2392501,89.9786353 L76.7183167,91.4327844 C75.7513469,91.5804715 74.9331417,90.7517678 74.9331417,89.6247036 L74.9331417,81.3017685 C74.9331417,80.4004979 75.4563508,79.5301955 76.1604495,79.1421392 Z M77.2761839,78.8631776 L85.6813829,77.5794366 L85.6813829,75.4987028 C85.6813829,72.8110883 83.7846345,70.8900024 81.4787834,71.2421792 C79.1729323,71.5943559 77.2761839,74.0948294 77.2761839,76.7824438 L77.2761839,78.8631776 Z M76.7183167,80.3355375 C76.3835964,80.38666 76.1232583,80.7298622 76.1232583,81.1199998 L76.1232583,89.442935 C76.1232583,89.8330726 76.3835964,90.096751 76.7183167,90.0456286 L86.2392501,88.5914794 C86.5739704,88.540357 86.8343084,88.1971547 86.8343084,87.8070171 L86.8343084,79.484082 C86.8343084,79.0939444 86.5739704,78.8302659 86.2392501,78.8813884 L76.7183167,80.3355375 Z" id="Lock-Icon" fill="#FFFFFF" fill-rule="nonzero"></path>
            <polygon id="Polygon-2-Copy" stroke="#47BD8F" stroke-width="2" fill-opacity="0.15" fill="#47BD8F" points="169.380682 7.73117898 213.218297 30.5357816 213.218297 89.5357816 169.380682 125.731179 125.543066 102.926576 125.543066 43.9265764"></polygon>
            <path d="M174.266011,47.5440219 C172.740398,46.5961361 171.112381,45.3289748 169.691318,43.9349184 C168.161749,45.8744526 166.298551,47.8130813 164.776016,49.1696036 C161.143339,52.4062772 156.939501,54.7124034 152.698824,54.8112849 C152.341749,60.2185092 152.599073,65.7972338 153.57952,70.7965057 C155.627235,81.2375533 160.670729,88.3532792 169.898008,89.887677 C179.097994,85.0094802 184.125948,76.0972718 186.032212,64.8678902 C186.812698,60.2699533 187.117707,54.5259687 186.735978,49.6617648 C182.342327,51.0064538 177.983956,49.8540256 174.266011,47.5440219 Z" id="Combined-Shape-Copy" stroke="#FFFFFF" stroke-width="2" fill-opacity="0.1" fill="#47BD8F"></path>
            <path d="M170.269988,72.9830028 L168.484813,73.2556557 L168.897621,70.3056851 C168.474981,70.1598911 168.187284,69.719635 168.187284,69.1396303 C168.187284,68.3593551 168.70796,67.6729507 169.377401,67.5707058 C170.046842,67.4684609 170.567518,68.0391665 170.567518,68.776093 C170.567518,69.3560977 170.279821,69.8842347 169.857181,70.1591299 L170.269988,72.9830028 Z M164.059067,65.7172262 L164.059067,63.5279389 C164.059067,60.1033979 166.4393,56.9655489 169.377401,56.5168075 C172.315501,56.0680662 174.695735,58.4788406 174.695735,61.9033816 L174.695735,64.0926689 C175.399834,64.2656487 175.923043,64.9761298 175.923043,65.8774003 L175.923043,74.2003355 C175.923043,75.3707482 175.104837,76.4060352 174.137868,76.5537223 L164.616934,78.0078714 C163.649964,78.1555585 162.831759,77.3268548 162.831759,76.1997906 L162.831759,67.8768554 C162.831759,66.9755849 163.354968,66.1052825 164.059067,65.7172262 Z M165.174801,65.4382646 L173.58,64.1545235 L173.58,62.0737898 C173.58,59.3861753 171.683252,57.4650894 169.377401,57.8172662 C167.07155,58.1694429 165.174801,60.6699164 165.174801,63.3575308 L165.174801,65.4382646 Z M164.616934,66.9106245 C164.282214,66.961747 164.021876,67.3049492 164.021876,67.6950868 L164.021876,76.018022 C164.021876,76.4081596 164.282214,76.671838 164.616934,76.6207156 L174.137868,75.1665664 C174.472588,75.115444 174.732926,74.7722417 174.732926,74.3821041 L174.732926,66.059169 C174.732926,65.6690314 174.472588,65.4053529 174.137868,65.4564754 L164.616934,66.9106245 Z" id="Lock-Icon-Copy" fill="#FFFFFF" fill-rule="nonzero"></path>
            <polygon id="Polygon-2-Copy-2" stroke="#47BD8F" stroke-width="2" fill-opacity="0.15" fill="#47BD8F" points="125.625 103.414062 169.462615 126.218665 169.462615 185.218665 125.625 221.414062 81.7873843 198.60946 81.7873843 139.60946"></polygon>
            <path d="M130.186169,144.025231 C128.660556,143.077346 127.032539,141.810184 125.611476,140.416128 C124.081907,142.355662 122.218709,144.294291 120.696174,145.650813 C117.063497,148.887487 112.859659,151.193613 108.618982,151.292495 C108.261907,156.699719 108.519231,162.278443 109.499678,167.277715 C111.547394,177.718763 116.590887,184.834489 125.818166,186.368887 C135.018153,181.49069 140.046106,172.578481 141.95237,161.3491 C142.732857,156.751163 143.037865,151.007178 142.656136,146.142974 C138.262485,147.487663 133.904115,146.335235 130.186169,144.025231 Z" id="Combined-Shape-Copy-2" stroke="#FFFFFF" stroke-width="2" fill-opacity="0.1" fill="#47BD8F"></path>
            <path d="M126.199593,168.928826 L124.414418,169.201479 L124.827226,166.251508 C124.404585,166.105714 124.116889,165.665458 124.116889,165.085453 C124.116889,164.305178 124.637565,163.618774 125.307005,163.516529 C125.976446,163.414284 126.497122,163.984989 126.497122,164.721916 C126.497122,165.301921 126.209425,165.830058 125.786785,166.104953 L126.199593,168.928826 Z M119.988671,161.663049 L119.988671,159.473762 C119.988671,156.049221 122.368905,152.911372 125.307005,152.46263 C128.245106,152.013889 130.625339,154.424663 130.625339,157.849205 L130.625339,160.038492 C131.329438,160.211472 131.852647,160.921953 131.852647,161.823223 L131.852647,170.146158 C131.852647,171.316571 131.034442,172.351858 130.067472,172.499545 L120.546538,173.953694 C119.579569,174.101381 118.761363,173.272678 118.761363,172.145613 L118.761363,163.822678 C118.761363,162.921408 119.284573,162.051105 119.988671,161.663049 Z M121.104406,161.384087 L129.509605,160.100346 L129.509605,158.019613 C129.509605,155.331998 127.612856,153.410912 125.307005,153.763089 C123.001154,154.115266 121.104406,156.615739 121.104406,159.303354 L121.104406,161.384087 Z M120.546538,162.856447 C120.211818,162.90757 119.95148,163.250772 119.95148,163.64091 L119.95148,171.963845 C119.95148,172.353982 120.211818,172.617661 120.546538,172.566538 L130.067472,171.112389 C130.402192,171.061267 130.66253,170.718065 130.66253,170.327927 L130.66253,162.004992 C130.66253,161.614854 130.402192,161.351176 130.067472,161.402298 L120.546538,162.856447 Z" id="Lock-Icon-Copy-2" fill="#FFFFFF" fill-rule="nonzero"></path>
        </g>
        <g id="Character-Illustration" transform="translate(157.000000, 73.000000)">
            <ellipse id="Shade" fill-opacity="0.05" fill="#000000" style="mix-blend-mode: multiply;" cx="97" cy="203" rx="92" ry="14"></ellipse>
            <g id="Leg-Back" transform="translate(112.000000, 163.000000)">
                <mask id="mask-4" fill="white">
                    <use xlink:href="#path-3"></use>
                </mask>
                <use fill="url(#linearGradient-2)" xlink:href="#path-3"></use>
                <path d="M10.4177284,33.0681531 C12.0407163,35.345426 13.9221101,36.9745164 16.1133257,37.5258788 C25.496437,39.8868948 36,40.3440391 36,37.5258788 C35.046875,39.1635742 16.1133257,38.3642578 10.4177284,33.0681531 Z" id="Leg-Shade" fill-opacity="0.1" fill="#000000" style="mix-blend-mode: multiply;" mask="url(#mask-4)"></path>
            </g>
            <g id="Butt" transform="translate(0.000000, 94.000000)">
                <polygon id="Triangle" fill="url(#linearGradient-5)" transform="translate(11.628124, 17.161889) rotate(-57.000000) translate(-11.628124, -17.161889) " points="11.6281238 11.6618894 23.6281238 22.6618894 -0.371876168 22.6618894"></polygon>
                <polygon id="Triangle-Copy" fill-opacity="0.1" fill="#FFFFFF" style="mix-blend-mode: lighten;" transform="translate(13.440335, 14.166375) rotate(-57.000000) translate(-13.440335, -14.166375) " points="9.94108407 8.77800073 16.939586 19.5547487 14.5805734 19.508924"></polygon>
                <polygon id="Triangle-Copy-2" fill-opacity="0.1" fill="#FFFFFF" style="mix-blend-mode: lighten;" transform="translate(11.943753, 15.945736) rotate(-57.000000) translate(-11.943753, -15.945736) " points="10.7518971 10.8433918 13.1356089 21.0480806 12.0909318 20.8514422"></polygon>
                <mask id="mask-8" fill="white">
                    <use xlink:href="#path-7"></use>
                </mask>
                <use fill="url(#linearGradient-6)" xlink:href="#path-7"></use>
                <path d="M20.1020074,69.4682165 C17.605189,66.4306568 15.5352889,63.3841114 13.8564639,60.358958 C13.8564639,35.1123513 30.9003906,7.06054688 52.0245773,0.756486058 C55.7760529,1.26339208 59.8765891,2.24097976 64.3765005,3.77739269 C32.2431641,14.1826172 22.1010742,43.5756836 20.1020074,69.4682165 Z" id="Path-4-Copy" fill="url(#linearGradient-5)" mask="url(#mask-8)"></path>
                <path d="M36.659373,83.529619 C33.4527489,81.6172585 30.4587085,79.5318464 27.7499188,77.2661301 C25.4477539,38.9506836 51.8922111,8.47993432 67.6000256,4.94824219 C70.5437239,6.07979838 73.3964132,7.25831715 76.1586638,8.47993432 C51.8922111,21.7363281 33.6928711,50.8598633 36.659373,83.529619 Z" id="Path-4-Copy-2" fill="url(#linearGradient-5)" mask="url(#mask-8)"></path>
                <mask id="mask-10" fill="white">
                    <use xlink:href="#path-9"></use>
                </mask>
                <use id="Path-4-Copy-3" fill-opacity="0.05" fill="#000000" style="mix-blend-mode: multiply;" xlink:href="#path-9"></use>
            </g>
            <g id="Wings" transform="translate(25.000000, 49.000000)" fill="#96CCE5" fill-opacity="0.5">
                <ellipse id="Oval" transform="translate(26.868353, 20.000000) rotate(12.000000) translate(-26.868353, -20.000000) " cx="26.8683531" cy="20" rx="12.4387436" ry="17.8028753"></ellipse>
                <ellipse id="Oval" transform="translate(15.868353, 21.000000) rotate(12.000000) translate(-15.868353, -21.000000) " cx="15.8683531" cy="21" rx="12.4387436" ry="17.8028753"></ellipse>
            </g>
            <g id="Antenna-Back" transform="translate(132.000000, 4.000000)">
                <path d="M16.6469674,2.23219854 C17.2954102,2.96826172 8.14132261,9.96557577 6.45945574,16.709095 C4.77758888,23.4526142 -1.86560689,22.6865889 1.98815115,15.6412076 C5.84190919,8.5958263 15.9985247,1.49613537 16.6469674,2.23219854 Z" id="Path-5" fill="url(#linearGradient-5)"></path>
                <circle id="Oval-2" fill="url(#radialGradient-11)" cx="16.5" cy="2.5" r="2.5"></circle>
            </g>
            <g id="Hand-3" transform="translate(132.000000, 85.000000)">
                <path d="M26.0195312,22.2373047 C31.4964193,14.819987 37.957194,10.5266927 45.4018555,9.35742187 C52.8465169,8.18815104 54.1425781,6.98046875 49.2900391,5.734375 C58.5234375,4.109375 58.5234375,2.63037109 49.2900391,1.29736328 C40.0566406,-0.0356445313 28.3548177,1.44335937 14.1845703,5.734375 L26.0195312,22.2373047 Z" id="Path-8" fill="url(#linearGradient-12)"></path>
                <path d="M5.7327386,5.73064864 C8.33574683,4.54689548 18.5939084,3.78271484 24.9150391,2.40771484 C24.9150391,2.40771484 27.8304036,8.48925781 33.6611328,20.6523437 C27.8304036,26.2057292 21.5315755,29.6077474 14.7646484,30.8583984 C3.04279779,33.0248094 -5.40332031,10.7949219 5.7327386,5.73064864 Z" id="Path-9" fill="url(#linearGradient-13)"></path>
            </g>
            <g id="Hand-4" transform="translate(159.959136, 130.882542) rotate(13.000000) translate(-159.959136, -130.882542) translate(133.459136, 112.382542)">
                <path d="M27.3246358,28.041744 C31.6166571,20.0930009 37.4849984,15.533994 44.9296599,14.3647231 C52.3743214,13.1954523 53.5200777,11.5436206 48.3669289,9.40922816 C54.6378608,0.287972116 53.6728696,-1.49688434 45.4719553,4.05465881 C41.8997767,6.47281647 31.1629449,8.25767292 13.2614601,9.40922816 L27.3246358,28.041744 Z" id="Path-8" fill="url(#linearGradient-12)"></path>
                <path d="M7.7327386,8.73064864 C10.3357468,7.54689548 20.5939084,6.78271484 26.9150391,5.40771484 C26.9150391,5.40771484 29.8304036,11.4892578 35.6611328,23.6523437 C29.8304036,29.2057292 23.5315755,32.6077474 16.7646484,33.8583984 C5.04279779,36.0248094 -3.40332031,13.7949219 7.7327386,8.73064864 Z" id="Path-9" fill="url(#linearGradient-13)" transform="translate(19.090329, 19.707130) rotate(10.000000) translate(-19.090329, -19.707130) "></path>
            </g>
            <g id="Body" transform="translate(39.000000, 14.000000)">
                <mask id="mask-15" fill="white">
                    <use xlink:href="#path-14"></use>
                </mask>
                <use fill="url(#linearGradient-2)" xlink:href="#path-14"></use>
                <path d="M31.2602477,174.37533 C53.8797944,184.50314 83.697191,181.52033 94.578125,176.578125 C72.090332,179.980957 47.3583984,177.702523 31.2602477,174.37533 Z" id="Body-Shade" fill-opacity="0.05" fill="#000000" style="mix-blend-mode: multiply;" mask="url(#mask-15)"></path>
                <path d="M95.3289077,18.4673443 C97.5888515,16.8846968 96.9651113,12.5299234 93.9357451,8.9340061 C90.9063789,5.46829361 86.618546,4.0771021 84.3586022,5.63337248 C82.0986584,7.1063118 82.7223986,10.9745459 85.7517648,14.4666355 C88.781131,18.0889299 93.068964,19.9666607 95.3289077,18.4673443 Z" id="Oval-6" fill-opacity="0.3" fill="#FFFFFF" style="mix-blend-mode: overlay;" mask="url(#mask-15)"></path>
                <path d="M99.5459768,26.0283171 C100.428519,25.4102695 100.184939,23.7096654 99.001926,22.3054059 C97.8189132,20.9519933 96.1444503,20.4087122 95.2619084,21.0164591 C94.3793666,21.5916639 94.6229464,23.1022672 95.8059592,24.4659804 C96.9889721,25.8805406 98.663435,26.6138226 99.5459768,26.0283171 Z" id="Oval-6-Copy" fill-opacity="0.3" fill="#FFFFFF" style="mix-blend-mode: overlay;" mask="url(#mask-15)" transform="translate(97.403943, 23.500000) rotate(14.000000) translate(-97.403943, -23.500000) "></path>
                <path d="M105.158203,75.4726563 C87.9511719,91.2910156 38.7509766,75.4726563 15.6425781,49.3496094 C7.40771183,64.4825226 -0.655490254,86.3705337 0.528489246,114.695322 C15.6425781,147.433594 118.55957,167.189453 130.578262,139.13292 C131.668499,134.75171 132.275391,129.883746 132.275391,124.458984 C132.275391,88.2539062 105.158203,75.4726562 105.158203,75.4726563 Z" id="Tee" stroke="url(#linearGradient-5)" stroke-width="0.5" fill="url(#linearGradient-16)" mask="url(#mask-15)"></path>
                <path d="M94.1930864,93.4854435 C94.2452468,93.6842169 94.2896421,93.8865133 94.3235582,94.093334 C94.4505194,94.8688648 94.4344809,95.6314628 94.2962452,96.354552 C91.1937211,95.2476114 88.7304336,92.2760144 88.1360114,88.5045165 C87.9547463,87.3633838 87.9588836,86.2542401 88.12326,85.2149852 C88.9754403,85.2634633 89.8126269,85.4425476 90.6146863,85.7324388 C90.4617476,86.5271245 90.4438009,87.3819883 90.5873335,88.2636536 C90.9632189,90.5847491 92.3616499,92.493308 94.1930864,93.4854435 Z M91.1323568,88.2101285 C91.0032043,87.4212074 91.0159048,86.6552507 91.1496298,85.941771 C94.2498843,87.229411 96.7315429,90.1155591 97.3359312,93.6572563 C98.1782501,98.6694122 94.907808,103.581665 90.0618318,104.629185 L89.6513932,101.900125 C93.1291992,101.21734 95.4726989,97.6865796 94.8709118,94.0140471 C94.4960649,91.7500203 93.093368,89.8712849 91.2625606,88.828099 C91.2103764,88.6257843 91.1666223,88.4197831 91.1323568,88.2101285 Z M99.7603194,96.9414704 C100.58805,96.6791694 101.360008,96.3108403 102.062925,95.8564881 C103.466831,97.7373831 105.872947,98.7297764 108.369631,98.2450365 L108.809156,100.59871 C105.158044,101.379044 101.654472,99.8503412 99.7603194,96.9414704 Z M105.49858,86.2932184 C102.631392,86.8210624 100.697794,89.2984853 100.806018,92.2340899 C100.144593,92.8144134 99.3379498,93.248074 98.4283778,93.4709741 C97.6470008,88.8804959 100.32921,84.8391494 104.551788,84 C104.968844,84.7156774 105.290048,85.4847858 105.49858,86.2932184 Z M97.9804236,94.1427175 C101.162507,93.6688982 103.372941,90.9660387 103.249616,87.9153835 C103.906851,87.3765112 104.709631,86.9924229 105.617863,86.8172235 C106.497561,91.4510256 103.264057,95.8657248 98.4112692,96.6840837 C98.2450594,96.7121556 98.0793012,96.7347502 97.9139302,96.7530709 C98.043319,95.9067347 98.0638651,95.032031 97.9804236,94.1427175 Z" id="Modus-Icon" fill="url(#linearGradient-17)" mask="url(#mask-15)" transform="translate(98.404578, 94.314593) rotate(-7.000000) translate(-98.404578, -94.314593) "></path>
            </g>
            <g id="Leg-Front" transform="translate(61.000000, 162.000000)">
                <mask id="mask-20" fill="white">
                    <use xlink:href="#path-19"></use>
                </mask>
                <use fill="url(#linearGradient-18)" xlink:href="#path-19"></use>
                <path d="M10.8602974,35.3727437 C12.7203947,38.1663839 14.9030215,40.1810454 17.4785156,40.8291016 C27.7011719,43.4013672 39.1445313,43.8994141 39.1445313,40.8291016 C37.7939453,42.7836914 14.9030215,40.8291016 10.8602974,35.3727437 Z" id="Leg-Shade" fill-opacity="0.1" fill="#000000" style="mix-blend-mode: multiply;" mask="url(#mask-20)"></path>
            </g>
            <g id="Face" transform="translate(105.000000, 35.000000)">
                <ellipse id="Eye-1" fill="url(#radialGradient-21)" cx="7.35059656" cy="19.7857946" rx="2.35059656" ry="3.78579463"></ellipse>
                <path d="M1.95977739,3.55772987 C1.26097755,4.3212376 0.735995955,5.37365723 0.219394393,5.07055664 C-0.29720717,4.76745605 0.142065242,4.01219352 1.08135942,2.89080675 C2.93926958,0.672720101 5.97735551,-1.05115685 9.86505083,0.754507211 C11.6207656,1.56995977 12.5128514,2.57873535 11.9380223,2.89080675 C11.3631932,3.20287814 10.2696538,2.34032164 9.3450313,2.04166844 C7.65896959,1.49707031 4.52542467,0.754507211 1.95977739,3.55772987 Z" id="Brow-1" fill="url(#linearGradient-22)" fill-rule="nonzero"></path>
                <ellipse id="Eye-2" fill="url(#radialGradient-21)" cx="44.3505966" cy="23.7857946" rx="2.35059656" ry="3.78579463"></ellipse>
                <path d="M40.8709671,16.0776012 C40.1721673,16.8411089 39.1690321,18.171461 38.6524306,17.8683604 C38.135829,17.5652599 38.5751014,16.8099973 39.5143956,15.6886105 C41.3723058,13.4705239 44.4103917,11.746647 48.298087,13.552311 C50.0538018,14.3677636 50.9903289,15.6354037 50.6293864,15.5319051 C50.2684439,15.4284065 48.9948344,14.6456595 48.0702118,14.3470063 C46.3841501,13.8024082 43.4366144,13.2743785 40.8709671,16.0776012 Z" id="Brow-2" fill="url(#linearGradient-22)" fill-rule="nonzero" transform="translate(44.569535, 15.355146) rotate(-16.000000) translate(-44.569535, -15.355146) "></path>
                <path d="M23.4063123,32.8633552 C22.9017684,33.5580641 21.9392566,35.3248225 21.2356417,34.8875383 C20.5320268,34.450254 21.2839812,32.2005514 21.6296525,31.4795162 C24.1288535,26.2664363 29.2472288,24.4767086 33.370559,27.5857325 C34.6455342,28.5470739 35.6055627,29.2897522 35.1424531,29.9766445 C34.6793435,30.6635368 33.5407874,29.8151246 32.6460515,29.4814594 C29.6374299,28.3594832 25.9246694,29.3958171 23.4063123,32.8633552 Z" id="Mouth-Upset" fill="url(#linearGradient-5)" fill-rule="nonzero" transform="translate(28.102946, 30.505597) rotate(24.000000) translate(-28.102946, -30.505597) "></path>
            </g>
            <g id="Antenna-Front" transform="translate(109.000000, 0.000000)">
                <path d="M18.328125,2.53955078 C19.2104492,3.46484375 9.01367188,11.0083008 7.171875,18.3930664 C5.33007813,25.777832 -1.94482422,24.9389648 2.27539063,17.2236328 C6.49560547,9.50830078 17.4458008,1.61425781 18.328125,2.53955078 Z" id="Path-5" fill="url(#linearGradient-5)"></path>
                <circle id="Oval-2" fill="url(#radialGradient-23)" cx="18" cy="3" r="3"></circle>
            </g>
            <g id="Hand-1" transform="translate(79.000000, 73.000000)">
                <path d="M11.0990287,18.7815584 C22.7964879,14.9315892 30.8253273,10.6892989 35.1855469,6.0546875 C39.5457665,1.42007607 40.9718732,2.20620888 39.4638672,8.41308594 C47.1456486,-0.470911825 48.8230574,0.938593384 44.4960937,12.6416016 C40.1691301,24.3446097 32.1310529,31.0472379 20.3818623,32.749486 L11.0990287,18.7815584 Z" id="Path-8-Copy-2" fill-opacity="0.1" fill="#000000" style="mix-blend-mode: multiply;"></path>
                <path d="M11.0990287,18.7815584 C22.228674,14.1859923 29.9736064,9.57090358 34.333826,4.93629215 C38.6940456,0.301680715 40.1580448,1.06196032 38.7258235,7.21713096 C46.2364865,-2.3867164 47.8283361,-1.33713599 43.5013725,10.3658722 C39.1744088,22.0688804 31.4679054,29.530085 20.3818623,32.749486 L11.0990287,18.7815584 Z" id="Path-8" fill="url(#linearGradient-12)"></path>
                <path d="M4.7327386,17.7306486 C6.65429687,16.5302734 13.2802734,16.5302734 19.3696289,14.1391602 C19.3696289,14.1391602 23.6191406,19.882487 32.1181641,31.3691406 C29.0989794,36.3305919 24.2575608,40.1637111 17.5939084,42.8684981 C4.7327386,48.0888672 -6.76770667,24.9148436 4.7327386,17.7306486 Z" id="Path-9" fill="url(#linearGradient-13)"></path>
            </g>
            <g id="Hand-2" transform="translate(94.890018, 136.390774) rotate(-26.000000) translate(-94.890018, -136.390774) translate(62.390018, 105.890774)">
                <g id="Phone" transform="translate(47.569635, 41.711856) rotate(34.000000) translate(-47.569635, -41.711856) translate(38.569635, 25.211856)">
                    <rect id="Rectangle-2-Copy" fill-opacity="0.1" fill="#000000" style="mix-blend-mode: multiply;" x="1.26861427" y="1.84136304" width="16" height="31" rx="2"></rect>
                    <rect id="Rectangle-2" stroke="#EBEBEB" stroke-width="0.2" fill="#EBEBEB" x="0" y="0" width="16" height="31" rx="2"></rect>
                    <circle id="Oval-5" fill="#B4B4B4" cx="3.27031345" cy="3.21532937" r="1.5"></circle>
                </g>
                <path d="M11.2378742,31.0011755 C22.4773941,26.4056094 30.2987863,21.7905207 34.7020511,17.1559092 C34.7020511,17.1559092 35.8354245,18.1785683 38.1021713,20.2238865 C47.0801341,11.4326208 49.3842753,12.888492 45.0145948,24.5915002 C40.6449143,36.2945084 32.5108328,43.0870427 20.6123502,44.9691031 L11.2378742,31.0011755 Z" id="Path-8-Copy-3" fill-opacity="0.1" fill="#000000" style="mix-blend-mode: multiply;" transform="translate(29.199127, 29.768155) rotate(81.000000) translate(-29.199127, -29.768155) "></path>
                <path d="M12.319731,31.1264361 C23.5592508,26.53087 31.3806431,21.9157813 35.7839079,17.2811699 C35.7839079,17.2811699 36.9172813,18.3038289 39.184028,20.3491471 C47.4589956,10.2205408 49.4116391,11.0077417 45.0419585,22.7107499 C40.672278,34.4137581 32.8896942,41.8749627 21.694207,45.0943637 L12.319731,31.1264361 Z" id="Path-8-Copy" fill="url(#linearGradient-2)" transform="translate(29.813386, 29.197440) rotate(81.000000) translate(-29.813386, -29.197440) "></path>
                <path d="M7.12210136,8.1975953 C10.2430511,7.05563306 15.752728,8.03624096 21.9483902,4.83222019 C21.9483902,4.83222019 26.2831004,11.3406101 34.9525207,24.3573899 C31.6521154,27.3672082 26.7046884,30.3598931 20.1102397,33.3354448 C9.66295022,36.7752639 -9.53324026,14.2918207 7.12210136,8.1975953 Z" id="Path-9-Copy" fill="url(#linearGradient-24)" transform="translate(17.768583, 19.261739) rotate(81.000000) translate(-17.768583, -19.261739) "></path>
            </g>
            <g id="Interface" filter="url(#filter-25)" transform="translate(121.000000, 56.000000)">
                <g id="Rectangle-5-Copy-2">
                    <use fill-opacity="0.15" fill="#FF5C5D" fill-rule="evenodd" style="mix-blend-mode: overlay;" xlink:href="#path-26"></use>
                    <path stroke-opacity="0.5" stroke="#FF5C5D" stroke-width="1" d="M26.9164509,20.6333306 C26.1677241,20.7957878 25.5244133,21.6557586 25.5244133,22.5322266 L25.5244133,101.532227 C25.5244133,102.330761 26.0435565,102.79946 26.704407,102.65607 L83.8569076,90.2552371 C84.6056344,90.0927799 85.2489452,89.2328091 85.2489452,88.3563411 L85.2489452,9.35634115 C85.2489452,8.55780688 84.7298021,8.08910726 84.0689516,8.23249726 L26.9164509,20.6333306 Z" stroke-linejoin="square"></path>
                </g>
                <path d="M64.5808654,88.949348 L63.9494135,88.3825636 L68.9406112,81.736558 C68.0064371,80.7217461 67.4422849,79.2634153 67.4422849,77.5358153 C67.4422849,73.6879252 70.2409774,69.9613394 73.6933396,69.2122529 C77.1457018,68.4631664 79.9443944,70.975243 79.9443944,74.823133 C79.9443944,78.671023 77.1457018,82.3976088 73.6933396,83.1466953 C72.11241,83.4897222 70.6685529,83.1488927 69.5677463,82.3090904 L64.5808654,88.949348 Z M32.9233987,24.8183208 L33.5586333,25.3842845 L32.6057814,26.6467258 L33.5586333,27.4956713 L32.9233987,28.3372989 L31.9705468,27.4883533 L31.0176948,28.7507946 L30.3824602,28.1848309 L31.3353122,26.9223896 L30.3824602,26.0734441 L31.0176948,25.2318165 L31.9705468,26.0807621 L32.9233987,24.8183208 Z M80.3908983,27.3631815 L66.3868921,30.4017423 L73.3888952,15.4456781 L80.3908983,27.3631815 Z M73.3888952,17.4363128 L67.9428928,29.0688071 L78.8348976,26.7054821 L73.3888952,17.4363128 Z M72.9397165,20.5197266 L73.8380739,20.3248028 L73.8380739,24.2344101 L72.9397165,24.4293339 L72.9397165,20.5197266 Z M72.9397165,25.4963132 L73.8380739,25.3013894 L73.8380739,26.8751243 L72.9397165,27.070048 L72.9397165,25.4963132 Z M54.4936714,24.1099508 L54.4936714,23.1146335 L64.6863141,20.9030546 L64.6863141,21.8983719 L54.4936714,24.1099508 Z M54.078683,27.33567 L54.078683,26.3403527 L64.2713257,24.1287738 L64.2713257,25.1240912 L54.078683,27.33567 Z M58.5713474,29.3468128 L58.5713474,28.3514955 L64.2713257,27.1147258 L64.2713257,28.1100431 L58.5713474,29.3468128 Z M33.9902467,78.5821556 L33.9902467,77.5868383 L52.1842046,73.6391503 L52.1842046,74.6344676 L33.9902467,78.5821556 Z M33.9902467,85.5821556 L33.9902467,84.5868383 L52.1842046,80.6391503 L52.1842046,81.6344676 L33.9902467,85.5821556 Z M33.9902467,92.5821556 L33.9902467,91.5868383 L52.1842046,87.6391503 L52.1842046,88.6344676 L33.9902467,92.5821556 Z M55.3866793,70.9442839 L58.0657027,70.3629948 C58.5588973,70.2559824 58.9587106,70.616947 58.9587106,71.1692318 L58.9587106,74.1692318 C58.9587106,74.7215165 58.5588973,75.2559824 58.0657027,75.3629948 L55.3866793,75.9442839 C54.8934847,76.0512962 54.4936714,75.6903316 54.4936714,75.1380469 L54.4936714,72.1380469 C54.4936714,71.5857621 54.8934847,71.0512962 55.3866793,70.9442839 Z M55.3866793,77.9442839 L58.0657027,77.3629948 C58.5588973,77.2559824 58.9587106,77.616947 58.9587106,78.1692318 L58.9587106,81.1692318 C58.9587106,81.7215165 58.5588973,82.2559824 58.0657027,82.3629948 L55.3866793,82.9442839 C54.8934847,83.0512962 54.4936714,82.6903316 54.4936714,82.1380469 L54.4936714,79.1380469 C54.4936714,78.5857621 54.8934847,78.0512962 55.3866793,77.9442839 Z M55.3866793,84.9442839 L58.0657027,84.3629948 C58.5588973,84.2559824 58.9587106,84.616947 58.9587106,85.1692318 L58.9587106,88.1692318 C58.9587106,88.7215165 58.5588973,89.2559824 58.0657027,89.3629948 L55.3866793,89.9442839 C54.8934847,90.0512962 54.4936714,89.6903316 54.4936714,89.1380469 L54.4936714,86.1380469 C54.4936714,85.5857621 54.8934847,85.0512962 55.3866793,84.9442839 Z M55.8331832,71.8474023 C55.5865859,71.9009085 55.3866793,72.1681415 55.3866793,72.4442839 L55.3866793,74.4442839 C55.3866793,74.7204262 55.5865859,74.9009085 55.8331832,74.8474023 L57.6191988,74.4598763 C57.8657961,74.4063701 58.0657027,74.1391372 58.0657027,73.8629948 L58.0657027,71.8629948 C58.0657027,71.5868524 57.8657961,71.4063701 57.6191988,71.4598763 L55.8331832,71.8474023 Z M55.8331832,78.8474023 C55.5865859,78.9009085 55.3866793,79.1681415 55.3866793,79.4442839 L55.3866793,81.4442839 C55.3866793,81.7204262 55.5865859,81.9009085 55.8331832,81.8474023 L57.6191988,81.4598763 C57.8657961,81.4063701 58.0657027,81.1391372 58.0657027,80.8629948 L58.0657027,78.8629948 C58.0657027,78.5868524 57.8657961,78.4063701 57.6191988,78.4598763 L55.8331832,78.8474023 Z M55.8331832,85.8474023 C55.5865859,85.9009085 55.3866793,86.1681415 55.3866793,86.4442839 L55.3866793,88.4442839 C55.3866793,88.7204262 55.5865859,88.9009085 55.8331832,88.8474023 L57.6191988,88.4598763 C57.8657961,88.4063701 58.0657027,88.1391372 58.0657027,87.8629948 L58.0657027,85.8629948 C58.0657027,85.5868524 57.8657961,85.4063701 57.6191988,85.4598763 L55.8331832,85.8474023 Z M73.6933396,82.151378 C76.6525072,81.5093038 79.0513866,78.3150874 79.0513866,75.016896 C79.0513866,71.7187045 76.6525072,69.5654961 73.6933396,70.2075702 C70.734172,70.8496444 68.3352927,74.0438608 68.3352927,77.3420522 C68.3352927,80.6402437 70.734172,82.7934522 73.6933396,82.151378 Z M66.995781,51.4253646 L78.6048827,48.9064453 L78.6048827,35.9064453 L66.995781,38.4253646 L66.995781,51.4253646 Z M66.549277,37.5222461 L79.0513866,34.8095638 C79.2979839,34.7560576 79.4978905,34.9365399 79.4978905,35.2126823 L79.4978905,49.2126823 C79.4978905,49.4888247 79.2979839,49.7560576 79.0513866,49.8095638 L66.549277,52.5222461 C66.3026797,52.5757523 66.1027731,52.39527 66.1027731,52.1191276 L66.1027731,38.1191276 C66.1027731,37.8429852 66.3026797,37.5757523 66.549277,37.5222461 Z M50.0286323,55.106862 L61.637734,52.5879427 L61.637734,39.5879427 L50.0286323,42.106862 L50.0286323,55.106862 Z M49.5821284,41.2037435 L62.0842379,38.4910612 C62.3308352,38.437555 62.5307418,38.6180373 62.5307418,38.8941797 L62.5307418,52.8941797 C62.5307418,53.1703221 62.3308352,53.437555 62.0842379,53.4910612 L49.5821284,56.2037435 C49.3355311,56.2572497 49.1356245,56.0767674 49.1356245,55.800625 L49.1356245,41.800625 C49.1356245,41.5244826 49.3355311,41.2572497 49.5821284,41.2037435 Z M34.8474993,58.4008333 L46.456601,55.8819141 L46.456601,42.8819141 L34.8474993,45.4008333 L34.8474993,58.4008333 Z M34.4009954,44.4977148 L46.9031049,41.7850326 C47.1497022,41.7315264 47.3496089,41.9120087 47.3496089,42.188151 L47.3496089,56.188151 C47.3496089,56.4642934 47.1497022,56.7315264 46.9031049,56.7850326 L34.4009954,59.4977148 C34.1543981,59.551221 33.9544915,59.3707387 33.9544915,59.0945964 L33.9544915,45.0945964 C33.9544915,44.818454 34.1543981,44.551221 34.4009954,44.4977148 Z M34.8474993,64.4008333 L34.8474993,69.4008333 L53.6006636,65.3318099 L53.6006636,60.3318099 L34.8474993,64.4008333 Z M34.4009954,63.4977148 L54.0471675,59.2349284 C54.2937648,59.1814222 54.4936714,59.3619045 54.4936714,59.6380469 L54.4936714,65.6380469 C54.4936714,65.9141892 54.2937648,66.1814222 54.0471675,66.2349284 L34.4009954,70.4977148 C34.1543981,70.551221 33.9544915,70.3707387 33.9544915,70.0945964 L33.9544915,64.0945964 C33.9544915,63.818454 34.1543981,63.551221 34.4009954,63.4977148 Z M59.8517184,58.9754688 L59.8517184,63.9754688 L78.6048827,59.9064453 L78.6048827,54.9064453 L59.8517184,58.9754688 Z M59.4052145,58.0723503 L79.0513866,53.8095638 C79.2979839,53.7560576 79.4978905,53.9365399 79.4978905,54.2126823 L79.4978905,60.2126823 C79.4978905,60.4888247 79.2979839,60.7560576 79.0513866,60.8095638 L59.4052145,65.0723503 C59.1586172,65.1258564 58.9587106,64.9453741 58.9587106,64.6692318 L58.9587106,58.6692318 C58.9587106,58.3930894 59.1586172,58.1258564 59.4052145,58.0723503 Z" id="Panel-Copy-2" fill-opacity="0.5" fill="#FFFFFF" fill-rule="nonzero" style="mix-blend-mode: overlay;"></path>
                <path d="M88.8744726,8.17817057 L87.9814648,8.37193359 C87.9814648,6.16279459 86.3822119,4.71893623 84.4094335,5.14698568 L84.4094335,4.14698568 C86.8754065,3.61192387 88.8744726,5.41674682 88.8744726,8.17817057 Z" id="Path" fill-opacity="0.5" fill="#FF5C5D" style="mix-blend-mode: overlay;"></path>
                <path d="M91.5534961,7.59688151 L90.6604883,7.79064453 C90.6604883,3.92465128 87.8617957,1.39789915 84.4094335,2.14698568 L84.4094335,1.14698568 C88.3549903,0.290886785 91.5534961,3.17860351 91.5534961,7.59688151 Z" id="Path" fill-opacity="0.5" fill="#FF5C5D" style="mix-blend-mode: overlay;"></path>
                <polyline id="Path-11" stroke-opacity="0.5" stroke="#FF5C5D" points="23.6367187 88.8068179 13.8180684 88.8068179 13.8180684 86 10.0859182 86 10.0859182 88.8068179 7 88.8068179"></polyline>
                <path d="M6.00488306,88.8068179 L4.41147575,88.8068179" id="Path-11-Copy" stroke-opacity="0.5" stroke="#FF5C5D"></path>
                <path d="M3.00488306,88.8068179 L1.41147575,88.8068179" id="Path-11-Copy-2" stroke-opacity="0.5" stroke="#FF5C5D"></path>
                <polyline id="Path-11-Copy-5" stroke-opacity="0.5" stroke="#FF5C5D" points="103.004883 28.8068179 99.8180684 28.8068179 96.8180684 26 93.0859182 26 90.0859182 28.8068179 86.6635742 28.8068179"></polyline>
                <path d="M109.004883,28.8068179 L107.411476,28.8068179" id="Path-11-Copy-4" stroke-opacity="0.5" stroke="#FF5C5D"></path>
                <path d="M106.004883,28.8068179 L104.411476,28.8068179" id="Path-11-Copy-3" stroke-opacity="0.5" stroke="#FF5C5D"></path>
                <path d="M3,70 C3,68.3431458 1.65685425,67 0,67" id="Oval-7" stroke-opacity="0.5" stroke="#FF5C5D"></path>
                <path d="M5,70 C5,67.2385763 2.76142375,65 0,65" id="Oval-7" stroke-opacity="0.5" stroke="#FF5C5D"></path>
            </g>
        </g>
    </g>
</svg>